<svg id="svg" version="1.1" xmlns="http://www.w3.org/2000/svg" width="400"
     height="400" viewBox="0, 0, 400,400">
    <g id="svgg">
        <path id="path0"
              d="M116.600 18.335 C 114.988 18.517,114.400 19.076,114.400 20.425 C 114.400 22.057,113.653 22.271,113.136 20.787 C 111.995 17.516,104.424 17.475,102.882 20.731 C 102.363 21.827,101.881 22.235,100.863 22.442 C 99.187 22.783,98.783 23.187,98.442 24.863 C 98.235 25.883,97.827 26.363,96.721 26.886 C 95.686 27.376,95.138 27.977,94.804 28.986 C 94.458 30.035,94.111 30.400,93.458 30.400 C 92.147 30.400,90.855 31.477,90.494 32.870 C 90.253 33.799,89.835 34.214,88.801 34.552 C 87.528 34.967,86.776 35.889,86.234 37.700 C 86.088 38.189,85.614 38.400,84.662 38.400 C 83.035 38.400,82.510 38.936,82.333 40.779 C 82.221 41.939,82.004 42.204,80.950 42.475 C 79.430 42.866,78.781 43.595,78.434 45.302 C 78.171 46.599,78.169 46.600,75.249 46.800 C 71.030 47.089,70.800 47.455,70.800 53.871 C 70.800 59.423,71.045 60.209,73.032 61.039 C 74.780 61.769,74.754 62.161,72.902 63.067 C 70.218 64.380,70.101 67.595,72.692 68.800 C 74.395 69.592,74.331 69.850,72.367 70.114 C 70.182 70.407,70.220 70.333,70.061 74.633 L 69.923 78.400 66.790 78.400 C 62.849 78.400,62.400 78.768,62.400 82.000 C 62.400 85.307,62.791 85.595,67.329 85.623 C 71.045 85.646,75.699 86.254,72.929 86.354 C 69.347 86.484,69.249 93.600,72.829 93.600 C 73.978 93.600,74.000 93.640,74.000 95.743 L 74.000 97.886 72.301 98.245 C 68.993 98.942,69.071 104.956,72.400 105.842 C 73.978 106.262,74.052 106.327,73.000 106.367 C 70.305 106.469,70.041 107.553,70.018 118.600 L 70.002 126.600 67.031 126.469 C 63.023 126.293,62.391 126.874,62.423 130.700 C 62.454 134.502,63.064 136.036,64.900 136.933 C 66.754 137.839,66.780 138.230,65.032 138.961 C 62.654 139.954,62.051 142.488,63.782 144.218 C 65.526 145.963,68.046 145.345,69.057 142.925 L 69.647 141.514 71.923 141.795 C 73.176 141.950,74.200 142.105,74.200 142.139 C 74.200 142.172,74.143 143.955,74.073 146.100 L 73.945 150.000 72.601 150.000 C 70.115 150.000,70.000 150.390,70.000 158.829 L 70.000 166.400 69.000 166.400 C 67.347 166.400,66.400 167.712,66.400 170.000 C 66.400 172.265,67.345 173.600,68.948 173.600 C 69.776 173.600,69.922 173.830,70.101 175.420 C 70.350 177.624,70.341 177.615,72.330 177.881 C 75.013 178.241,75.030 182.378,72.349 182.394 C 70.730 182.403,70.300 183.274,70.331 186.482 C 70.381 191.856,70.749 192.839,72.900 193.352 L 74.000 193.615 74.000 198.343 C 74.000 202.920,73.970 203.085,73.059 203.500 C 72.541 203.736,71.635 204.752,71.046 205.757 L 69.975 207.584 70.163 222.492 C 70.266 230.691,70.368 237.580,70.390 237.800 C 70.411 238.020,70.315 239.370,70.176 240.800 C 69.828 244.392,70.319 245.514,72.388 245.844 L 74.000 246.102 74.000 248.051 L 74.000 250.000 72.629 250.000 C 70.036 250.000,70.069 249.819,70.048 263.981 C 70.026 278.176,69.994 278.000,72.629 278.000 C 73.383 278.000,74.000 278.180,74.000 278.400 C 74.000 278.620,73.722 278.800,73.382 278.800 C 72.008 278.800,70.800 280.659,70.800 282.774 C 70.800 283.880,70.591 286.003,70.336 287.493 C 69.734 291.008,70.202 293.260,71.611 293.627 L 72.600 293.885 71.510 294.183 C 69.998 294.597,69.912 295.374,70.088 307.030 C 70.259 318.355,70.532 319.796,72.691 320.800 C 74.407 321.597,74.331 321.887,72.302 322.289 C 70.339 322.677,70.126 323.187,70.047 327.700 C 70.002 330.301,69.963 330.400,69.000 330.400 C 66.565 330.400,65.299 334.899,67.200 336.800 C 69.052 338.652,73.012 337.649,73.593 335.180 C 73.835 334.154,73.929 334.837,73.959 337.847 L 74.000 341.895 72.367 342.114 C 70.315 342.389,70.323 342.380,70.093 344.769 C 69.844 347.368,70.271 349.600,71.018 349.600 C 71.338 349.600,71.600 349.780,71.600 350.000 C 71.600 350.220,71.338 350.400,71.018 350.400 C 70.128 350.400,69.867 352.729,70.104 358.554 C 70.416 366.225,69.725 365.660,79.100 365.908 C 85.594 366.080,89.051 366.800,83.382 366.800 C 81.135 366.800,80.624 366.939,79.782 367.782 C 77.483 370.081,79.216 373.200,82.792 373.200 C 87.545 373.200,89.897 373.996,90.169 375.697 C 90.519 377.886,91.345 378.083,99.502 377.930 L 106.405 377.800 106.846 379.139 C 107.860 382.213,112.167 382.078,113.236 378.939 L 113.760 377.400 114.053 379.339 C 114.413 381.731,114.353 381.674,116.769 381.907 C 119.499 382.169,121.600 381.734,121.600 380.906 C 121.600 380.375,121.761 380.421,122.441 381.152 C 123.272 382.044,123.387 382.054,132.022 381.928 C 141.773 381.785,141.511 381.866,141.863 378.894 C 142.074 377.114,142.180 376.923,142.681 377.424 C 142.998 377.741,143.851 378.000,144.577 378.000 C 145.810 378.000,145.915 378.107,146.156 379.612 C 146.594 382.354,153.566 383.193,153.612 380.510 C 153.623 379.881,153.676 379.891,154.078 380.600 C 155.526 383.153,163.846 382.223,165.036 379.375 C 165.740 377.692,166.400 377.593,166.400 379.171 C 166.400 382.586,175.631 382.738,177.048 379.346 C 177.743 377.682,178.345 377.625,178.658 379.191 C 179.272 382.260,184.463 382.368,185.334 379.329 C 185.650 378.229,185.930 378.026,187.545 377.731 C 189.166 377.435,189.425 377.246,189.649 376.197 C 189.853 375.245,189.923 375.450,189.993 377.200 C 190.136 380.823,190.406 381.351,192.318 381.757 C 194.830 382.290,197.297 381.659,197.625 380.400 L 197.885 379.400 198.176 380.462 C 198.503 381.653,199.344 381.989,202.000 381.989 C 204.878 381.989,205.495 381.686,205.928 380.061 C 206.261 378.811,206.323 378.752,206.359 379.651 C 206.470 382.486,213.586 382.682,213.606 379.851 C 213.619 378.074,214.297 377.778,214.923 379.277 C 215.709 381.158,217.199 381.675,222.194 381.801 L 226.188 381.902 226.460 383.231 C 226.820 384.991,227.749 385.600,230.076 385.600 C 234.384 385.600,235.338 379.386,231.180 378.407 C 229.928 378.112,230.014 378.078,232.100 378.041 C 234.298 378.002,234.400 378.045,234.400 379.000 C 234.400 382.639,241.501 382.541,241.643 378.900 C 241.676 378.052,241.774 378.194,242.070 379.520 C 243.055 383.921,252.071 382.671,253.532 377.930 C 254.126 376.005,254.347 375.639,254.456 376.400 C 254.574 377.215,254.914 377.465,256.307 377.758 C 257.693 378.049,258.055 378.312,258.231 379.158 C 258.791 381.850,258.980 381.898,269.200 381.929 C 280.287 381.962,281.580 381.667,281.594 379.100 C 281.605 377.191,286.149 377.424,286.964 379.375 C 288.483 383.011,301.268 383.215,301.844 379.612 C 302.081 378.130,302.203 378.000,303.351 377.994 C 304.982 377.986,305.558 377.586,305.983 376.166 C 306.328 375.011,306.332 375.015,306.366 376.513 C 306.475 381.326,311.356 383.396,313.048 379.346 C 313.693 377.804,318.800 377.158,318.800 378.618 C 318.800 379.695,320.665 381.200,322.000 381.200 C 324.113 381.200,325.193 379.706,325.240 376.718 C 325.328 371.069,325.646 369.876,327.265 369.115 C 329.807 367.921,331.272 355.278,328.949 354.568 C 327.106 354.004,327.000 353.874,328.188 353.635 C 331.102 353.049,330.482 346.805,327.454 346.252 C 325.757 345.942,325.559 345.802,325.761 345.051 C 325.886 344.583,325.992 341.916,325.995 339.124 L 326.000 334.047 327.689 333.713 C 330.508 333.156,330.929 326.936,328.188 326.349 C 327.308 326.161,327.226 326.082,327.871 326.047 C 329.475 325.960,330.000 324.962,330.000 322.000 C 330.000 318.579,329.530 318.011,326.671 317.972 C 323.771 317.933,325.434 317.265,328.526 317.228 C 331.380 317.194,332.302 316.733,333.038 314.972 C 333.415 314.069,334.069 313.415,334.972 313.038 C 336.821 312.265,337.200 311.375,337.200 307.808 C 337.200 303.671,336.409 302.800,332.653 302.800 L 330.070 302.800 329.790 301.100 C 329.441 298.985,328.989 298.408,327.651 298.370 C 326.670 298.341,326.691 298.306,327.968 297.844 C 330.431 296.954,330.905 290.429,328.510 290.388 C 327.881 290.377,327.891 290.324,328.600 289.922 C 329.839 289.220,329.987 288.794,329.994 285.929 C 329.998 284.027,329.819 283.076,329.371 282.629 C 328.800 282.057,328.800 281.943,329.371 281.371 C 330.416 280.327,330.243 275.458,329.125 274.416 C 328.441 273.779,328.387 273.600,328.878 273.600 C 330.057 273.600,330.295 269.085,329.735 257.398 C 329.446 251.375,329.065 250.400,327.000 250.400 C 326.378 250.400,326.000 250.173,326.000 249.800 C 326.000 249.470,326.278 249.200,326.618 249.200 C 328.287 249.200,329.200 247.383,329.200 244.062 C 329.200 239.643,327.948 238.444,323.300 238.410 L 322.000 238.400 322.000 234.200 L 322.000 230.000 323.371 230.000 C 326.039 230.000,326.036 230.013,325.999 217.255 C 325.949 199.845,325.837 201.600,327.000 201.600 C 329.095 201.600,329.600 200.445,329.600 195.649 C 329.600 190.852,329.467 190.556,327.198 190.319 L 325.800 190.173 327.589 189.776 C 331.152 188.985,330.727 179.449,327.091 178.592 L 325.800 178.288 327.534 178.013 C 329.719 177.666,329.986 177.221,329.994 173.929 C 330.001 170.733,329.479 170.022,327.071 169.950 L 325.400 169.900 327.134 169.619 C 329.931 169.165,330.117 168.033,329.881 152.966 C 329.709 142.061,329.825 142.543,327.291 142.161 L 325.400 141.876 327.000 141.425 C 328.971 140.870,329.493 139.896,329.844 136.110 C 330.170 132.604,329.808 130.400,328.906 130.400 C 328.368 130.400,328.407 130.253,329.124 129.585 C 331.585 127.292,329.810 108.808,327.006 107.530 C 325.158 106.688,325.488 106.069,327.923 105.810 C 332.838 105.287,333.934 104.361,333.397 101.182 C 333.111 99.491,332.860 99.220,331.000 98.600 C 329.814 98.204,329.802 98.171,329.938 95.676 C 330.286 89.327,329.413 86.400,327.171 86.400 C 326.006 86.400,326.000 86.387,326.000 84.000 C 326.000 81.760,326.061 81.600,326.924 81.600 C 329.134 81.600,329.949 79.608,329.983 74.129 C 330.005 70.465,329.606 70.016,326.271 69.954 C 324.912 69.928,324.125 69.823,324.523 69.720 C 325.339 69.508,325.996 68.074,326.009 66.474 C 326.015 65.659,326.328 65.255,327.308 64.800 C 331.217 62.982,328.937 58.678,323.756 58.094 C 322.008 57.897,322.000 57.889,321.949 56.248 C 321.874 53.834,321.718 46.683,321.660 43.000 C 321.600 39.222,321.371 38.767,319.366 38.441 C 318.078 38.232,317.799 38.002,317.518 36.915 C 317.144 35.472,315.865 34.400,314.516 34.400 C 313.864 34.400,313.451 34.018,313.039 33.032 C 312.347 31.376,311.695 30.998,308.551 30.427 C 304.436 29.681,302.755 30.337,302.216 32.900 C 301.820 34.782,298.000 34.574,298.000 32.671 C 298.000 30.137,296.827 27.571,295.396 26.973 C 294.203 26.474,294.072 26.239,293.809 24.115 C 293.121 18.568,292.342 18.159,283.247 18.575 C 276.308 18.893,275.791 19.051,274.913 21.132 C 274.257 22.685,273.698 22.257,273.628 20.149 C 273.535 17.326,266.684 17.495,266.304 20.329 C 266.165 21.366,266.147 21.356,265.758 20.013 C 265.257 18.284,264.630 18.092,259.329 18.040 C 254.673 17.994,254.030 18.316,253.954 20.729 C 253.928 21.538,253.831 21.840,253.738 21.400 C 253.645 20.960,253.487 20.215,253.388 19.744 C 253.099 18.378,252.414 18.295,240.200 18.150 C 227.778 18.003,226.400 18.099,226.400 19.107 C 226.400 19.623,226.238 19.577,225.584 18.875 C 223.513 16.652,218.000 17.927,218.000 20.629 L 218.000 22.000 212.000 22.000 L 206.000 22.000 206.000 20.629 C 206.000 18.340,205.301 18.000,200.597 18.000 C 196.068 18.000,194.407 18.399,194.388 19.490 C 194.377 20.119,194.324 20.109,193.922 19.400 C 192.926 17.643,187.892 17.291,186.416 18.875 C 185.779 19.559,185.600 19.613,185.600 19.122 C 185.600 18.369,184.439 18.011,182.000 18.011 C 179.194 18.011,178.481 18.331,178.148 19.741 L 177.850 21.000 177.624 19.816 C 177.318 18.216,175.984 17.981,169.298 18.351 C 163.630 18.664,163.290 18.793,162.559 20.918 L 162.118 22.200 161.813 20.800 C 161.389 18.856,160.981 18.472,159.067 18.219 C 156.358 17.862,154.624 18.426,154.473 19.714 C 154.331 20.934,153.600 21.214,153.600 20.049 C 153.600 17.131,144.204 17.656,142.956 20.644 C 142.122 22.639,137.734 22.768,137.342 20.809 C 136.683 17.513,131.527 17.663,130.562 21.006 L 130.102 22.600 129.608 21.400 C 128.720 19.241,128.548 19.037,127.367 18.744 C 126.051 18.418,118.435 18.128,116.600 18.335 M121.305 25.882 C 120.814 25.977,119.914 25.979,119.305 25.887 C 118.697 25.795,119.100 25.717,120.200 25.714 C 121.300 25.711,121.797 25.787,121.305 25.882 M90.018 44.002 L 89.700 46.200 89.650 44.167 C 89.607 42.430,89.867 41.334,90.235 41.702 C 90.291 41.758,90.193 42.793,90.018 44.002 M86.000 50.000 C 86.000 50.220,85.632 50.400,85.182 50.400 C 84.097 50.400,82.400 52.137,82.400 53.248 C 82.400 53.735,82.310 54.044,82.200 53.934 C 81.877 53.610,81.289 50.045,81.521 49.813 C 81.911 49.423,86.000 49.594,86.000 50.000 M276.039 52.287 C 276.678 52.664,277.300 53.285,277.421 53.666 C 277.542 54.047,277.971 54.464,278.374 54.592 C 279.399 54.917,281.600 57.090,281.600 57.777 C 281.600 58.090,281.939 58.454,282.353 58.585 C 283.348 58.901,285.600 61.070,285.600 61.713 C 285.600 61.991,286.205 62.544,286.945 62.942 C 287.685 63.341,288.686 64.372,289.171 65.233 C 289.655 66.095,290.276 66.800,290.551 66.800 C 291.139 66.800,292.904 68.616,293.565 69.900 C 293.820 70.395,294.260 70.800,294.543 70.800 C 297.825 70.800,297.822 98.508,294.541 99.767 C 292.958 100.375,106.367 100.070,105.434 99.459 C 103.847 98.420,103.600 96.418,103.600 84.627 C 103.600 71.910,103.333 72.958,107.656 68.714 C 109.385 67.017,110.800 65.505,110.800 65.355 C 110.800 65.204,111.475 64.464,112.300 63.711 C 113.125 62.958,113.948 62.187,114.128 61.999 C 114.757 61.343,117.659 58.454,118.016 58.128 C 118.214 57.948,118.933 57.134,119.613 56.319 C 120.293 55.505,121.189 54.730,121.604 54.599 C 122.019 54.467,122.457 54.053,122.577 53.680 C 123.257 51.554,118.628 51.676,199.938 51.637 C 270.069 51.602,274.951 51.644,276.039 52.287 M294.670 110.221 C 297.135 112.644,297.227 136.900,294.776 138.415 C 294.556 138.551,251.894 138.698,199.971 138.742 L 105.566 138.822 104.650 136.711 C 103.113 133.166,103.537 112.203,105.186 110.216 C 105.705 109.591,294.034 109.596,294.670 110.221 M294.455 148.345 C 296.736 149.212,296.600 144.098,296.600 228.989 C 296.600 305.559,296.585 307.072,295.829 307.829 C 295.072 308.586,293.284 308.602,200.313 308.702 L 105.569 308.805 104.584 307.821 L 103.600 306.836 103.600 229.205 C 103.600 146.323,103.526 149.553,105.456 148.473 C 106.403 147.942,293.064 147.816,294.455 148.345 M142.214 320.079 C 144.243 321.003,144.296 321.377,143.959 332.400 C 143.788 338.010,143.746 343.425,143.866 344.433 C 144.054 346.001,143.942 346.421,143.097 347.333 L 142.108 348.400 123.835 348.400 L 105.562 348.400 104.616 347.379 L 103.670 346.359 103.662 334.000 C 103.653 322.207,103.690 321.594,104.459 320.616 L 105.266 319.590 123.252 319.613 C 135.540 319.628,141.548 319.776,142.214 320.079 M193.164 319.937 C 195.098 320.335,195.969 321.722,195.966 324.400 C 195.965 325.610,195.927 331.155,195.882 336.723 L 195.800 346.845 194.800 347.614 C 193.848 348.345,192.933 348.383,175.770 348.391 L 157.739 348.400 156.835 347.437 C 155.575 346.096,155.275 322.120,156.499 320.565 L 157.198 319.677 174.499 319.667 C 184.014 319.661,192.414 319.783,193.164 319.937 M243.403 320.227 C 245.511 321.108,245.499 321.037,245.686 333.888 C 245.879 347.135,245.976 346.350,244.000 347.548 C 242.633 348.377,242.211 348.397,225.959 348.399 L 209.318 348.400 207.959 347.484 L 206.600 346.567 206.547 334.132 C 206.489 320.731,206.431 321.217,208.200 320.304 C 209.846 319.455,241.390 319.386,243.403 320.227 M295.474 320.470 L 296.400 321.339 296.400 333.811 L 296.400 346.283 295.419 347.342 C 294.470 348.366,292.757 348.713,289.800 348.480 C 289.360 348.445,282.058 348.414,273.573 348.411 L 258.145 348.406 257.273 347.478 C 255.897 346.013,255.849 322.439,257.219 320.980 C 258.443 319.677,257.867 319.715,277.174 319.654 C 294.498 319.600,294.551 319.603,295.474 320.470 M321.967 366.253 C 322.058 366.334,321.203 366.400,320.067 366.400 C 318.930 366.400,318.000 366.242,318.000 366.049 C 318.000 365.729,321.580 365.913,321.967 366.253 M141.960 375.300 C 141.924 376.483,141.896 376.511,141.646 375.615 C 141.485 375.040,140.960 374.515,140.385 374.354 C 139.489 374.104,139.517 374.076,140.700 374.040 C 141.916 374.003,141.997 374.084,141.960 375.300 M205.954 374.900 C 205.921 375.538,205.855 375.603,205.729 375.125 C 205.631 374.753,205.247 374.369,204.875 374.271 C 204.397 374.145,204.462 374.079,205.100 374.046 C 205.793 374.011,205.989 374.207,205.954 374.900 "
              stroke="none" fill="#0e0e0e" fill-rule="evenodd"></path>
        <path id="path1"
              d="M123.897 52.337 C 123.290 52.701,122.696 53.306,122.577 53.680 C 122.457 54.053,122.019 54.467,121.604 54.599 C 121.189 54.730,120.293 55.505,119.613 56.319 C 118.933 57.134,118.214 57.948,118.016 58.128 C 117.659 58.454,114.757 61.343,114.128 61.999 C 113.948 62.187,113.125 62.958,112.300 63.711 C 111.475 64.464,110.800 65.204,110.800 65.355 C 110.800 65.505,109.385 67.017,107.656 68.714 C 103.333 72.958,103.600 71.910,103.600 84.627 C 103.600 96.418,103.847 98.420,105.434 99.459 C 106.367 100.070,292.958 100.375,294.541 99.767 C 297.822 98.508,297.825 70.800,294.543 70.800 C 294.260 70.800,293.820 70.395,293.565 69.900 C 292.904 68.616,291.139 66.800,290.551 66.800 C 290.276 66.800,289.655 66.095,289.171 65.233 C 288.686 64.372,287.685 63.341,286.945 62.942 C 286.205 62.544,285.600 61.991,285.600 61.713 C 285.600 61.070,283.348 58.901,282.353 58.585 C 281.939 58.454,281.600 58.090,281.600 57.777 C 281.600 57.090,279.399 54.917,278.374 54.592 C 277.971 54.464,277.542 54.047,277.421 53.666 C 277.300 53.285,276.678 52.664,276.039 52.287 C 274.275 51.244,125.631 51.293,123.897 52.337 M105.186 110.216 C 103.537 112.203,103.113 133.166,104.650 136.711 L 105.566 138.822 199.971 138.742 C 251.894 138.698,294.556 138.551,294.776 138.415 C 297.227 136.900,297.135 112.644,294.670 110.221 C 294.034 109.596,105.705 109.591,105.186 110.216 M105.456 148.473 C 103.526 149.553,103.600 146.323,103.600 229.205 L 103.600 306.836 104.584 307.821 L 105.569 308.805 200.313 308.702 C 293.284 308.602,295.072 308.586,295.829 307.829 C 296.585 307.072,296.600 305.559,296.600 228.989 C 296.600 144.098,296.736 149.212,294.455 148.345 C 293.064 147.816,106.403 147.942,105.456 148.473 M104.459 320.616 C 103.690 321.594,103.653 322.207,103.662 334.000 L 103.670 346.359 104.616 347.379 L 105.562 348.400 123.835 348.400 L 142.108 348.400 143.097 347.333 C 143.942 346.421,144.054 346.001,143.866 344.433 C 143.746 343.425,143.788 338.010,143.959 332.400 C 144.393 318.200,146.726 319.642,123.252 319.613 L 105.266 319.590 104.459 320.616 M156.499 320.565 C 155.275 322.120,155.575 346.096,156.835 347.437 L 157.739 348.400 175.770 348.391 C 192.933 348.383,193.848 348.345,194.800 347.614 L 195.800 346.845 195.882 336.723 C 195.927 331.155,195.965 325.610,195.966 324.400 C 195.971 319.571,196.348 319.654,174.499 319.667 L 157.198 319.677 156.499 320.565 M208.200 320.304 C 206.431 321.217,206.489 320.731,206.547 334.132 L 206.600 346.567 207.959 347.484 L 209.318 348.400 225.959 348.399 C 243.618 348.397,244.366 348.319,245.631 346.338 C 246.054 345.676,245.536 321.832,245.087 321.277 C 243.904 319.815,242.501 319.700,225.771 319.693 C 211.768 319.686,209.226 319.775,208.200 320.304 M258.950 319.876 C 256.397 320.377,256.335 320.720,256.369 334.233 C 256.400 346.318,256.417 346.566,257.273 347.478 L 258.145 348.406 273.573 348.411 C 282.058 348.414,289.360 348.445,289.800 348.480 C 292.757 348.713,294.470 348.366,295.419 347.342 L 296.400 346.283 296.400 333.811 L 296.400 321.339 295.474 320.470 C 294.602 319.651,262.738 319.133,258.950 319.876 "
              stroke="none" fill="currentColor" fill-rule="evenodd"></path>
    </g>
</svg>