<svg id="svg" version="1.1" xmlns="http://www.w3.org/2000/svg" width="400"
     height="400" viewBox="0, 0, 400,400">
    <g id="svgg">
        <path id="path0"
              d="M197.467 48.393 C 183.512 48.627,184.247 48.436,183.796 51.954 C 183.666 52.969,183.388 54.113,183.180 54.495 C 182.971 54.877,182.800 55.383,182.800 55.620 C 182.800 55.857,182.373 56.985,181.852 58.126 C 181.330 59.267,180.780 61.010,180.628 62.000 C 180.001 66.112,179.408 68.338,178.294 70.773 C 177.595 72.299,176.802 75.146,176.344 77.773 C 175.425 83.037,175.403 83.115,173.963 86.272 C 173.343 87.631,172.727 89.701,172.596 90.872 C 172.150 94.839,171.327 97.560,169.581 100.843 C 169.159 101.636,168.626 103.526,168.397 105.043 C 167.974 107.845,167.585 109.726,166.836 112.600 C 166.565 113.639,166.416 124.649,166.410 144.025 C 166.400 173.021,166.378 173.896,165.600 175.506 C 165.160 176.416,164.800 177.384,164.800 177.657 C 164.800 177.929,162.955 179.995,160.700 182.248 C 158.445 184.501,156.232 186.761,155.783 187.272 C 155.334 187.782,154.474 188.578,153.872 189.039 C 152.085 190.409,152.005 192.106,152.002 228.469 L 152.000 262.339 153.036 263.569 L 154.071 264.800 200.123 264.800 L 246.176 264.800 247.287 263.500 L 248.398 262.200 248.399 228.012 C 248.400 190.319,248.391 190.152,246.177 188.959 C 245.490 188.590,244.404 187.505,243.764 186.549 C 243.124 185.594,242.290 184.709,241.910 184.582 C 241.531 184.456,240.821 183.778,240.333 183.076 C 239.845 182.374,239.097 181.530,238.672 181.200 C 234.180 177.715,234.400 179.623,234.400 144.177 C 234.400 115.057,234.374 114.001,233.623 112.723 C 232.923 111.532,232.405 109.318,231.723 104.600 C 231.596 103.720,231.357 102.820,231.192 102.600 C 231.027 102.380,230.767 101.615,230.614 100.900 C 230.462 100.185,230.207 99.600,230.049 99.600 C 229.620 99.600,228.895 97.337,228.382 94.400 C 227.343 88.453,226.899 86.914,225.558 84.600 C 225.175 83.940,224.748 82.500,224.608 81.400 C 224.080 77.240,223.216 73.967,221.705 70.400 C 221.285 69.410,220.629 66.980,220.246 65.000 C 219.165 59.407,218.745 57.924,217.751 56.189 C 217.243 55.302,216.708 53.556,216.561 52.307 C 216.204 49.273,215.368 48.400,212.817 48.400 C 211.744 48.400,210.626 48.352,210.333 48.293 C 210.040 48.234,204.250 48.279,197.467 48.393 M132.230 206.592 C 131.156 207.578,129.987 208.477,129.631 208.590 C 129.275 208.703,128.656 209.405,128.255 210.150 C 127.854 210.895,127.077 211.745,126.529 212.038 C 123.720 213.541,123.418 217.859,125.941 220.446 C 126.964 221.494,128.267 222.858,128.837 223.476 C 133.254 228.264,136.085 229.249,139.453 227.167 L 140.800 226.335 140.800 218.587 C 140.800 206.945,140.094 204.800,136.262 204.800 C 134.356 204.800,134.020 204.949,132.230 206.592 M261.126 206.100 C 259.790 208.494,259.612 209.898,259.606 218.071 L 259.600 226.342 260.700 227.209 C 262.637 228.736,266.625 228.232,268.765 226.190 C 276.191 219.099,276.224 219.052,275.812 215.755 C 275.584 213.934,275.334 213.438,274.211 212.581 C 273.479 212.023,272.457 210.943,271.940 210.182 C 271.423 209.421,270.711 208.705,270.357 208.591 C 270.003 208.476,268.938 207.666,267.990 206.791 C 265.833 204.800,262.063 204.420,261.126 206.100 M135.400 256.693 C 134.372 256.795,133.371 257.245,132.600 257.950 C 131.940 258.553,130.725 259.541,129.900 260.144 C 129.075 260.747,128.400 261.438,128.400 261.680 C 128.400 262.070,126.850 263.654,125.039 265.116 C 123.574 266.298,124.176 270.501,126.100 272.523 C 127.035 273.506,128.276 274.825,128.857 275.455 C 132.534 279.437,133.409 280.000,135.918 280.000 C 140.098 280.000,140.238 279.745,140.579 271.501 C 141.029 260.631,140.173 256.213,137.664 256.467 C 137.299 256.504,136.280 256.606,135.400 256.693 M261.143 257.325 C 259.925 258.252,259.605 260.821,259.602 269.673 L 259.600 278.346 260.762 279.173 C 263.164 280.883,266.474 280.252,269.346 277.535 C 269.965 276.950,270.644 276.320,270.856 276.135 C 271.068 275.951,272.362 274.570,273.732 273.066 L 276.223 270.332 275.999 267.990 C 275.790 265.803,275.637 265.516,273.688 263.647 C 272.539 262.546,271.600 261.460,271.600 261.233 C 271.600 261.006,271.105 260.556,270.500 260.233 C 269.895 259.909,268.715 259.005,267.878 258.222 C 266.222 256.675,262.627 256.196,261.143 257.325 M152.892 277.165 C 152.125 277.932,152.542 293.508,153.350 294.320 C 153.849 294.820,172.774 295.023,208.000 294.905 C 213.170 294.888,223.950 294.868,231.956 294.861 C 241.091 294.853,246.661 294.699,246.911 294.449 C 247.131 294.229,247.451 291.738,247.622 288.914 C 247.794 286.090,248.044 282.524,248.179 280.989 C 248.613 276.067,254.426 276.600,200.311 276.600 C 160.470 276.600,153.373 276.685,152.892 277.165 M153.461 306.563 C 151.594 309.412,151.314 329.129,153.116 330.808 C 154.482 332.080,245.950 332.051,247.317 330.778 C 248.721 329.470,248.873 310.735,247.502 308.000 L 246.600 306.200 242.000 305.953 C 239.470 305.817,218.656 305.682,195.746 305.653 L 154.092 305.600 153.461 306.563 M131.666 310.300 C 123.502 318.142,124.090 317.323,124.314 320.531 C 124.466 322.701,124.583 322.937,125.995 323.931 C 126.829 324.519,127.813 325.553,128.180 326.228 C 128.548 326.904,129.423 327.791,130.124 328.199 C 130.826 328.608,131.918 329.540,132.551 330.271 C 133.852 331.773,137.816 332.242,139.021 331.036 C 139.332 330.725,139.814 330.395,140.093 330.302 C 140.484 330.172,140.600 327.847,140.600 320.100 L 140.600 310.067 139.639 309.234 C 137.685 307.539,134.032 308.027,131.666 310.300 M260.749 309.590 L 259.559 310.779 259.680 320.413 L 259.800 330.047 260.800 330.815 C 263.881 333.180,266.646 331.897,273.500 324.922 C 278.244 320.094,277.620 318.270,268.487 310.255 C 265.728 307.834,262.760 307.579,260.749 309.590 M135.493 341.125 C 133.267 341.309,132.728 342.384,132.740 346.624 C 132.748 349.296,132.903 350.251,133.424 350.827 C 134.104 351.578,141.827 351.677,202.000 351.711 C 261.247 351.745,265.837 351.703,266.951 351.114 C 267.631 350.755,267.684 350.326,267.515 346.538 C 267.268 340.978,267.553 341.190,260.385 341.241 C 246.329 341.342,151.075 341.254,144.400 341.134 C 140.330 341.060,136.322 341.056,135.493 341.125 "
              stroke="none" fill="currentColor" fill-rule="evenodd"></path>
        <path id="path1"
              d="M175.803 14.332 C 174.421 14.649,174.122 15.529,174.047 19.500 C 174.004 21.810,173.932 22.000,173.100 22.005 C 171.541 22.015,170.448 22.459,170.302 23.141 C 170.224 23.503,170.036 22.527,169.884 20.970 C 169.489 16.924,168.944 15.619,167.380 14.966 C 164.072 13.584,162.448 15.762,162.102 22.044 L 161.889 25.910 160.246 26.256 C 158.729 26.576,158.576 26.730,158.255 28.255 C 157.924 29.821,157.821 29.917,156.253 30.099 C 153.435 30.427,151.638 31.411,150.980 32.986 C 150.524 34.077,150.158 34.400,149.376 34.400 C 146.680 34.400,145.340 38.577,147.382 40.618 C 149.425 42.662,153.600 41.319,153.600 38.618 C 153.600 38.058,153.801 37.600,154.047 37.600 C 154.315 37.600,154.397 37.960,154.252 38.500 C 154.119 38.995,154.008 39.961,154.005 40.647 C 154.000 41.803,153.880 41.911,152.367 42.114 C 150.334 42.386,150.350 42.368,150.097 44.621 C 149.915 46.228,149.730 46.536,148.735 46.883 C 147.216 47.412,146.703 48.461,146.428 51.598 C 146.207 54.113,146.153 54.218,144.746 54.880 C 142.837 55.777,142.416 57.055,142.137 62.800 C 141.858 68.551,142.157 69.488,144.388 69.844 L 146.000 70.102 146.000 74.011 L 146.000 77.920 142.433 78.060 C 138.057 78.232,138.243 78.036,138.000 82.726 C 137.818 86.231,137.745 86.519,137.200 85.855 C 134.747 82.866,133.810 82.553,132.182 84.182 C 130.574 85.790,130.898 86.807,133.747 89.102 C 134.240 89.499,134.322 90.124,134.142 92.102 C 133.785 96.016,134.289 97.323,136.325 97.757 L 138.000 98.114 138.000 100.057 C 138.000 101.126,137.820 102.000,137.600 102.000 C 137.380 102.000,137.200 101.722,137.200 101.382 C 137.200 99.152,133.503 98.060,131.782 99.782 C 130.060 101.503,131.152 105.200,133.382 105.200 C 133.869 105.200,134.000 105.697,134.000 107.547 L 134.000 109.895 132.367 110.114 C 130.196 110.405,130.200 110.397,130.200 114.000 C 130.200 117.880,130.111 117.800,134.434 117.800 C 138.164 117.800,138.986 118.252,136.775 119.087 C 136.014 119.374,135.381 119.997,135.104 120.731 C 134.711 121.770,134.425 121.934,132.720 122.098 C 130.135 122.346,130.199 122.208,130.208 127.584 C 130.216 132.786,130.516 133.600,132.425 133.600 C 134.033 133.600,134.089 133.830,134.085 140.334 L 134.080 146.200 132.671 146.322 C 130.487 146.512,130.257 147.084,130.227 152.392 C 130.197 157.724,130.144 157.588,132.367 157.886 L 134.000 158.105 133.964 160.153 C 133.930 162.088,133.908 162.130,133.557 160.918 C 132.391 156.886,126.400 157.792,126.400 162.000 C 126.400 163.843,127.758 165.600,129.182 165.600 C 129.782 165.600,130.000 165.859,130.000 166.574 C 130.000 168.130,130.720 169.599,131.490 169.612 C 132.119 169.623,132.109 169.676,131.400 170.078 C 130.277 170.715,130.013 171.211,130.006 172.700 L 130.000 174.000 125.900 174.025 C 116.298 174.083,114.400 174.731,114.400 177.955 C 114.400 179.827,115.291 181.093,116.918 181.534 C 118.151 181.868,118.122 181.887,116.148 182.040 L 114.095 182.200 113.649 179.043 C 113.127 175.348,112.872 174.950,110.798 174.600 C 108.575 174.224,107.093 175.032,106.639 176.866 C 106.346 178.049,106.050 178.370,105.077 178.565 C 103.437 178.893,102.864 179.449,102.574 180.997 C 102.373 182.067,102.097 182.361,101.102 182.560 C 99.436 182.893,98.866 183.444,98.573 185.003 C 98.366 186.109,98.109 186.366,97.003 186.573 C 95.396 186.875,95.009 187.312,94.430 189.476 C 94.141 190.559,93.697 191.242,93.176 191.408 C 91.920 191.806,90.504 194.428,90.191 196.933 C 90.035 198.180,89.740 199.200,89.536 199.200 C 89.331 199.200,88.722 199.642,88.182 200.182 C 86.163 202.201,87.217 208.800,89.559 208.800 C 89.802 208.800,90.001 211.937,90.077 216.968 C 90.213 226.017,90.102 225.582,92.367 225.886 C 93.903 226.092,94.000 226.184,94.000 227.424 C 94.000 228.149,94.283 229.026,94.629 229.371 C 95.200 229.943,95.200 230.057,94.629 230.629 C 93.930 231.327,93.735 236.162,94.364 237.156 C 94.558 237.462,95.410 237.846,96.258 238.010 C 97.726 238.294,97.740 238.310,96.549 238.354 C 94.554 238.427,94.287 239.121,94.083 244.759 L 93.898 249.878 91.503 250.323 C 86.401 251.272,84.961 255.005,88.946 256.954 C 90.404 257.667,90.474 257.786,90.248 259.154 C 90.116 259.949,90.007 262.780,90.004 265.444 L 90.000 270.289 87.586 270.508 C 82.565 270.963,80.891 274.970,84.902 276.933 C 86.123 277.530,86.400 277.882,86.400 278.833 C 86.400 280.242,87.650 281.600,88.947 281.600 C 89.755 281.600,89.927 281.843,90.116 283.248 C 90.425 285.557,90.801 285.782,94.620 285.941 L 98.000 286.082 98.006 287.341 C 98.016 289.306,98.538 289.763,101.082 290.035 L 103.400 290.282 100.760 290.341 C 95.680 290.454,94.664 291.400,94.197 296.448 C 93.847 300.239,94.281 301.320,96.328 301.757 C 97.879 302.088,98.000 302.209,98.000 303.428 C 98.000 304.151,98.283 305.026,98.629 305.371 C 99.200 305.943,99.164 306.000,98.229 306.000 C 97.568 306.000,97.200 305.779,97.200 305.382 C 97.200 302.804,89.986 301.578,87.782 303.782 C 85.404 306.160,86.680 317.200,89.333 317.200 C 90.842 317.200,90.898 318.369,89.430 319.235 C 87.378 320.446,87.200 320.993,87.200 326.085 C 87.200 331.083,87.497 331.929,89.550 332.779 C 90.215 333.055,90.945 333.785,91.221 334.450 C 92.892 338.484,96.800 337.061,96.800 332.418 C 96.800 330.535,96.933 330.000,97.400 330.000 C 97.895 330.000,98.000 330.733,98.000 334.200 L 98.000 338.400 96.680 338.400 C 94.781 338.400,94.400 339.001,94.400 342.000 C 94.400 344.999,94.781 345.600,96.680 345.600 L 98.000 345.600 98.005 348.700 C 98.013 353.099,98.177 353.500,100.143 353.942 C 101.676 354.286,101.706 354.318,100.549 354.357 C 98.802 354.417,98.320 355.205,98.320 358.000 C 98.320 360.784,98.753 361.505,100.530 361.677 L 101.800 361.800 102.000 365.516 C 102.221 369.615,102.429 369.952,104.800 370.040 L 106.200 370.092 104.658 370.390 C 102.214 370.862,102.105 371.551,103.086 380.341 C 103.615 385.086,107.378 386.511,108.841 382.520 C 108.928 382.282,110.166 382.022,111.591 381.943 L 114.181 381.800 114.434 383.342 C 114.825 385.718,116.844 386.132,126.600 385.836 C 129.240 385.756,132.435 385.670,133.700 385.645 C 136.300 385.594,137.600 384.712,137.600 383.000 C 137.600 382.055,137.720 382.000,139.800 382.000 L 142.000 382.000 142.000 383.371 C 142.000 385.467,142.812 386.000,146.000 386.000 C 149.222 386.000,150.000 385.469,149.999 383.271 L 149.999 381.800 152.217 381.938 C 154.299 382.068,154.449 382.147,154.666 383.229 C 154.990 384.852,155.469 385.126,158.859 385.630 C 163.544 386.327,165.289 385.833,165.713 383.689 L 166.047 382.000 167.971 382.000 L 169.895 382.000 170.114 383.633 C 170.412 385.854,170.274 385.800,175.574 385.800 C 180.693 385.800,181.446 385.538,181.696 383.671 C 181.835 382.634,181.853 382.644,182.242 383.987 C 182.736 385.690,183.398 385.909,188.200 385.955 C 192.378 385.995,193.600 385.751,193.600 384.878 C 193.600 384.387,193.779 384.441,194.416 385.125 C 195.615 386.412,200.385 386.412,201.584 385.125 C 202.221 384.441,202.400 384.387,202.400 384.878 C 202.400 386.742,213.257 386.357,213.528 384.484 C 213.694 383.334,214.308 383.345,214.472 384.500 C 214.748 386.440,221.252 386.440,221.528 384.500 C 221.692 383.345,222.306 383.334,222.472 384.484 C 222.743 386.357,233.600 386.742,233.600 384.878 C 233.600 384.387,233.779 384.441,234.416 385.125 C 236.487 387.348,242.000 386.073,242.000 383.371 L 242.000 382.000 247.947 382.000 L 253.895 382.000 254.114 383.633 C 254.420 385.915,253.856 385.800,264.734 385.799 C 275.808 385.797,276.678 385.625,277.344 383.300 C 277.808 381.678,278.347 381.633,278.658 383.191 C 279.019 384.997,279.753 385.344,283.536 385.497 C 287.898 385.673,288.787 385.259,289.505 382.716 C 289.853 381.486,290.308 380.756,290.832 380.590 C 291.271 380.451,292.072 379.636,292.613 378.780 C 293.153 377.923,294.134 376.945,294.791 376.605 C 296.228 375.861,297.191 374.127,297.547 371.640 C 297.778 370.024,297.985 369.719,299.259 369.119 C 301.113 368.246,301.546 367.013,301.872 361.671 C 302.127 357.515,302.127 357.514,303.306 357.103 C 306.032 356.153,305.988 351.832,303.243 350.875 L 302.000 350.442 302.000 346.221 C 302.000 343.674,302.159 342.000,302.400 342.000 C 302.626 342.000,302.800 343.139,302.800 344.618 C 302.800 347.712,303.839 349.200,306.000 349.200 C 308.574 349.200,309.074 348.064,309.404 341.462 C 309.732 334.886,309.591 334.400,307.351 334.400 C 306.608 334.400,306.000 334.220,306.000 334.000 C 306.000 333.780,306.527 333.600,307.171 333.600 C 308.946 333.600,309.472 332.766,309.782 329.457 C 310.458 322.237,309.408 318.451,306.700 318.352 C 305.562 318.311,305.649 318.246,307.400 317.831 C 309.370 317.364,309.405 317.329,309.743 315.479 C 310.039 313.860,310.219 313.600,311.043 313.600 C 312.655 313.600,313.600 312.269,313.600 310.000 C 313.600 307.736,312.655 306.400,311.054 306.400 C 310.062 306.400,309.600 304.795,309.600 301.344 C 309.600 298.850,308.665 298.407,303.300 298.354 C 300.715 298.328,298.960 298.227,299.400 298.128 C 303.526 297.206,304.462 296.750,305.034 295.381 C 305.835 293.462,305.034 291.518,303.143 290.794 L 301.800 290.281 303.534 290.009 C 305.718 289.667,305.986 289.222,305.994 285.929 C 306.000 283.148,305.465 282.043,304.071 281.960 C 303.679 281.937,303.810 281.806,304.385 281.646 C 305.577 281.313,305.907 280.287,305.960 276.747 L 306.000 274.094 309.038 273.809 C 312.858 273.451,313.600 272.832,313.600 270.000 C 313.600 267.712,312.653 266.400,311.000 266.400 C 310.378 266.400,310.000 266.173,310.000 265.800 C 310.000 265.470,310.278 265.200,310.618 265.200 C 312.287 265.200,313.200 263.383,313.200 260.062 C 313.200 255.643,311.948 254.444,307.300 254.410 C 306.056 254.400,306.000 254.333,306.000 252.829 C 306.000 250.820,305.178 250.000,303.167 250.000 L 301.591 250.000 301.829 248.300 C 302.186 245.747,302.279 245.600,303.538 245.600 C 305.545 245.600,306.621 241.055,305.230 238.456 C 304.564 237.212,304.702 230.363,305.413 229.424 C 305.736 228.996,306.000 228.073,306.000 227.371 L 306.000 226.094 309.038 225.809 C 312.858 225.451,313.600 224.832,313.600 222.000 C 313.600 219.712,312.653 218.400,311.000 218.400 C 310.378 218.400,310.000 218.173,310.000 217.800 C 310.000 217.470,310.278 217.200,310.618 217.200 C 312.601 217.200,313.256 215.448,313.161 210.391 C 313.112 207.753,313.145 205.529,313.236 205.449 C 313.326 205.368,313.993 205.000,314.717 204.632 C 317.372 203.281,317.342 200.627,314.657 199.347 C 313.869 198.971,313.030 198.133,312.655 197.345 C 312.275 196.549,311.439 195.720,310.627 195.332 C 309.833 194.954,309.038 194.174,308.759 193.502 C 307.906 191.442,305.538 190.319,301.571 190.093 L 298.099 189.895 297.853 187.847 C 297.718 186.721,297.605 184.495,297.603 182.900 C 297.599 179.208,296.952 178.400,294.000 178.400 C 291.712 178.400,290.400 179.347,290.400 181.000 L 290.400 182.000 286.200 182.000 L 282.000 182.000 281.994 180.700 C 281.985 178.839,281.497 178.300,279.534 177.981 C 278.040 177.739,278.230 177.693,280.900 177.650 C 284.813 177.587,285.600 176.975,285.600 174.000 C 285.600 171.312,284.703 170.400,282.060 170.400 C 280.994 170.400,278.769 170.286,277.117 170.146 L 274.114 169.892 273.889 165.324 C 273.637 160.210,273.124 158.925,271.182 158.536 C 269.822 158.264,269.758 157.876,269.968 151.172 C 270.105 146.788,269.710 146.000,267.371 146.000 L 266.000 146.000 266.000 138.051 L 266.000 130.102 267.612 129.844 C 269.657 129.517,270.016 128.663,269.953 124.274 C 269.878 119.106,269.715 118.689,267.598 118.259 L 265.800 117.893 267.082 117.447 C 269.599 116.570,270.155 113.624,269.583 104.202 C 269.140 96.906,267.745 94.400,264.128 94.400 C 262.941 94.400,263.266 93.774,264.575 93.538 C 265.636 93.347,266.144 91.153,265.762 88.410 C 265.593 87.194,265.504 84.745,265.565 82.966 C 265.714 78.603,265.494 78.398,260.671 78.406 C 256.393 78.413,255.263 78.856,254.564 80.800 C 254.102 82.086,254.058 81.848,254.030 77.900 L 254.000 73.600 255.320 73.600 C 257.219 73.600,257.600 72.999,257.600 70.000 C 257.600 67.001,257.219 66.400,255.320 66.400 C 254.594 66.400,254.000 66.220,254.000 66.000 C 254.000 65.780,254.594 65.600,255.320 65.600 C 257.219 65.600,257.600 64.999,257.600 62.000 C 257.600 58.688,257.309 58.400,253.969 58.400 C 250.989 58.400,250.552 58.686,250.297 60.802 C 250.204 61.571,250.099 60.291,250.064 57.958 L 250.000 53.716 251.300 53.344 C 254.700 52.370,254.081 42.800,250.618 42.800 C 250.201 42.800,250.000 42.418,250.000 41.626 C 250.000 39.722,249.350 38.527,248.129 38.186 L 247.000 37.870 248.188 37.633 C 249.619 37.348,250.263 35.093,249.711 32.302 C 249.326 30.355,248.802 30.129,244.500 30.047 L 242.000 30.000 242.000 28.629 C 242.000 26.870,241.121 26.011,239.271 25.959 L 237.800 25.918 239.180 25.593 C 240.987 25.168,241.600 24.257,241.600 22.000 C 241.600 18.711,240.307 18.120,232.918 18.034 L 230.036 18.000 229.776 16.614 C 229.337 14.273,229.062 14.200,220.619 14.200 C 212.047 14.200,211.159 14.436,210.447 16.902 L 210.072 18.200 210.036 16.729 C 209.982 14.520,209.212 14.000,206.000 14.000 C 204.040 14.000,203.078 14.179,202.629 14.629 C 202.057 15.200,201.941 15.198,201.346 14.603 C 200.781 14.038,199.753 13.967,193.779 14.075 C 186.084 14.214,186.416 14.115,186.114 16.367 C 185.936 17.692,185.735 18.001,185.047 18.005 C 183.539 18.015,182.446 18.467,182.300 19.141 C 182.221 19.503,182.023 18.680,181.860 17.312 C 181.697 15.944,181.426 14.740,181.259 14.636 C 180.661 14.267,176.979 14.062,175.803 14.332 M212.817 48.400 C 215.368 48.400,216.204 49.273,216.561 52.307 C 216.708 53.556,217.243 55.302,217.751 56.189 C 218.745 57.924,219.165 59.407,220.246 65.000 C 220.629 66.980,221.285 69.410,221.705 70.400 C 223.216 73.967,224.080 77.240,224.608 81.400 C 224.748 82.500,225.175 83.940,225.558 84.600 C 226.899 86.914,227.343 88.453,228.382 94.400 C 228.895 97.337,229.620 99.600,230.049 99.600 C 230.207 99.600,230.462 100.185,230.614 100.900 C 230.767 101.615,231.027 102.380,231.192 102.600 C 231.357 102.820,231.596 103.720,231.723 104.600 C 232.405 109.318,232.923 111.532,233.623 112.723 C 234.374 114.001,234.400 115.057,234.400 144.177 C 234.400 179.623,234.180 177.715,238.672 181.200 C 239.097 181.530,239.845 182.374,240.333 183.076 C 240.821 183.778,241.531 184.456,241.910 184.582 C 242.290 184.709,243.124 185.594,243.764 186.549 C 244.404 187.505,245.490 188.590,246.177 188.959 C 248.391 190.152,248.400 190.319,248.399 228.012 L 248.398 262.200 247.287 263.500 L 246.176 264.800 200.123 264.800 L 154.071 264.800 153.036 263.569 L 152.000 262.339 152.002 228.469 C 152.005 192.106,152.085 190.409,153.872 189.039 C 154.474 188.578,155.334 187.782,155.783 187.272 C 156.232 186.761,158.445 184.501,160.700 182.248 C 162.955 179.995,164.800 177.929,164.800 177.657 C 164.800 177.384,165.160 176.416,165.600 175.506 C 166.378 173.896,166.400 173.021,166.410 144.025 C 166.416 124.649,166.565 113.639,166.836 112.600 C 167.585 109.726,167.974 107.845,168.397 105.043 C 168.626 103.526,169.159 101.636,169.581 100.843 C 171.327 97.560,172.150 94.839,172.596 90.872 C 172.727 89.701,173.343 87.631,173.963 86.272 C 175.403 83.115,175.425 83.037,176.344 77.773 C 176.802 75.146,177.595 72.299,178.294 70.773 C 179.408 68.338,180.001 66.112,180.628 62.000 C 180.780 61.010,181.330 59.267,181.852 58.126 C 182.373 56.985,182.800 55.857,182.800 55.620 C 182.800 55.383,182.971 54.877,183.180 54.495 C 183.388 54.113,183.666 52.969,183.796 51.954 C 184.247 48.436,183.512 48.627,197.467 48.393 C 204.250 48.279,210.040 48.234,210.333 48.293 C 210.626 48.352,211.744 48.400,212.817 48.400 M154.136 51.900 C 153.798 54.485,153.600 54.546,153.600 52.067 C 153.600 50.930,153.777 50.000,153.992 50.000 C 154.229 50.000,154.286 50.756,154.136 51.900 M146.000 88.800 C 146.000 89.460,145.851 90.000,145.669 90.000 C 145.487 90.000,145.418 89.460,145.515 88.800 C 145.612 88.140,145.760 87.600,145.845 87.600 C 145.930 87.600,146.000 88.140,146.000 88.800 M139.141 205.816 C 140.425 207.448,140.800 210.337,140.800 218.587 L 140.800 226.335 139.453 227.167 C 136.085 229.249,133.254 228.264,128.837 223.476 C 128.267 222.858,126.964 221.494,125.941 220.446 C 123.418 217.859,123.720 213.541,126.529 212.038 C 127.077 211.745,127.854 210.895,128.255 210.150 C 128.656 209.405,129.275 208.703,129.631 208.590 C 129.987 208.477,131.156 207.578,132.230 206.592 C 134.686 204.338,137.711 203.998,139.141 205.816 M267.990 206.791 C 268.938 207.666,270.003 208.476,270.357 208.591 C 270.711 208.705,271.423 209.421,271.940 210.182 C 272.457 210.943,273.479 212.023,274.211 212.581 C 275.334 213.438,275.584 213.934,275.812 215.755 C 276.224 219.052,276.191 219.099,268.765 226.190 C 266.625 228.232,262.637 228.736,260.700 227.209 L 259.600 226.342 259.606 218.071 C 259.614 206.840,260.167 205.200,263.948 205.200 C 266.096 205.200,266.394 205.317,267.990 206.791 M101.940 239.900 C 101.897 241.264,101.831 241.461,101.705 240.600 C 101.468 238.984,100.977 238.476,99.470 238.287 C 98.530 238.169,98.693 238.111,100.100 238.064 L 102.000 238.000 101.940 239.900 M139.309 257.565 C 141.310 259.942,141.296 277.637,139.292 279.213 C 136.524 281.391,133.248 280.211,128.857 275.455 C 128.276 274.825,127.035 273.506,126.100 272.523 C 124.176 270.501,123.574 266.298,125.039 265.116 C 126.850 263.654,128.400 262.070,128.400 261.680 C 128.400 261.438,129.075 260.747,129.900 260.144 C 130.725 259.541,131.940 258.553,132.600 257.950 C 133.371 257.245,134.372 256.795,135.400 256.693 C 136.280 256.606,137.299 256.504,137.664 256.467 C 138.030 256.430,138.770 256.924,139.309 257.565 M267.878 258.222 C 268.715 259.005,269.895 259.909,270.500 260.233 C 271.105 260.556,271.600 261.006,271.600 261.233 C 271.600 261.460,272.539 262.546,273.688 263.647 C 275.637 265.516,275.790 265.803,275.999 267.990 L 276.223 270.332 273.732 273.066 C 272.362 274.570,271.068 275.951,270.856 276.135 C 270.644 276.320,269.965 276.950,269.346 277.535 C 266.474 280.252,263.164 280.883,260.762 279.173 L 259.600 278.346 259.602 269.673 C 259.605 257.728,259.916 256.836,264.078 256.813 C 266.144 256.801,266.497 256.932,267.878 258.222 M247.795 277.400 C 248.293 278.033,248.374 278.784,248.179 280.989 C 248.044 282.524,247.794 286.090,247.622 288.914 C 247.451 291.738,247.131 294.229,246.911 294.449 C 246.661 294.699,241.091 294.853,231.956 294.861 C 223.950 294.868,213.170 294.888,208.000 294.905 C 172.774 295.023,153.849 294.820,153.350 294.320 C 152.542 293.508,152.125 277.932,152.892 277.165 C 153.945 276.113,246.963 276.343,247.795 277.400 M242.000 305.953 L 246.600 306.200 247.502 308.000 C 248.873 310.735,248.721 329.470,247.317 330.778 C 245.950 332.051,154.482 332.080,153.116 330.808 C 151.314 329.129,151.594 309.412,153.461 306.563 L 154.092 305.600 195.746 305.653 C 218.656 305.682,239.470 305.817,242.000 305.953 M139.639 309.234 L 140.600 310.067 140.600 320.100 C 140.600 327.847,140.484 330.172,140.093 330.302 C 139.814 330.395,139.332 330.725,139.021 331.036 C 137.816 332.242,133.852 331.773,132.551 330.271 C 131.918 329.540,130.826 328.608,130.124 328.199 C 129.423 327.791,128.548 326.904,128.180 326.228 C 127.813 325.553,126.829 324.519,125.995 323.931 C 124.583 322.937,124.466 322.701,124.314 320.531 C 124.090 317.323,123.502 318.142,131.666 310.300 C 134.032 308.027,137.685 307.539,139.639 309.234 M268.487 310.255 C 269.649 311.275,271.905 313.463,273.500 315.118 C 278.257 320.053,277.732 321.584,268.487 329.736 C 266.014 331.917,262.820 332.365,260.800 330.815 L 259.800 330.047 259.680 320.413 L 259.559 310.779 260.749 309.590 C 262.760 307.579,265.728 307.834,268.487 310.255 M203.200 341.275 C 231.470 341.279,257.203 341.264,260.385 341.241 C 267.553 341.190,267.268 340.978,267.515 346.538 C 267.778 352.452,276.623 351.754,202.000 351.711 C 141.827 351.677,134.104 351.578,133.424 350.827 C 132.491 349.795,132.443 343.604,133.358 342.207 C 134.136 341.020,134.758 340.960,144.400 341.134 C 148.470 341.207,174.930 341.271,203.200 341.275 "
              stroke="none" fill="#242424" fill-rule="evenodd"></path>
    </g>
</svg>