<svg id="svg" version="1.1" xmlns="http://www.w3.org/2000/svg" width="400"
     height="400" viewBox="0, 0, 400,400">
    <g id="svgg">
        <path id="path0"
              d="M178.933 14.403 C 175.678 14.680,174.925 15.128,174.573 17.003 C 174.366 18.109,174.109 18.366,173.003 18.573 C 171.499 18.855,170.978 19.352,170.598 20.865 C 170.376 21.750,170.023 21.982,168.469 22.266 C 166.340 22.655,166.131 23.103,166.047 27.447 L 166.000 29.895 164.367 30.114 C 162.366 30.382,162.443 30.304,162.080 32.445 C 161.814 34.014,161.656 34.214,160.591 34.335 C 159.012 34.515,158.401 35.075,158.394 36.349 C 158.386 37.715,158.024 38.224,156.800 38.595 C 155.310 39.046,154.847 39.543,154.578 40.978 C 154.374 42.064,154.096 42.334,152.871 42.637 C 150.956 43.112,150.165 44.636,150.654 46.909 C 150.994 48.490,151.204 48.706,153.200 49.532 C 154.049 49.883,153.808 49.957,151.600 50.020 C 147.154 50.147,146.674 50.354,146.289 52.302 C 145.983 53.849,145.846 54.000,144.748 54.000 C 139.942 54.000,137.817 58.467,141.509 60.809 L 143.400 62.009 140.600 61.904 L 137.800 61.800 137.677 60.530 C 137.503 58.731,136.768 58.308,133.848 58.325 C 128.363 58.357,126.294 60.798,126.386 67.131 C 126.468 72.815,126.170 73.999,124.658 74.006 C 122.839 74.015,122.297 74.514,121.987 76.466 L 121.712 78.200 121.408 76.909 C 120.991 75.139,120.276 74.662,117.988 74.629 C 113.841 74.568,112.903 80.464,116.909 81.408 L 118.200 81.712 116.466 81.987 C 114.518 82.297,114.015 82.840,114.006 84.643 C 114.001 85.781,113.856 85.917,112.301 86.245 C 110.713 86.580,110.580 86.713,110.245 88.301 L 109.886 90.000 107.243 90.040 C 103.101 90.102,102.660 90.320,102.233 92.515 C 101.887 94.294,101.794 94.400,100.582 94.400 C 99.029 94.400,98.508 94.957,98.333 96.802 C 98.210 98.095,98.090 98.209,96.730 98.322 C 94.734 98.489,94.474 98.932,94.158 102.722 C 93.857 106.340,93.683 106.592,92.800 104.691 C 92.052 103.081,90.365 102.453,86.700 102.423 C 83.098 102.392,82.570 102.919,82.195 106.914 L 81.915 109.904 80.259 110.254 C 78.728 110.577,78.577 110.727,78.255 112.255 C 77.933 113.781,77.781 113.933,76.255 114.255 C 74.719 114.578,74.578 114.722,74.245 116.301 L 73.886 118.000 72.043 117.936 C 70.630 117.887,70.496 117.835,71.470 117.713 C 73.634 117.442,74.782 112.610,73.086 110.914 C 71.390 109.219,66.533 110.372,66.323 112.519 C 66.212 113.655,66.031 113.812,64.480 114.117 C 61.731 114.657,60.720 121.600,63.390 121.600 C 63.726 121.600,64.000 121.780,64.000 122.000 C 64.000 122.220,63.726 122.400,63.390 122.400 C 61.488 122.400,61.587 129.557,63.490 129.625 C 64.027 129.645,63.972 129.742,63.263 130.026 C 62.002 130.531,61.600 130.200,61.600 128.656 C 61.600 126.627,61.087 126.400,56.502 126.400 C 52.642 126.400,52.298 126.466,51.382 127.382 C 49.426 129.338,50.660 133.600,53.182 133.600 C 53.806 133.600,54.001 133.860,54.005 134.700 C 54.014 136.439,54.427 137.543,55.141 137.732 C 55.503 137.828,55.134 137.928,54.320 137.954 C 46.661 138.194,43.464 144.337,50.419 145.449 C 51.838 145.676,51.979 145.779,51.346 146.124 C 50.236 146.730,50.013 147.226,50.006 149.100 C 50.002 150.364,49.841 150.800,49.382 150.800 C 47.152 150.800,46.060 154.497,47.782 156.218 C 49.503 157.940,53.200 156.848,53.200 154.618 C 53.200 154.278,53.380 154.000,53.600 154.000 C 53.842 154.000,53.997 155.694,53.991 158.300 L 53.983 162.600 52.692 163.200 C 50.210 164.354,50.210 167.646,52.692 168.800 C 54.335 169.564,54.335 170.436,52.692 171.200 C 48.935 172.947,50.602 176.777,55.527 177.713 L 57.899 178.164 58.165 181.360 C 58.504 185.426,58.662 185.600,62.000 185.600 C 65.013 185.600,65.448 185.318,65.703 183.198 C 65.835 182.106,65.886 182.255,65.936 183.876 L 66.000 185.953 64.311 186.287 C 62.732 186.599,62.600 186.729,62.296 188.266 L 61.971 189.910 59.285 190.164 C 52.013 190.854,51.413 191.111,50.790 193.800 C 49.783 198.145,50.818 201.600,53.126 201.600 C 53.746 201.600,53.934 201.986,54.132 203.658 C 54.429 206.164,54.302 206.400,52.656 206.400 C 51.075 206.400,50.400 207.012,50.400 208.447 C 50.400 209.954,50.018 210.800,49.339 210.800 C 47.103 210.800,45.683 217.427,47.395 219.872 C 48.056 220.815,51.073 221.983,52.971 222.030 L 54.200 222.061 52.800 222.564 C 49.454 223.766,49.681 228.751,53.111 229.394 C 55.101 229.768,55.312 229.945,54.603 230.654 C 54.133 231.124,54.000 232.307,54.000 236.000 C 54.000 241.975,54.019 242.000,58.629 242.000 L 62.000 242.000 62.047 244.500 C 62.123 248.495,62.419 249.357,63.803 249.622 L 65.000 249.850 63.713 250.154 C 62.213 250.508,61.772 251.889,62.093 255.231 C 62.341 257.809,62.251 257.752,66.529 258.031 C 68.816 258.180,69.431 258.295,68.160 258.335 C 63.861 258.472,62.759 259.501,62.171 263.933 L 61.897 266.000 59.448 266.047 C 55.088 266.132,54.656 266.336,54.260 268.503 C 53.944 270.235,53.816 270.400,52.785 270.400 C 50.569 270.400,49.498 274.268,50.159 279.888 C 50.750 284.919,50.016 290.436,48.695 290.896 C 46.988 291.492,46.191 293.526,46.952 295.346 C 47.571 296.829,48.747 297.406,52.038 297.843 C 53.752 298.070,54.040 298.242,54.229 299.152 C 54.588 300.875,55.011 301.369,56.358 301.645 C 58.032 301.987,58.419 302.400,57.067 302.400 C 55.726 302.400,54.400 303.691,54.400 304.995 C 54.400 305.846,54.169 306.027,52.808 306.245 C 50.680 306.585,50.267 307.203,50.267 310.040 C 50.267 313.199,50.801 313.733,53.960 313.733 C 56.778 313.733,57.415 313.317,57.744 311.261 C 57.977 309.801,58.042 309.745,59.294 309.939 C 60.534 310.131,60.549 310.154,59.600 310.388 C 56.994 311.032,57.580 317.181,60.301 317.755 C 61.829 318.078,62.000 318.231,62.000 319.280 C 62.000 322.653,63.086 324.997,64.809 325.342 C 66.365 325.653,66.322 326.192,64.705 326.656 C 61.672 327.526,61.711 332.722,64.756 333.331 C 66.179 333.616,66.381 335.098,66.091 343.150 C 65.868 349.363,66.104 350.000,68.629 350.000 C 69.908 350.000,70.000 350.087,70.006 351.300 C 70.015 353.161,70.503 353.700,72.466 354.019 L 74.200 354.300 72.749 354.350 C 71.022 354.410,70.510 354.928,70.333 356.802 C 70.212 358.077,70.077 358.212,68.802 358.333 C 66.696 358.532,66.400 358.980,66.400 361.969 C 66.400 365.000,66.776 365.600,68.680 365.600 C 69.989 365.600,70.000 365.616,70.060 367.600 C 70.093 368.700,70.138 369.810,70.160 370.067 C 70.248 371.089,69.279 370.756,68.800 369.599 C 67.015 365.290,63.200 366.926,63.200 372.000 C 63.200 375.982,64.018 376.800,68.000 376.800 C 70.974 376.800,71.052 376.761,73.187 374.162 C 73.729 373.502,73.805 373.574,74.187 375.108 C 74.799 377.567,75.153 377.755,79.506 377.922 C 84.513 378.114,85.433 377.769,85.910 375.520 C 86.226 374.032,86.276 374.318,86.286 377.637 C 86.300 382.538,86.852 384.295,88.610 385.030 C 91.383 386.189,93.591 384.193,93.606 380.513 C 93.609 379.681,93.787 378.730,94.000 378.400 C 94.269 377.984,94.390 378.751,94.394 380.900 C 94.402 385.030,94.771 385.397,99.240 385.732 C 104.242 386.106,105.301 385.771,105.714 383.686 L 106.047 382.000 109.967 382.000 L 113.886 382.000 114.245 383.699 C 114.819 386.421,120.920 387.000,121.643 384.400 C 121.801 383.828,121.937 383.687,121.960 384.071 C 122.084 386.157,127.877 386.957,129.584 385.125 C 130.221 384.441,130.400 384.387,130.400 384.878 C 130.400 386.425,140.964 386.487,141.434 384.943 C 141.994 383.109,142.126 383.001,142.365 384.188 C 142.958 387.137,149.112 386.479,149.813 383.391 L 150.266 381.400 150.575 382.886 C 151.079 385.309,151.205 385.342,161.345 385.692 C 171.795 386.052,173.083 385.946,173.601 384.678 L 173.959 383.800 174.217 384.663 C 174.513 385.657,175.462 385.989,178.000 385.989 C 180.878 385.989,181.495 385.686,181.928 384.061 C 182.261 382.811,182.323 382.752,182.359 383.651 C 182.473 386.564,189.600 386.663,189.600 383.751 C 189.600 383.228,189.780 382.800,190.000 382.800 C 190.220 382.800,190.400 383.228,190.400 383.751 C 190.400 385.255,191.352 385.686,195.157 385.903 C 199.480 386.150,201.600 385.822,201.600 384.906 C 201.600 384.368,201.748 384.407,202.416 385.125 C 203.102 385.861,203.656 385.997,205.916 385.983 C 212.083 385.943,213.576 385.028,213.636 381.256 C 213.669 379.174,213.701 379.100,214.046 380.295 C 214.480 381.796,214.933 381.955,219.200 382.099 L 222.200 382.200 222.323 383.470 C 222.623 386.566,229.588 386.739,229.606 383.651 C 229.616 382.020,230.028 381.756,232.300 381.923 C 234.062 382.052,234.400 382.203,234.400 382.857 C 234.400 385.377,238.682 386.554,240.658 384.578 C 241.580 383.656,241.669 383.294,241.569 380.878 C 241.508 379.405,241.603 377.255,241.780 376.100 L 242.103 374.000 243.952 374.064 C 245.364 374.113,245.500 374.166,244.530 374.287 C 242.359 374.559,241.219 379.390,242.923 381.094 C 243.516 381.687,248.715 381.947,249.558 381.426 C 249.752 381.306,250.029 382.002,250.175 382.971 C 250.533 385.360,251.171 385.784,254.348 385.746 C 270.575 385.554,271.364 385.434,272.480 382.984 C 273.147 381.521,274.000 381.739,274.000 383.371 C 274.000 385.717,274.646 386.000,280.000 386.000 C 285.354 386.000,286.000 385.717,286.000 383.371 L 286.000 382.000 287.992 382.000 C 289.843 382.000,290.001 382.078,290.216 383.100 C 290.709 385.444,292.213 386.238,295.200 385.733 C 297.165 385.400,297.494 385.028,297.802 382.788 C 298.041 381.047,298.142 380.885,298.665 381.408 C 298.991 381.734,299.866 382.000,300.610 382.000 C 301.838 382.000,301.988 382.129,302.224 383.386 C 302.597 385.373,303.258 385.727,306.929 385.903 C 312.019 386.147,313.308 385.735,313.703 383.740 L 314.025 382.111 317.451 381.897 C 321.657 381.635,321.594 381.699,321.948 377.350 L 322.236 373.800 322.875 375.246 C 323.668 377.039,325.378 377.775,327.243 377.125 C 330.632 375.944,330.441 367.936,326.998 366.799 C 325.633 366.349,325.537 366.217,325.759 365.105 C 325.892 364.442,326.015 362.797,326.034 361.450 L 326.067 359.000 326.575 361.369 C 327.780 366.988,332.533 366.559,333.546 360.739 C 334.430 355.666,334.147 343.368,333.125 342.416 C 332.407 341.748,332.368 341.600,332.906 341.600 C 333.842 341.600,334.133 339.541,333.922 334.424 L 333.745 330.107 335.572 329.754 C 337.311 329.417,337.417 329.318,337.751 327.727 C 338.076 326.180,338.220 326.033,339.649 325.792 C 341.681 325.448,341.800 325.195,341.800 321.200 L 341.800 317.800 343.270 317.678 C 345.586 317.485,345.796 316.940,345.828 311.039 C 345.879 301.462,345.788 302.000,347.371 302.000 C 349.467 302.000,350.000 301.188,350.000 298.000 C 350.000 294.812,349.467 294.000,347.371 294.000 L 346.000 294.000 346.000 289.576 C 346.000 286.729,346.143 285.241,346.400 285.400 C 346.620 285.536,346.800 286.005,346.800 286.442 C 346.800 287.671,348.574 289.200,350.000 289.200 C 353.736 289.200,354.314 283.840,350.682 282.872 C 349.734 282.619,349.430 282.331,349.516 281.765 C 350.398 275.946,349.620 274.267,346.040 274.267 C 343.436 274.267,342.404 274.800,342.394 276.149 C 342.391 276.617,342.213 277.270,342.000 277.600 C 341.698 278.068,341.611 277.957,341.606 277.100 C 341.598 275.726,340.319 274.400,339.000 274.400 L 338.000 274.400 338.000 268.974 C 338.000 265.989,337.832 263.233,337.626 262.849 C 336.835 261.371,338.056 257.818,339.407 257.665 C 341.111 257.471,341.465 257.039,341.763 254.793 C 341.909 253.697,342.210 252.800,342.432 252.800 C 342.654 252.800,343.278 252.358,343.818 251.818 C 345.850 249.786,344.780 243.200,342.418 243.200 C 342.188 243.200,342.000 242.930,342.000 242.600 C 342.000 242.136,342.565 241.989,344.500 241.953 C 348.802 241.871,349.326 241.645,349.711 239.698 C 350.341 236.511,349.656 234.676,347.689 234.287 L 346.000 233.953 346.000 231.976 C 346.000 230.075,346.043 230.000,347.127 230.000 C 349.783 230.000,352.431 228.824,353.036 227.375 C 353.796 225.557,352.989 223.363,351.416 222.968 C 350.245 222.674,349.600 221.717,349.600 220.275 C 349.600 219.072,348.965 218.512,347.400 218.335 C 345.396 218.109,345.337 213.888,347.326 213.057 C 349.126 212.305,349.820 210.501,349.034 208.620 C 347.887 205.875,343.855 206.028,342.814 208.857 C 342.257 210.370,342.144 210.204,341.881 207.486 C 341.701 205.632,341.737 205.554,343.015 205.019 C 347.036 203.339,345.624 199.348,340.678 198.415 C 338.014 197.912,338.000 197.902,338.000 196.583 C 338.000 194.436,337.219 194.000,333.371 194.000 L 330.000 194.000 330.000 191.844 L 330.000 189.687 332.993 189.536 C 336.732 189.347,337.412 188.800,337.371 186.012 C 337.338 183.721,336.859 183.005,335.091 182.603 L 333.800 182.310 335.600 181.836 C 337.276 181.395,337.425 181.247,337.757 179.681 C 338.088 178.120,338.207 178.000,339.428 178.000 C 341.557 178.000,341.992 177.216,342.057 173.271 L 342.114 169.800 342.384 172.400 C 342.886 177.212,346.491 179.077,351.359 177.043 C 354.682 175.655,354.611 164.464,351.269 162.882 C 350.173 162.363,349.765 161.881,349.558 160.863 C 349.218 159.193,348.819 158.790,347.137 158.420 L 345.800 158.127 347.589 157.753 C 349.286 157.398,349.396 157.291,349.713 155.689 C 350.352 152.459,349.661 150.683,347.589 150.228 L 345.800 149.834 348.906 149.597 C 352.771 149.301,353.412 148.781,353.370 145.970 C 353.330 143.203,352.736 142.727,349.036 142.490 C 346.226 142.309,345.061 141.600,347.575 141.600 C 349.464 141.600,349.800 140.747,349.800 135.953 C 349.800 130.420,349.686 130.280,345.234 130.337 L 342.000 130.379 342.000 128.818 C 342.000 126.823,341.174 126.000,339.171 126.000 L 337.600 126.000 337.600 119.289 C 337.600 111.817,337.388 111.077,335.082 110.484 C 334.164 110.248,333.686 109.820,333.400 108.977 C 332.775 107.138,332.503 106.888,330.818 106.603 C 328.642 106.235,327.137 107.021,326.631 108.789 L 326.233 110.179 325.801 108.404 C 325.256 106.166,324.965 106.080,318.000 106.080 C 311.052 106.080,310.696 106.182,310.243 108.318 L 309.886 110.000 307.951 110.000 C 306.164 110.000,305.997 109.915,305.774 108.900 C 305.274 106.619,305.377 106.723,303.140 106.236 C 302.103 106.010,302.077 105.926,301.940 102.435 C 301.780 98.357,301.805 98.405,299.670 98.119 L 298.075 97.905 297.798 94.652 C 297.326 89.092,295.318 86.400,291.645 86.400 C 290.308 86.400,289.200 85.503,289.200 84.420 C 289.200 83.273,288.101 82.660,285.988 82.629 C 283.616 82.594,282.914 83.185,282.436 85.622 L 282.088 87.400 282.044 85.926 C 281.985 83.948,281.356 82.400,280.610 82.400 C 280.274 82.400,280.000 82.220,280.000 82.000 C 280.000 81.780,280.274 81.600,280.610 81.600 C 282.168 81.600,282.479 76.847,281.101 74.088 C 279.515 70.911,277.080 70.339,275.673 72.812 C 275.031 73.941,274.881 73.993,272.400 73.951 C 270.087 73.913,269.970 73.875,271.342 73.610 C 273.439 73.205,273.587 72.832,273.594 67.929 C 273.601 62.722,273.392 62.400,270.000 62.400 C 267.287 62.400,266.422 63.001,266.358 64.929 L 266.316 66.200 265.858 64.800 C 265.195 62.772,264.957 62.518,263.456 62.237 C 262.233 62.007,262.082 61.827,261.885 60.359 C 261.611 58.316,261.619 58.323,259.231 58.093 C 256.558 57.837,254.497 58.260,254.273 59.113 C 254.174 59.491,254.072 58.405,254.046 56.700 L 254.000 53.600 255.320 53.600 C 257.219 53.600,257.600 52.999,257.600 50.000 C 257.600 46.688,257.309 46.400,253.969 46.400 C 250.989 46.400,250.552 46.686,250.297 48.802 C 250.204 49.571,250.099 48.780,250.064 47.044 C 249.935 40.665,245.961 36.791,243.673 40.812 C 242.830 42.294,242.084 42.329,241.784 40.900 C 241.277 38.491,240.594 38.136,236.300 38.047 L 234.000 38.000 233.925 34.500 C 233.884 32.575,233.819 29.290,233.782 27.200 C 233.656 20.169,233.094 16.405,232.041 15.553 C 230.246 14.099,227.901 14.781,226.961 17.032 C 226.231 18.778,225.781 18.760,225.187 16.961 C 224.141 13.791,219.851 13.858,218.767 17.061 L 218.246 18.600 217.932 16.829 C 217.437 14.039,215.334 13.555,208.512 14.661 C 206.845 14.931,205.892 14.932,205.622 14.662 C 205.217 14.257,201.370 14.111,196.200 14.305 C 194.660 14.363,192.445 14.300,191.277 14.165 C 187.595 13.740,186.504 14.148,186.064 16.114 C 185.718 17.656,185.682 17.693,185.643 16.549 C 185.571 14.442,184.084 13.966,178.933 14.403 M181.975 22.170 C 182.236 22.484,182.390 23.519,182.317 24.470 L 182.185 26.200 181.784 24.420 C 181.397 22.703,181.311 22.622,179.391 22.167 L 177.400 21.695 179.451 21.648 C 180.788 21.617,181.667 21.799,181.975 22.170 M204.083 48.358 C 206.039 48.680,209.501 51.676,212.001 55.211 C 212.542 55.975,214.517 58.161,216.392 60.069 C 219.337 63.066,222.853 66.969,224.196 68.730 C 224.418 69.022,227.229 71.902,230.442 75.130 C 233.654 78.359,236.412 81.405,236.568 81.900 C 236.725 82.395,236.995 82.800,237.168 82.800 C 237.718 82.800,239.944 85.131,240.594 86.387 C 240.938 87.054,241.364 87.600,241.538 87.600 C 242.046 87.600,244.400 89.828,244.400 90.308 C 244.400 90.549,244.985 91.150,245.700 91.644 C 247.323 92.765,248.400 93.847,248.400 94.356 C 248.400 94.571,249.176 95.383,250.126 96.160 C 251.075 96.938,252.072 97.985,252.342 98.487 C 252.611 98.989,253.455 99.807,254.216 100.304 C 254.977 100.801,255.600 101.384,255.600 101.599 C 255.600 102.019,256.658 103.412,257.538 104.149 C 258.502 104.956,259.765 106.274,261.670 108.457 C 264.830 112.078,267.716 115.255,269.600 117.187 C 270.590 118.202,271.850 119.625,272.400 120.349 C 272.950 121.073,274.765 123.046,276.434 124.733 C 278.103 126.420,280.055 128.667,280.772 129.727 C 281.489 130.787,282.312 131.745,282.601 131.856 C 283.857 132.338,284.200 134.518,284.200 142.018 C 284.200 150.202,283.929 151.268,281.695 151.894 C 280.268 152.293,119.738 152.295,118.312 151.895 C 116.401 151.360,116.224 150.492,116.212 141.585 L 116.200 133.371 117.800 131.426 C 118.680 130.357,121.010 127.844,122.979 125.841 C 124.947 123.838,127.017 121.537,127.579 120.728 C 128.140 119.918,130.317 117.470,132.415 115.287 C 134.514 113.104,136.514 110.887,136.860 110.359 C 137.385 109.561,139.463 107.224,141.144 105.544 C 143.049 103.638,144.821 101.811,145.296 101.262 C 145.611 100.898,146.246 100.343,146.709 100.030 C 147.171 99.716,147.872 98.860,148.267 98.128 C 148.662 97.395,149.303 96.694,149.692 96.571 C 150.082 96.447,150.888 95.683,151.483 94.873 C 152.078 94.063,153.383 92.563,154.383 91.539 C 155.382 90.516,156.507 89.346,156.883 88.939 C 157.870 87.871,159.944 85.767,161.900 83.851 C 162.835 82.934,163.600 81.980,163.600 81.730 C 163.600 81.479,164.500 80.521,165.600 79.600 C 166.700 78.679,167.600 77.762,167.600 77.563 C 167.600 77.164,169.060 75.600,169.432 75.600 C 169.814 75.600,175.600 69.694,175.600 69.304 C 175.600 68.883,179.265 64.807,183.800 60.185 C 185.560 58.392,187.360 56.410,187.800 55.781 C 188.240 55.152,189.410 53.815,190.400 52.808 C 191.390 51.802,192.583 50.476,193.051 49.863 C 194.279 48.254,199.298 47.570,204.083 48.358 M320.182 100.182 C 318.535 101.828,319.705 104.800,322.000 104.800 C 323.079 104.800,324.800 103.079,324.800 102.000 C 324.800 100.921,323.079 99.200,322.000 99.200 C 321.540 99.200,320.722 99.642,320.182 100.182 M103.300 136.947 L 104.400 137.893 104.400 149.928 C 104.400 164.906,104.308 165.203,99.300 166.404 C 98.306 166.642,97.781 166.543,97.067 165.981 C 96.554 165.577,95.387 164.948,94.474 164.583 C 93.423 164.162,92.498 163.406,91.950 162.518 C 91.473 161.748,90.572 160.807,89.948 160.427 C 89.323 160.047,88.268 158.985,87.603 158.068 C 86.939 157.150,86.208 156.400,85.978 156.400 C 84.744 156.400,83.600 154.265,83.600 151.961 C 83.600 149.227,84.595 145.067,85.304 144.842 C 85.577 144.756,86.730 143.766,87.867 142.642 C 89.004 141.519,90.448 140.150,91.076 139.600 C 91.705 139.050,92.527 138.115,92.904 137.522 C 93.632 136.378,94.302 136.237,99.800 136.073 C 101.808 136.013,102.380 136.155,103.300 136.947 M307.279 137.683 C 307.873 138.407,308.558 139.180,308.801 139.400 C 309.044 139.620,310.382 140.925,311.774 142.300 C 313.166 143.675,314.516 144.800,314.773 144.800 C 315.737 144.800,316.521 147.719,316.486 151.170 L 316.451 154.539 314.325 156.646 C 313.156 157.804,311.957 158.988,311.661 159.276 C 311.364 159.564,310.104 160.813,308.861 162.051 C 307.617 163.289,306.150 164.435,305.600 164.597 C 305.050 164.760,304.033 165.317,303.341 165.836 L 302.081 166.779 299.960 166.058 C 296.138 164.759,296.218 165.079,296.084 150.569 L 295.968 137.996 297.024 136.940 C 298.732 135.232,305.683 135.735,307.279 137.683 M281.871 165.508 C 285.013 167.746,284.427 192.390,281.230 192.402 C 280.884 192.404,280.098 192.667,279.483 192.987 C 277.529 194.007,123.018 193.832,120.008 192.807 C 116.342 191.559,116.468 192.063,116.568 179.106 C 116.668 165.989,116.792 165.474,120.000 164.785 C 120.550 164.667,156.920 164.585,200.823 164.603 L 280.645 164.635 281.871 165.508 M283.174 208.575 L 284.400 209.750 284.400 257.913 C 284.400 305.964,284.398 306.079,283.573 307.238 L 282.746 308.400 200.202 308.400 L 117.658 308.400 116.824 307.340 L 115.991 306.280 116.095 257.717 L 116.200 209.154 117.200 208.397 C 118.660 207.291,115.284 207.332,201.874 207.367 L 281.948 207.400 283.174 208.575 M103.358 208.929 C 104.164 210.009,104.205 210.572,104.310 222.129 L 104.420 234.200 103.377 235.400 C 101.337 237.749,93.718 236.967,92.259 234.258 C 91.870 233.535,91.014 232.626,90.358 232.239 C 89.701 231.851,88.770 230.932,88.288 230.197 C 87.806 229.463,86.870 228.544,86.206 228.156 C 83.995 226.863,83.285 224.464,83.826 220.127 C 84.118 217.793,92.257 208.753,94.768 207.974 C 97.385 207.163,102.462 207.727,103.358 208.929 M305.158 207.852 C 305.849 207.990,306.817 208.552,307.308 209.101 C 308.852 210.829,309.825 211.769,311.132 212.796 C 311.830 213.343,312.400 214.007,312.400 214.270 C 312.400 214.533,313.105 215.255,313.966 215.874 C 317.076 218.109,317.811 225.004,315.168 227.141 C 314.448 227.723,313.395 228.711,312.829 229.335 C 312.263 229.960,311.260 231.001,310.600 231.648 C 309.940 232.296,309.270 232.955,309.112 233.113 C 308.953 233.271,308.280 234.052,307.616 234.848 C 305.235 237.703,298.088 237.677,296.604 234.808 C 295.480 232.634,295.731 210.644,296.900 208.927 C 297.844 207.540,301.331 207.086,305.158 207.852 M103.313 280.462 L 104.436 281.800 104.322 294.000 L 104.209 306.200 103.135 307.300 C 101.154 309.329,94.664 308.581,92.400 306.062 C 91.630 305.205,90.454 304.136,89.786 303.686 C 89.118 303.236,88.344 302.447,88.066 301.934 C 87.788 301.420,86.874 300.511,86.035 299.913 C 83.371 298.016,82.755 290.566,85.100 288.620 C 85.643 288.169,86.563 287.281,87.144 286.646 C 87.725 286.011,88.625 285.111,89.144 284.646 C 89.663 284.181,90.563 283.283,91.144 282.651 C 93.395 280.202,94.146 279.600,94.958 279.594 C 95.421 279.591,96.070 279.401,96.400 279.173 C 97.789 278.213,102.101 279.017,103.313 280.462 M304.372 279.255 C 306.866 280.051,307.654 280.543,308.238 281.674 C 308.552 282.281,309.457 283.217,310.249 283.756 C 311.041 284.294,312.015 285.271,312.414 285.926 C 312.812 286.582,313.662 287.428,314.302 287.806 C 317.536 289.716,317.353 297.883,314.033 299.844 C 313.348 300.249,312.341 301.255,311.795 302.079 C 311.250 302.903,310.263 303.857,309.602 304.199 C 308.941 304.541,308.400 304.951,308.400 305.110 C 308.395 307.843,299.336 309.627,297.055 307.345 L 296.000 306.291 296.000 293.999 C 296.000 282.049,296.024 281.678,296.855 280.621 C 298.278 278.811,301.273 278.267,304.372 279.255 M51.782 315.782 C 49.798 317.766,51.204 321.200,54.000 321.200 C 55.644 321.200,57.200 319.644,57.200 318.000 C 57.200 316.356,55.644 314.800,54.000 314.800 C 53.221 314.800,52.401 315.163,51.782 315.782 M139.629 321.200 C 141.389 323.048,141.683 325.659,141.477 337.616 C 141.264 350.000,141.242 350.151,139.550 351.026 C 137.764 351.949,102.200 351.905,101.176 350.978 C 100.350 350.230,100.360 327.844,101.189 323.852 C 101.646 321.652,102.008 321.374,105.400 320.613 C 107.523 320.137,139.132 320.679,139.629 321.200 M220.772 321.580 C 223.383 323.439,223.605 324.693,223.560 337.333 C 223.538 343.530,223.396 349.050,223.243 349.600 C 222.656 351.719,222.340 351.747,199.899 351.681 C 176.220 351.611,176.811 351.687,176.786 348.690 C 176.578 324.306,176.583 324.217,178.361 322.439 C 180.045 320.755,182.423 320.589,204.234 320.626 L 219.469 320.652 220.772 321.580 M296.486 320.823 C 299.368 321.599,299.383 321.680,299.533 336.721 C 299.662 349.640,299.640 350.103,298.869 350.822 C 297.782 351.835,261.656 352.163,260.096 351.175 C 258.742 350.317,258.704 349.966,258.650 337.627 C 258.584 322.443,259.033 320.984,263.861 320.709 C 269.947 320.362,295.100 320.450,296.486 320.823 M336.094 330.796 C 334.912 331.295,334.294 332.988,334.610 334.859 C 335.328 339.112,341.435 338.309,341.370 333.970 C 341.328 331.115,338.860 329.630,336.094 330.796 M348.094 330.796 C 346.912 331.295,346.294 332.988,346.610 334.859 C 347.328 339.112,353.435 338.309,353.370 333.970 C 353.328 331.115,350.860 329.630,348.094 330.796 M155.430 374.358 C 155.006 374.524,154.524 375.006,154.358 375.430 C 154.106 376.074,154.052 376.019,154.028 375.100 C 154.004 374.153,154.153 374.004,155.100 374.028 C 156.019 374.052,156.074 374.106,155.430 374.358 "
              stroke="none" fill="#070707" fill-rule="evenodd"></path>
        <path id="path1"
              d="M195.851 48.421 C 194.416 48.662,193.678 49.042,193.051 49.863 C 192.583 50.476,191.390 51.802,190.400 52.808 C 189.410 53.815,188.240 55.152,187.800 55.781 C 187.360 56.410,185.560 58.392,183.800 60.185 C 179.265 64.807,175.600 68.883,175.600 69.304 C 175.600 69.694,169.814 75.600,169.432 75.600 C 169.060 75.600,167.600 77.164,167.600 77.563 C 167.600 77.762,166.700 78.679,165.600 79.600 C 164.500 80.521,163.600 81.479,163.600 81.730 C 163.600 81.980,162.835 82.934,161.900 83.851 C 159.944 85.767,157.870 87.871,156.883 88.939 C 156.507 89.346,155.382 90.516,154.383 91.539 C 153.383 92.563,152.078 94.063,151.483 94.873 C 150.888 95.683,150.082 96.447,149.692 96.571 C 149.303 96.694,148.662 97.395,148.267 98.128 C 147.872 98.860,147.171 99.716,146.709 100.030 C 146.246 100.343,145.611 100.898,145.296 101.262 C 144.821 101.811,143.049 103.638,141.144 105.544 C 139.463 107.224,137.385 109.561,136.860 110.359 C 136.514 110.887,134.514 113.104,132.415 115.287 C 130.317 117.470,128.140 119.918,127.579 120.728 C 127.017 121.537,124.947 123.838,122.979 125.841 C 121.010 127.844,118.680 130.357,117.800 131.426 L 116.200 133.371 116.212 141.585 C 116.224 150.492,116.401 151.360,118.312 151.895 C 119.738 152.295,280.268 152.293,281.695 151.894 C 283.929 151.268,284.200 150.202,284.200 142.018 C 284.200 134.518,283.857 132.338,282.601 131.856 C 282.312 131.745,281.489 130.787,280.772 129.727 C 280.055 128.667,278.103 126.420,276.434 124.733 C 274.765 123.046,272.950 121.073,272.400 120.349 C 271.850 119.625,270.590 118.202,269.600 117.187 C 267.716 115.255,264.830 112.078,261.670 108.457 C 259.765 106.274,258.502 104.956,257.538 104.149 C 256.658 103.412,255.600 102.019,255.600 101.599 C 255.600 101.384,254.977 100.801,254.216 100.304 C 253.455 99.807,252.611 98.989,252.342 98.487 C 252.072 97.985,251.075 96.938,250.126 96.160 C 249.176 95.383,248.400 94.571,248.400 94.356 C 248.400 93.847,247.323 92.765,245.700 91.644 C 244.985 91.150,244.400 90.549,244.400 90.308 C 244.400 89.828,242.046 87.600,241.538 87.600 C 241.364 87.600,240.938 87.054,240.594 86.387 C 239.944 85.131,237.718 82.800,237.168 82.800 C 236.995 82.800,236.725 82.395,236.568 81.900 C 236.412 81.405,233.654 78.359,230.442 75.130 C 227.229 71.902,224.418 69.022,224.196 68.730 C 222.853 66.969,219.337 63.066,216.392 60.069 C 214.517 58.161,212.542 55.975,212.001 55.211 C 207.407 48.717,203.610 47.120,195.851 48.421 M95.495 136.294 C 93.949 136.416,93.460 136.648,92.904 137.522 C 92.527 138.115,91.705 139.050,91.076 139.600 C 90.448 140.150,89.004 141.519,87.867 142.642 C 86.730 143.766,85.577 144.756,85.304 144.842 C 84.595 145.067,83.600 149.227,83.600 151.961 C 83.600 154.265,84.744 156.400,85.978 156.400 C 86.208 156.400,86.939 157.150,87.603 158.068 C 88.268 158.985,89.323 160.047,89.948 160.427 C 90.572 160.807,91.473 161.748,91.950 162.518 C 92.498 163.406,93.423 164.162,94.474 164.583 C 95.387 164.948,96.554 165.577,97.067 165.981 C 97.781 166.543,98.306 166.642,99.300 166.404 C 104.308 165.203,104.400 164.906,104.400 149.928 L 104.400 137.893 103.300 136.947 C 102.162 135.968,100.938 135.866,95.495 136.294 M297.024 136.940 L 295.968 137.996 296.084 150.569 C 296.218 165.079,296.138 164.759,299.960 166.058 L 302.081 166.779 303.341 165.836 C 304.033 165.317,305.050 164.760,305.600 164.597 C 306.150 164.435,307.617 163.289,308.861 162.051 C 310.104 160.813,311.364 159.564,311.661 159.276 C 311.957 158.988,313.156 157.804,314.325 156.646 L 316.451 154.539 316.486 151.170 C 316.521 147.719,315.737 144.800,314.773 144.800 C 314.516 144.800,313.166 143.675,311.774 142.300 C 310.382 140.925,309.044 139.620,308.801 139.400 C 308.558 139.180,307.873 138.407,307.279 137.683 C 305.683 135.735,298.732 135.232,297.024 136.940 M120.000 164.785 C 116.792 165.474,116.668 165.989,116.568 179.106 C 116.468 192.063,116.342 191.559,120.008 192.807 C 123.018 193.832,277.529 194.007,279.483 192.987 C 280.098 192.667,280.884 192.404,281.230 192.402 C 283.384 192.394,283.578 191.363,283.606 179.785 C 283.637 167.392,283.553 166.706,281.871 165.508 L 280.645 164.635 200.823 164.603 C 156.920 164.585,120.550 164.667,120.000 164.785 M120.000 207.487 C 119.010 207.571,117.750 207.980,117.200 208.397 L 116.200 209.154 116.095 257.717 L 115.991 306.280 116.824 307.340 L 117.658 308.400 200.202 308.400 L 282.746 308.400 283.573 307.238 C 284.398 306.079,284.400 305.964,284.400 257.913 L 284.400 209.750 283.174 208.575 L 281.948 207.400 201.874 207.367 C 157.833 207.349,120.990 207.403,120.000 207.487 M94.768 207.974 C 92.257 208.753,84.118 217.793,83.826 220.127 C 83.285 224.464,83.995 226.863,86.206 228.156 C 86.870 228.544,87.806 229.463,88.288 230.197 C 88.770 230.932,89.701 231.851,90.358 232.239 C 91.014 232.626,91.870 233.535,92.259 234.258 C 93.718 236.967,101.337 237.749,103.377 235.400 L 104.420 234.200 104.310 222.129 C 104.174 207.253,104.385 207.841,99.158 207.727 C 97.311 207.687,95.336 207.798,94.768 207.974 M296.900 208.927 C 295.731 210.644,295.480 232.634,296.604 234.808 C 298.088 237.677,305.235 237.703,307.616 234.848 C 308.280 234.052,308.953 233.271,309.112 233.113 C 309.270 232.955,309.940 232.296,310.600 231.648 C 311.260 231.001,312.263 229.960,312.829 229.335 C 313.395 228.711,314.448 227.723,315.168 227.141 C 317.811 225.004,317.076 218.109,313.966 215.874 C 313.105 215.255,312.400 214.533,312.400 214.270 C 312.400 214.007,311.830 213.343,311.132 212.796 C 309.825 211.769,308.852 210.829,307.308 209.101 C 305.419 206.989,298.301 206.870,296.900 208.927 M96.400 279.173 C 96.070 279.401,95.421 279.591,94.958 279.594 C 94.146 279.600,93.395 280.202,91.144 282.651 C 90.563 283.283,89.663 284.181,89.144 284.646 C 88.625 285.111,87.725 286.011,87.144 286.646 C 86.563 287.281,85.643 288.169,85.100 288.620 C 82.755 290.566,83.371 298.016,86.035 299.913 C 86.874 300.511,87.788 301.420,88.066 301.934 C 88.344 302.447,89.118 303.236,89.786 303.686 C 90.454 304.136,91.630 305.205,92.400 306.062 C 94.664 308.581,101.154 309.329,103.135 307.300 L 104.209 306.200 104.322 294.000 L 104.436 281.800 103.313 280.462 C 102.101 279.017,97.789 278.213,96.400 279.173 M298.555 279.192 C 296.062 280.200,296.000 280.557,296.000 293.999 L 296.000 306.291 297.055 307.345 C 299.336 309.627,308.395 307.843,308.400 305.110 C 308.400 304.951,308.941 304.541,309.602 304.199 C 310.263 303.857,311.250 302.903,311.795 302.079 C 312.341 301.255,313.348 300.249,314.033 299.844 C 317.353 297.883,317.536 289.716,314.302 287.806 C 313.662 287.428,312.812 286.582,312.414 285.926 C 312.015 285.271,311.041 284.294,310.249 283.756 C 309.457 283.217,308.552 282.281,308.238 281.674 C 307.107 279.486,301.430 278.030,298.555 279.192 M105.400 320.613 C 102.008 321.374,101.646 321.652,101.189 323.852 C 100.360 327.844,100.350 350.230,101.176 350.978 C 102.200 351.905,137.764 351.949,139.550 351.026 C 141.242 350.151,141.264 350.000,141.477 337.616 C 141.683 325.659,141.389 323.048,139.629 321.200 C 139.132 320.679,107.523 320.137,105.400 320.613 M184.800 320.816 C 180.432 321.040,179.533 321.267,178.361 322.439 C 176.583 324.217,176.578 324.306,176.786 348.690 C 176.811 351.687,176.220 351.611,199.899 351.681 C 222.340 351.747,222.656 351.719,223.243 349.600 C 223.396 349.050,223.538 343.530,223.560 337.333 C 223.605 324.693,223.383 323.439,220.772 321.580 L 219.469 320.652 204.234 320.626 C 195.855 320.612,187.110 320.697,184.800 320.816 M263.861 320.709 C 259.033 320.984,258.584 322.443,258.650 337.627 C 258.704 349.966,258.742 350.317,260.096 351.175 C 261.656 352.163,297.782 351.835,298.869 350.822 C 299.640 350.103,299.662 349.640,299.533 336.721 C 299.383 321.680,299.368 321.599,296.486 320.823 C 295.100 320.450,269.947 320.362,263.861 320.709 "
              stroke="none" fill="currentColor" fill-rule="evenodd"></path>
    </g>
</svg>