<svg id="svg" version="1.1" xmlns="http://www.w3.org/2000/svg" width="400"
     height="400" viewBox="0, 0, 400,400">
    <g id="svgg">
        <path id="path0"
              d="M183.141 14.268 C 182.456 14.450,182.040 15.489,181.969 17.200 C 181.932 18.097,181.890 18.067,181.557 16.918 C 180.811 14.337,177.300 13.464,175.382 15.382 C 173.385 17.378,174.645 21.526,177.282 21.639 C 177.839 21.663,177.498 21.866,176.414 22.155 C 174.333 22.710,174.100 23.214,174.040 27.300 L 174.000 30.000 172.629 30.000 C 170.872 30.000,170.012 30.877,169.954 32.729 L 169.908 34.200 169.610 32.658 C 169.199 30.528,168.767 30.358,164.113 30.487 C 158.966 30.629,158.724 30.824,158.420 35.070 C 158.201 38.138,158.194 38.154,156.918 38.483 C 154.819 39.024,154.400 40.044,154.400 44.609 C 154.400 49.089,154.633 49.600,156.680 49.600 C 158.281 49.600,158.418 50.208,156.902 50.589 C 155.351 50.978,154.857 51.490,154.574 53.000 L 154.326 54.319 151.175 54.462 C 147.260 54.640,146.587 55.161,146.629 57.988 C 146.663 60.341,147.152 61.017,149.114 61.425 L 150.600 61.734 148.609 62.187 C 146.695 62.622,146.605 62.704,146.285 64.319 C 145.975 65.889,145.850 66.014,144.368 66.252 C 142.227 66.594,142.211 66.642,142.205 72.800 L 142.200 78.200 135.113 78.400 C 125.930 78.659,126.600 78.004,126.600 86.715 C 126.600 94.027,126.978 95.551,129.019 96.482 C 129.861 96.865,130.000 97.199,130.000 98.836 C 130.000 99.983,130.235 100.978,130.590 101.333 C 131.276 102.019,130.697 102.400,128.967 102.400 C 127.093 102.400,126.400 103.666,126.397 107.100 C 126.395 108.805,126.285 111.102,126.152 112.206 L 125.911 114.211 122.986 114.063 C 115.275 113.674,111.356 119.148,117.783 121.331 L 119.366 121.869 116.885 122.128 C 111.286 122.713,110.265 124.032,110.165 130.800 C 110.132 133.110,110.081 136.755,110.052 138.900 L 110.000 142.800 103.444 142.800 C 94.519 142.800,95.085 142.252,94.717 151.263 C 94.561 155.079,94.319 160.945,94.180 164.300 L 93.927 170.400 92.963 170.400 C 91.207 170.400,90.487 171.634,90.178 175.170 C 89.899 178.374,89.888 178.400,88.777 178.400 C 87.015 178.400,86.400 179.332,86.400 182.000 C 86.400 184.688,87.015 185.600,88.829 185.600 C 90.388 185.600,90.319 186.193,88.705 186.656 C 86.660 187.242,86.313 188.348,86.651 193.200 C 86.812 195.510,86.892 202.192,86.830 208.048 C 86.705 219.744,86.764 220.091,89.005 221.028 C 90.944 221.838,91.027 222.293,89.413 223.245 C 87.380 224.445,87.200 225.001,87.200 230.085 C 87.200 235.083,87.497 235.929,89.550 236.779 C 90.222 237.058,90.946 237.786,91.229 238.469 C 92.841 242.361,100.984 243.292,101.757 239.672 L 102.114 238.000 104.004 238.000 L 105.894 238.000 106.082 243.221 C 106.309 249.496,106.419 249.680,109.965 249.680 C 112.784 249.680,113.504 249.251,113.677 247.470 C 113.777 246.439,113.988 246.186,114.800 246.126 C 115.350 246.086,115.503 246.140,115.141 246.248 C 113.627 246.696,113.539 253.600,115.047 253.600 C 115.351 253.600,115.600 253.780,115.600 254.000 C 115.600 254.220,115.351 254.400,115.047 254.400 C 113.536 254.400,113.635 261.543,115.147 261.644 C 115.506 261.668,114.738 261.893,113.441 262.144 C 111.048 262.607,110.622 262.966,110.228 264.854 C 110.039 265.759,109.738 265.948,108.104 266.192 C 105.049 266.648,103.639 267.409,102.994 268.952 C 102.572 269.963,102.030 270.460,100.970 270.810 C 98.988 271.464,98.133 273.386,98.952 275.346 C 100.140 278.189,104.214 277.989,105.187 275.039 C 105.601 273.785,105.825 273.602,106.931 273.612 C 108.083 273.623,108.126 273.666,107.400 274.078 C 106.277 274.715,106.013 275.211,106.006 276.700 C 106.000 277.897,105.897 278.000,104.700 278.006 C 102.834 278.015,102.296 278.506,102.007 280.466 L 101.752 282.200 101.119 280.754 C 100.334 278.961,98.624 278.224,96.757 278.875 C 93.908 279.868,93.976 284.155,96.857 285.160 C 98.306 285.666,97.895 286.381,96.149 286.394 C 93.318 286.414,93.514 293.531,96.349 293.641 C 97.276 293.677,97.241 293.719,96.048 294.001 C 92.991 294.723,93.062 301.881,96.129 302.047 C 96.777 302.083,96.698 302.160,95.818 302.348 C 94.307 302.672,93.900 304.334,94.075 309.467 C 94.218 313.657,94.185 313.594,96.367 313.886 C 97.903 314.092,98.000 314.184,98.000 315.424 C 98.000 317.132,98.895 317.990,100.729 318.041 L 102.200 318.082 100.820 318.407 C 98.751 318.894,98.537 319.485,98.248 325.500 C 97.913 332.480,98.115 333.285,100.328 333.757 C 103.595 334.454,105.320 333.719,105.859 331.399 C 106.233 329.790,106.331 329.639,106.362 330.624 C 106.414 332.294,107.182 333.216,108.797 333.546 C 109.891 333.770,110.219 334.071,110.484 335.094 C 110.831 336.431,112.120 337.600,113.248 337.600 C 113.791 337.600,113.967 338.155,114.173 340.500 C 114.824 347.928,115.384 349.200,118.000 349.200 C 119.335 349.200,121.200 347.695,121.200 346.618 C 121.200 345.321,121.968 346.075,122.286 347.686 C 122.727 349.914,123.087 349.980,134.600 349.947 C 144.471 349.919,145.600 349.817,145.600 348.957 C 145.600 348.650,145.780 348.400,146.000 348.400 C 146.220 348.400,146.400 348.649,146.400 348.953 C 146.400 350.464,153.528 350.366,153.655 348.853 C 153.685 348.494,153.838 349.328,153.994 350.706 C 154.330 353.661,154.292 353.608,156.310 353.879 L 157.887 354.090 158.111 359.945 C 158.438 368.496,158.813 369.153,163.600 369.572 L 166.200 369.800 166.322 371.270 C 166.489 373.266,166.932 373.526,170.722 373.842 L 174.000 374.115 174.017 375.758 C 174.063 380.044,174.609 381.230,176.696 381.569 C 177.928 381.769,178.323 382.075,178.882 383.261 C 180.191 386.041,183.901 386.092,185.048 383.346 C 185.467 382.343,185.858 382.000,186.579 382.000 C 188.615 382.000,189.526 381.326,189.930 379.520 C 190.290 377.908,190.317 378.005,190.357 381.071 C 190.411 385.195,190.611 385.405,194.776 385.726 C 200.346 386.156,201.399 385.715,201.802 382.788 C 202.041 381.047,202.142 380.885,202.665 381.408 C 202.991 381.734,203.864 382.000,204.605 382.000 C 205.870 382.000,205.973 382.104,206.287 383.689 C 206.676 385.654,208.511 386.342,211.689 385.713 C 214.908 385.076,214.878 378.918,211.653 378.280 C 209.230 377.801,209.629 377.747,214.300 377.922 L 218.400 378.075 218.400 379.357 C 218.400 381.385,218.907 381.600,223.680 381.600 C 229.131 381.600,229.600 381.272,229.600 377.459 C 229.600 376.061,229.716 373.811,229.857 372.459 L 230.114 370.000 232.757 369.960 C 236.793 369.899,237.339 369.650,237.757 367.682 C 238.291 365.166,237.659 362.700,236.400 362.385 C 235.727 362.216,236.283 362.073,238.099 361.948 C 241.648 361.704,241.773 361.536,241.937 356.789 C 242.063 353.139,242.127 352.869,242.718 353.461 C 243.259 354.002,244.080 354.073,247.876 353.905 C 252.751 353.690,253.596 353.358,253.606 351.651 C 253.619 349.509,255.005 349.151,260.800 349.789 C 264.387 350.185,265.511 349.700,265.844 347.612 L 266.102 346.000 269.423 346.000 C 273.233 346.000,274.000 345.559,274.000 343.371 L 274.000 342.000 281.371 342.000 C 289.593 342.000,290.000 341.877,290.000 339.395 C 290.000 338.130,290.104 338.027,291.689 337.713 C 293.277 337.399,293.399 337.277,293.713 335.689 C 294.032 334.076,294.800 333.319,294.800 334.618 C 294.800 336.848,298.497 337.940,300.218 336.218 C 301.940 334.497,300.848 330.800,298.618 330.800 C 297.331 330.800,298.068 330.091,299.612 329.844 C 301.354 329.566,302.000 328.638,302.000 326.417 C 302.000 325.546,302.229 325.229,302.995 325.037 C 306.307 324.206,306.452 315.310,303.165 314.653 C 301.695 314.359,301.991 313.600,303.575 313.600 C 306.732 313.600,306.610 306.464,303.451 306.358 C 302.214 306.317,302.218 306.311,303.800 305.823 C 306.940 304.856,306.860 298.912,303.699 298.245 L 302.000 297.886 302.000 293.343 C 302.000 290.449,302.152 288.800,302.418 288.800 C 304.780 288.800,305.850 282.214,303.818 280.182 C 302.339 278.702,299.200 279.654,299.200 281.582 C 299.200 281.812,298.818 282.000,298.350 282.000 C 297.611 282.000,297.533 281.836,297.750 280.750 C 297.887 280.063,298.001 278.938,298.003 278.250 C 298.004 277.285,298.275 276.847,299.188 276.327 C 301.385 275.077,301.012 271.970,298.592 271.362 C 297.411 271.066,295.781 272.000,295.403 273.189 C 294.782 275.147,294.111 273.976,293.898 270.562 C 293.630 266.261,293.555 266.190,289.380 266.244 L 286.000 266.289 285.995 259.244 C 285.989 251.741,285.831 250.400,284.953 250.400 C 284.649 250.400,284.400 250.220,284.400 250.000 C 284.400 249.780,284.985 249.597,285.700 249.594 C 287.599 249.585,288.923 248.763,289.332 247.338 L 289.691 246.086 297.034 245.941 C 306.242 245.758,305.631 246.225,305.956 239.130 L 306.200 233.800 307.470 233.677 C 309.307 233.499,309.621 232.873,309.879 228.888 C 310.156 224.617,309.840 222.517,308.887 222.290 C 307.609 221.985,310.321 221.200,312.652 221.200 C 315.369 221.200,316.305 220.724,317.038 218.972 C 317.415 218.069,318.069 217.415,318.972 217.038 C 320.821 216.265,321.200 215.375,321.200 211.808 C 321.200 207.569,320.611 207.001,315.917 206.708 C 312.217 206.477,310.696 206.002,312.382 205.604 C 313.653 205.304,314.172 203.353,313.762 200.410 C 313.593 199.194,313.504 196.745,313.565 194.966 C 313.711 190.696,313.428 190.400,309.195 190.400 C 305.624 190.400,305.677 190.439,305.902 187.975 L 306.069 186.149 309.079 185.716 C 312.781 185.182,313.410 184.640,313.371 182.012 C 313.338 179.758,312.847 178.989,311.233 178.667 C 309.812 178.382,309.676 177.612,309.278 167.560 C 308.977 159.948,308.827 159.437,306.717 158.890 L 305.534 158.584 305.467 153.974 C 305.414 150.324,305.253 149.139,304.695 148.288 C 303.315 146.184,300.262 146.409,299.200 148.692 C 298.745 149.672,298.341 149.985,297.526 149.991 C 295.873 150.005,294.403 150.704,294.375 151.490 C 294.355 152.027,294.258 151.972,293.974 151.263 C 293.496 150.071,293.794 149.600,295.024 149.600 C 296.654 149.600,297.600 148.278,297.600 146.000 C 297.600 143.024,296.802 142.400,293.000 142.400 L 290.000 142.400 290.000 140.829 C 290.000 138.822,289.178 138.000,287.171 138.000 C 285.762 138.000,285.600 137.897,285.600 137.000 C 285.600 135.716,284.284 134.400,283.000 134.400 C 282.018 134.400,282.000 134.343,282.000 131.250 C 282.000 129.517,281.887 127.537,281.750 126.850 C 281.593 126.067,281.662 125.600,281.932 125.600 C 282.169 125.600,282.481 126.224,282.624 126.986 C 283.395 131.097,289.433 130.226,289.371 126.012 C 289.337 123.691,288.838 122.971,287.026 122.631 L 285.680 122.379 285.540 117.203 C 285.361 110.588,285.584 110.828,279.169 110.350 C 273.196 109.905,273.912 110.919,273.683 102.578 C 273.457 94.371,273.470 94.400,270.000 94.400 C 267.290 94.400,266.428 94.997,266.347 96.929 C 266.307 97.859,266.215 97.664,266.003 96.200 C 265.653 93.779,265.735 93.600,267.195 93.600 C 268.985 93.600,269.600 92.679,269.600 90.000 C 269.600 87.330,268.985 86.400,267.219 86.400 C 266.097 86.400,266.094 86.394,265.811 82.992 C 265.463 78.816,265.122 78.398,262.071 78.406 C 259.147 78.414,258.700 78.737,258.375 81.072 L 258.107 83.000 258.053 81.129 C 257.989 78.866,257.240 78.000,255.351 78.000 L 253.958 78.000 254.079 75.900 C 254.196 73.863,254.238 73.796,255.470 73.677 C 257.247 73.505,257.680 72.784,257.680 70.000 C 257.680 66.857,257.332 66.504,253.869 66.142 C 251.717 65.918,251.300 65.787,252.200 65.619 C 253.281 65.417,253.434 65.196,253.742 63.397 C 254.033 61.704,254.276 61.309,255.341 60.800 C 257.580 59.731,257.800 56.674,255.736 55.321 C 254.927 54.791,253.662 54.612,250.242 54.544 L 245.800 54.456 245.000 52.937 C 243.574 50.229,240.407 50.095,239.200 52.692 C 238.293 54.643,238.138 54.338,237.885 50.107 C 237.629 45.818,237.758 45.016,238.280 47.653 C 238.790 50.232,244.613 50.932,245.796 48.557 C 246.021 48.107,246.519 47.424,246.903 47.040 C 247.787 46.155,247.779 45.802,246.851 44.916 C 246.410 44.495,245.921 43.151,245.662 41.651 C 245.277 39.416,245.007 38.897,243.476 37.451 C 241.995 36.052,241.687 35.486,241.456 33.742 C 241.164 31.532,240.802 31.054,239.124 30.654 C 238.193 30.431,238.017 30.143,237.809 28.498 C 237.171 23.434,236.604 22.797,232.415 22.428 C 229.849 22.202,229.828 22.190,229.549 20.820 C 228.840 17.336,222.400 17.498,222.400 21.000 C 222.400 21.944,222.278 22.000,220.224 22.000 L 218.047 22.000 217.711 20.302 C 217.288 18.161,217.079 18.110,208.500 18.047 L 202.000 18.000 202.000 16.629 C 202.000 14.325,201.313 13.999,196.471 14.005 C 191.701 14.012,190.400 14.235,190.400 15.047 C 190.400 15.351,190.220 15.600,190.000 15.600 C 189.780 15.600,189.600 15.351,189.600 15.047 C 189.600 14.146,185.474 13.648,183.141 14.268 M234.658 35.191 C 234.968 36.741,235.417 37.074,237.812 37.531 L 239.800 37.911 236.900 37.955 L 234.000 38.000 234.000 36.629 C 234.000 35.874,233.717 34.974,233.371 34.629 C 232.800 34.057,232.819 34.000,233.581 34.000 C 234.192 34.000,234.485 34.324,234.658 35.191 M205.005 47.286 C 207.482 47.948,209.600 50.901,209.600 53.691 C 209.600 54.056,210.125 54.665,210.766 55.043 C 212.153 55.863,212.589 56.728,213.266 60.006 C 213.688 62.053,213.966 62.569,214.905 63.054 C 216.136 63.691,216.400 64.191,217.423 67.823 C 217.946 69.681,218.369 70.397,219.238 70.896 C 219.895 71.273,220.474 72.020,220.617 72.673 C 220.752 73.293,221.017 74.160,221.206 74.600 C 221.395 75.040,221.661 75.800,221.798 76.288 C 221.935 76.776,222.570 77.670,223.210 78.275 C 223.851 78.879,224.492 79.919,224.635 80.587 C 225.002 82.292,225.753 83.651,227.161 85.159 C 227.829 85.873,228.498 87.119,228.650 87.929 C 229.061 90.121,229.821 91.724,231.101 93.094 C 231.765 93.804,232.525 95.321,232.908 96.697 C 233.377 98.385,234.015 99.527,235.108 100.637 C 236.261 101.807,236.785 102.783,237.193 104.519 C 237.588 106.204,238.075 107.134,238.977 107.927 C 240.332 109.116,241.193 111.365,241.609 114.800 C 241.755 116.010,242.001 117.285,242.155 117.634 C 242.356 118.089,241.973 118.587,240.798 119.402 L 239.160 120.536 199.902 120.456 L 160.643 120.375 159.401 119.428 L 158.160 118.481 158.456 115.141 C 158.822 110.995,160.217 107.600,161.553 107.600 C 162.083 107.600,162.523 106.622,163.221 103.893 C 163.535 102.664,164.240 101.436,165.204 100.444 C 166.225 99.392,166.873 98.228,167.244 96.780 C 167.580 95.469,168.276 94.140,169.065 93.304 C 170.288 92.007,171.600 89.033,171.600 87.557 C 171.600 87.172,172.245 86.173,173.033 85.338 C 173.884 84.435,174.736 82.942,175.130 81.660 C 175.504 80.446,176.336 78.955,177.031 78.251 C 177.711 77.563,178.495 76.190,178.772 75.200 C 179.564 72.370,180.448 70.762,181.411 70.396 C 182.032 70.160,182.380 69.596,182.566 68.529 C 183.083 65.561,184.668 62.800,185.854 62.800 C 186.135 62.800,186.469 62.126,186.598 61.300 C 187.218 57.332,188.490 54.800,189.865 54.800 C 190.163 54.800,190.495 54.150,190.631 53.300 C 191.114 50.288,192.433 48.267,194.400 47.524 C 196.570 46.704,202.344 46.574,205.005 47.286 M278.289 121.300 C 278.201 122.015,278.128 121.430,278.128 120.000 C 278.128 118.570,278.201 117.985,278.289 118.700 C 278.378 119.415,278.378 120.585,278.289 121.300 M247.000 127.373 C 248.044 127.825,249.600 129.233,249.600 129.727 C 249.600 129.941,250.216 130.674,250.968 131.358 C 251.988 132.284,252.556 133.338,253.201 135.500 C 253.677 137.095,254.282 138.400,254.544 138.400 C 255.365 138.400,256.265 139.792,257.161 142.445 C 257.637 143.856,258.529 145.496,259.152 146.107 C 259.896 146.836,260.576 148.229,261.145 150.190 C 261.621 151.827,262.303 153.330,262.662 153.531 C 263.517 154.009,262.765 155.850,261.244 157.007 C 260.047 157.916,143.266 158.684,140.587 157.800 C 137.255 156.701,135.904 154.535,137.520 152.881 C 138.161 152.226,138.936 150.827,139.243 149.772 C 139.549 148.717,140.353 147.302,141.029 146.627 C 141.874 145.783,142.478 144.570,142.963 142.739 C 143.678 140.039,144.756 138.400,145.816 138.400 C 146.137 138.400,146.400 138.151,146.400 137.846 C 146.400 135.702,148.754 130.800,149.784 130.800 C 150.075 130.800,150.432 130.328,150.576 129.752 C 150.878 128.549,151.420 127.950,152.710 127.393 C 153.855 126.898,245.857 126.879,247.000 127.373 M302.600 161.600 C 302.750 161.843,302.248 161.981,301.324 161.953 C 299.818 161.906,299.815 161.902,301.000 161.600 C 301.660 161.432,302.234 161.273,302.276 161.247 C 302.318 161.221,302.464 161.380,302.600 161.600 M261.368 165.170 C 265.296 165.332,266.984 165.547,267.101 165.900 C 267.192 166.175,267.531 166.400,267.853 166.400 C 269.397 166.400,272.400 168.619,272.400 169.760 C 272.400 170.086,272.563 170.454,272.763 170.577 C 272.962 170.700,273.249 171.701,273.400 172.800 C 273.551 173.900,273.793 174.800,273.938 174.800 C 275.518 174.803,276.965 177.852,277.419 182.133 C 277.569 183.552,277.941 184.741,278.368 185.168 C 279.406 186.206,279.808 191.641,279.754 203.939 L 279.708 214.478 278.754 215.390 C 278.229 215.892,277.491 216.640,277.113 217.051 C 276.735 217.463,276.008 218.206,275.497 218.702 L 274.568 219.604 200.039 219.604 L 125.510 219.604 122.916 216.902 L 120.322 214.200 120.511 200.090 C 120.696 186.342,120.722 185.961,121.547 185.246 C 122.178 184.699,122.503 183.712,122.828 181.356 C 123.340 177.654,124.165 175.690,125.457 175.101 C 126.077 174.819,126.476 174.199,126.654 173.239 C 127.250 170.024,129.451 166.809,131.062 166.798 C 131.248 166.796,131.940 166.484,132.600 166.103 C 133.515 165.575,135.128 165.357,139.400 165.186 C 146.808 164.889,254.219 164.875,261.368 165.170 M302.800 172.000 C 302.800 174.599,302.119 174.599,301.939 172.000 C 301.841 170.592,301.948 170.000,302.300 170.000 C 302.633 170.000,302.800 170.667,302.800 172.000 M303.200 222.000 C 303.718 222.335,303.709 222.389,303.129 222.394 C 302.760 222.397,302.376 222.715,302.276 223.100 C 302.163 223.531,302.075 223.377,302.046 222.700 C 301.997 221.528,302.240 221.380,303.200 222.000 M249.356 227.173 C 252.177 228.916,252.000 226.978,252.000 256.151 L 252.000 282.524 250.437 284.010 C 248.243 286.098,250.858 285.992,199.750 286.059 L 153.301 286.120 151.430 285.214 C 147.971 283.540,148.200 285.583,148.200 256.418 C 148.200 228.767,148.178 229.106,150.094 227.600 C 151.931 226.155,154.689 226.084,204.656 226.189 L 247.912 226.280 249.356 227.173 M279.125 250.308 C 278.753 250.386,278.369 250.753,278.271 251.125 C 278.165 251.526,278.074 251.369,278.046 250.737 C 278.006 249.821,278.124 249.709,278.900 249.921 C 279.599 250.113,279.649 250.199,279.125 250.308 M282.276 271.900 C 282.175 272.285,282.093 271.970,282.093 271.200 C 282.093 270.430,282.175 270.115,282.276 270.500 C 282.376 270.885,282.376 271.515,282.276 271.900 M147.923 294.173 L 149.800 295.945 149.938 302.271 C 150.123 310.781,149.805 313.930,148.609 315.428 L 147.672 316.600 139.336 316.480 C 126.968 316.301,127.359 316.676,127.487 305.131 C 127.585 296.217,127.801 295.452,130.650 293.918 C 133.121 292.588,133.868 292.471,140.123 292.434 L 146.047 292.400 147.923 294.173 M175.415 293.141 C 180.784 293.635,181.091 294.398,180.800 306.536 L 180.600 314.871 179.478 315.836 C 178.370 316.787,178.245 316.800,170.139 316.800 C 158.373 316.800,158.800 317.236,158.800 305.202 C 158.800 292.345,159.697 291.694,175.415 293.141 M234.892 293.056 C 241.030 293.568,241.786 294.639,242.188 303.400 C 242.726 315.086,241.721 316.541,233.000 316.706 C 219.753 316.957,220.024 317.194,219.244 304.667 C 218.660 295.286,219.187 294.338,225.600 293.232 C 227.250 292.947,228.780 292.651,229.000 292.574 C 229.220 292.497,229.897 292.512,230.505 292.608 C 231.114 292.704,233.088 292.905,234.892 293.056 M262.273 293.003 C 266.534 293.304,268.680 294.013,270.232 295.634 L 271.400 296.853 271.400 304.327 C 271.400 316.249,270.726 316.928,259.083 316.717 C 247.902 316.515,247.673 316.278,247.640 304.894 C 247.615 296.261,247.898 295.229,250.559 294.276 C 253.441 293.242,257.377 292.404,258.273 292.633 C 258.532 292.699,260.332 292.866,262.273 293.003 M208.939 294.377 C 212.228 296.637,212.399 297.166,212.237 304.587 C 211.980 316.347,211.530 316.767,199.319 316.642 L 192.439 316.571 190.919 315.349 C 188.362 313.293,188.212 312.685,188.273 304.642 C 188.333 296.624,188.369 296.496,191.137 294.366 L 193.000 292.932 200.000 292.988 L 207.000 293.044 208.939 294.377 M299.615 305.646 C 300.511 305.896,300.483 305.924,299.300 305.960 C 298.084 305.997,298.003 305.916,298.040 304.700 C 298.076 303.517,298.104 303.489,298.354 304.385 C 298.515 304.960,299.040 305.485,299.615 305.646 M219.754 323.267 C 224.110 324.502,225.673 328.647,222.816 331.385 C 222.165 332.008,221.255 333.321,220.794 334.303 C 220.234 335.493,219.574 336.230,218.809 336.519 C 218.158 336.765,217.290 337.613,216.803 338.480 C 216.331 339.321,215.416 340.282,214.770 340.616 C 214.124 340.950,213.140 341.945,212.583 342.827 C 212.026 343.709,211.123 344.601,210.575 344.809 C 210.028 345.017,209.203 345.827,208.742 346.608 C 208.281 347.390,207.373 348.304,206.724 348.639 C 206.075 348.975,205.176 349.873,204.726 350.635 C 203.043 353.487,195.692 353.743,195.587 350.953 C 195.567 350.434,194.133 348.800,193.697 348.800 C 193.106 348.800,191.850 347.509,191.197 346.230 C 190.869 345.586,190.107 344.873,189.505 344.644 C 188.895 344.413,188.131 343.641,187.781 342.904 C 187.436 342.176,186.456 341.141,185.604 340.603 C 184.753 340.065,183.818 339.131,183.528 338.527 C 183.238 337.923,182.466 337.153,181.814 336.815 C 180.218 335.987,179.852 335.609,179.273 334.192 C 179.001 333.527,178.154 332.484,177.389 331.875 C 176.144 330.881,176.000 330.563,176.000 328.809 C 176.000 325.353,176.618 324.609,180.600 323.267 C 182.382 322.667,217.637 322.667,219.754 323.267 "
              stroke="none" fill="#0f0f0f" fill-rule="evenodd"></path>
        <path id="path1"
              d="M194.400 47.524 C 192.433 48.267,191.114 50.288,190.631 53.300 C 190.495 54.150,190.163 54.800,189.865 54.800 C 188.490 54.800,187.218 57.332,186.598 61.300 C 186.469 62.126,186.135 62.800,185.854 62.800 C 184.668 62.800,183.083 65.561,182.566 68.529 C 182.380 69.596,182.032 70.160,181.411 70.396 C 180.448 70.762,179.564 72.370,178.772 75.200 C 178.495 76.190,177.711 77.563,177.031 78.251 C 176.336 78.955,175.504 80.446,175.130 81.660 C 174.736 82.942,173.884 84.435,173.033 85.338 C 172.245 86.173,171.600 87.172,171.600 87.557 C 171.600 89.033,170.288 92.007,169.065 93.304 C 168.276 94.140,167.580 95.469,167.244 96.780 C 166.873 98.228,166.225 99.392,165.204 100.444 C 164.240 101.436,163.535 102.664,163.221 103.893 C 162.523 106.622,162.083 107.600,161.553 107.600 C 160.217 107.600,158.822 110.995,158.456 115.141 L 158.160 118.481 159.401 119.428 L 160.643 120.375 199.902 120.456 L 239.160 120.536 240.798 119.402 C 241.973 118.587,242.356 118.089,242.155 117.634 C 242.001 117.285,241.755 116.010,241.609 114.800 C 241.193 111.365,240.332 109.116,238.977 107.927 C 238.075 107.134,237.588 106.204,237.193 104.519 C 236.785 102.783,236.261 101.807,235.108 100.637 C 234.015 99.527,233.377 98.385,232.908 96.697 C 232.525 95.321,231.765 93.804,231.101 93.094 C 229.821 91.724,229.061 90.121,228.650 87.929 C 228.498 87.119,227.829 85.873,227.161 85.159 C 225.753 83.651,225.002 82.292,224.635 80.587 C 224.492 79.919,223.851 78.879,223.210 78.275 C 222.570 77.670,221.935 76.776,221.798 76.288 C 221.661 75.800,221.395 75.040,221.206 74.600 C 221.017 74.160,220.752 73.293,220.617 72.673 C 220.474 72.020,219.895 71.273,219.238 70.896 C 218.369 70.397,217.946 69.681,217.423 67.823 C 216.400 64.191,216.136 63.691,214.905 63.054 C 213.966 62.569,213.688 62.053,213.266 60.006 C 212.589 56.728,212.153 55.863,210.766 55.043 C 210.125 54.665,209.600 54.056,209.600 53.691 C 209.600 52.625,208.330 49.472,207.544 48.586 C 205.947 46.786,198.043 46.147,194.400 47.524 M152.710 127.393 C 151.420 127.950,150.878 128.549,150.576 129.752 C 150.432 130.328,150.075 130.800,149.784 130.800 C 148.754 130.800,146.400 135.702,146.400 137.846 C 146.400 138.151,146.137 138.400,145.816 138.400 C 144.756 138.400,143.678 140.039,142.963 142.739 C 142.478 144.570,141.874 145.783,141.029 146.627 C 140.353 147.302,139.549 148.717,139.243 149.772 C 138.936 150.827,138.161 152.226,137.520 152.881 C 135.904 154.535,137.255 156.701,140.587 157.800 C 143.266 158.684,260.047 157.916,261.244 157.007 C 262.765 155.850,263.517 154.009,262.662 153.531 C 262.303 153.330,261.621 151.827,261.145 150.190 C 260.576 148.229,259.896 146.836,259.152 146.107 C 258.529 145.496,257.637 143.856,257.161 142.445 C 256.265 139.792,255.365 138.400,254.544 138.400 C 254.282 138.400,253.677 137.095,253.201 135.500 C 252.556 133.338,251.988 132.284,250.968 131.358 C 250.216 130.674,249.600 129.941,249.600 129.727 C 249.600 129.233,248.044 127.825,247.000 127.373 C 245.857 126.879,153.855 126.898,152.710 127.393 M139.400 165.186 C 135.128 165.357,133.515 165.575,132.600 166.103 C 131.940 166.484,131.248 166.796,131.062 166.798 C 129.451 166.809,127.250 170.024,126.654 173.239 C 126.476 174.199,126.077 174.819,125.457 175.101 C 124.165 175.690,123.340 177.654,122.828 181.356 C 122.503 183.712,122.178 184.699,121.547 185.246 C 120.722 185.961,120.696 186.342,120.511 200.090 L 120.322 214.200 122.916 216.902 L 125.510 219.604 200.039 219.604 L 274.568 219.604 275.497 218.702 C 276.008 218.206,276.735 217.463,277.113 217.051 C 277.491 216.640,278.229 215.892,278.754 215.390 L 279.708 214.478 279.754 203.939 C 279.808 191.641,279.406 186.206,278.368 185.168 C 277.941 184.741,277.569 183.552,277.419 182.133 C 276.965 177.852,275.518 174.803,273.938 174.800 C 273.793 174.800,273.551 173.900,273.400 172.800 C 273.249 171.701,272.962 170.700,272.763 170.577 C 272.563 170.454,272.400 170.086,272.400 169.760 C 272.400 168.619,269.397 166.400,267.853 166.400 C 267.531 166.400,267.192 166.175,267.101 165.900 C 266.801 164.995,159.190 164.393,139.400 165.186 M156.383 226.349 C 150.903 226.623,149.220 227.318,148.511 229.600 C 148.340 230.150,148.200 242.218,148.200 256.418 C 148.200 285.583,147.971 283.540,151.430 285.214 L 153.301 286.120 199.750 286.059 C 250.858 285.992,248.243 286.098,250.437 284.010 L 252.000 282.524 252.000 256.151 C 252.000 226.978,252.177 228.916,249.356 227.173 L 247.912 226.280 204.656 226.189 C 180.865 226.139,159.142 226.211,156.383 226.349 M133.200 292.776 C 128.095 294.346,127.594 295.428,127.487 305.131 C 127.359 316.676,126.968 316.301,139.336 316.480 L 147.672 316.600 148.609 315.428 C 149.805 313.930,150.123 310.781,149.938 302.271 L 149.800 295.945 147.923 294.173 L 146.047 292.400 140.123 292.434 C 136.865 292.453,133.750 292.607,133.200 292.776 M164.400 292.738 C 159.589 293.492,158.800 295.249,158.800 305.202 C 158.800 317.236,158.373 316.800,170.139 316.800 C 178.245 316.800,178.370 316.787,179.478 315.836 L 180.600 314.871 180.800 306.536 C 181.126 292.944,181.566 293.479,169.400 292.669 C 167.640 292.551,165.390 292.582,164.400 292.738 M229.000 292.574 C 228.780 292.651,227.250 292.947,225.600 293.232 C 219.187 294.338,218.660 295.286,219.244 304.667 C 220.024 317.194,219.753 316.957,233.000 316.706 C 241.721 316.541,242.726 315.086,242.188 303.400 C 241.786 294.639,241.030 293.568,234.892 293.056 C 233.088 292.905,231.114 292.704,230.505 292.608 C 229.897 292.512,229.220 292.497,229.000 292.574 M256.800 292.666 C 248.086 294.001,247.610 294.637,247.640 304.894 C 247.673 316.278,247.902 316.515,259.083 316.717 C 270.726 316.928,271.400 316.249,271.400 304.327 L 271.400 296.853 270.232 295.634 C 268.680 294.013,266.534 293.304,262.273 293.003 C 260.332 292.866,258.532 292.699,258.273 292.633 C 258.013 292.567,257.350 292.581,256.800 292.666 M191.137 294.366 C 188.369 296.496,188.333 296.624,188.273 304.642 C 188.212 312.685,188.362 313.293,190.919 315.349 L 192.439 316.571 199.319 316.642 C 211.530 316.767,211.980 316.347,212.237 304.587 C 212.399 297.166,212.228 296.637,208.939 294.377 L 207.000 293.044 200.000 292.988 L 193.000 292.932 191.137 294.366 M180.600 323.267 C 176.618 324.609,176.000 325.353,176.000 328.809 C 176.000 330.563,176.144 330.881,177.389 331.875 C 178.154 332.484,179.001 333.527,179.273 334.192 C 179.852 335.609,180.218 335.987,181.814 336.815 C 182.466 337.153,183.238 337.923,183.528 338.527 C 183.818 339.131,184.753 340.065,185.604 340.603 C 186.456 341.141,187.436 342.176,187.781 342.904 C 188.131 343.641,188.895 344.413,189.505 344.644 C 190.107 344.873,190.869 345.586,191.197 346.230 C 191.850 347.509,193.106 348.800,193.697 348.800 C 194.133 348.800,195.567 350.434,195.587 350.953 C 195.692 353.743,203.043 353.487,204.726 350.635 C 205.176 349.873,206.075 348.975,206.724 348.639 C 207.373 348.304,208.281 347.390,208.742 346.608 C 209.203 345.827,210.028 345.017,210.575 344.809 C 211.123 344.601,212.026 343.709,212.583 342.827 C 213.140 341.945,214.124 340.950,214.770 340.616 C 215.416 340.282,216.331 339.321,216.803 338.480 C 217.290 337.613,218.158 336.765,218.809 336.519 C 219.574 336.230,220.234 335.493,220.794 334.303 C 221.255 333.321,222.165 332.008,222.816 331.385 C 225.673 328.647,224.110 324.502,219.754 323.267 C 217.637 322.667,182.382 322.667,180.600 323.267 "
              stroke="none" fill="currentColor" fill-rule="evenodd"></path>
    </g>
</svg>