<svg id="svg" version="1.1" xmlns="http://www.w3.org/2000/svg" width="400"
     height="400" viewBox="0, 0, 400,400">
    <g id="svgg">
        <path id="path0"
              d="M180.181 17.792 C 178.663 19.142,178.612 19.273,178.465 22.189 C 178.294 25.574,177.840 25.831,177.434 22.772 C 176.810 18.067,168.759 16.729,166.961 21.032 C 166.524 22.079,166.151 22.400,165.376 22.400 C 164.045 22.400,162.400 24.077,162.400 25.434 C 162.400 26.449,162.321 26.492,160.900 26.257 C 160.075 26.120,158.894 26.007,158.276 26.004 C 157.630 26.002,157.258 25.830,157.400 25.600 C 157.536 25.380,158.005 25.200,158.442 25.200 C 159.671 25.200,161.200 23.426,161.200 22.000 C 161.200 18.265,155.820 17.684,154.883 21.318 C 154.553 22.598,154.549 22.600,151.440 22.800 C 146.324 23.129,144.736 27.244,149.032 29.039 C 151.543 30.088,150.593 30.400,144.880 30.400 C 138.829 30.400,138.400 30.548,138.400 32.628 L 138.400 33.897 134.300 34.170 C 128.899 34.530,127.668 34.939,126.970 36.610 C 125.746 39.540,127.817 41.600,131.987 41.600 L 134.000 41.600 133.954 42.900 C 133.928 43.618,133.823 43.877,133.720 43.477 C 133.449 42.430,131.950 42.000,128.574 42.000 L 125.600 42.000 125.600 40.829 C 125.600 39.027,124.685 38.399,122.071 38.406 C 119.255 38.414,118.752 38.722,118.441 40.634 C 118.232 41.922,118.002 42.201,116.915 42.482 C 115.560 42.833,114.400 44.119,114.400 45.271 C 114.400 45.757,113.952 46.044,112.900 46.234 C 110.894 46.595,110.545 46.934,110.245 48.808 C 110.045 50.059,109.816 50.400,109.177 50.400 C 108.148 50.400,106.400 52.119,106.400 53.130 C 106.400 53.752,106.008 53.949,104.333 54.171 C 101.127 54.596,99.656 55.369,98.982 56.982 C 98.585 57.931,97.946 58.579,97.028 58.962 C 93.707 60.350,94.119 64.204,97.704 65.278 L 99.379 65.780 97.006 66.190 C 94.659 66.596,94.630 66.617,94.297 68.200 C 93.684 71.111,94.522 73.569,96.149 73.634 C 96.813 73.661,96.744 73.745,95.834 74.017 C 94.404 74.445,94.014 75.018,94.006 76.700 L 94.000 78.000 91.300 78.040 C 87.007 78.103,86.661 78.285,86.227 80.713 L 85.854 82.800 83.416 82.800 C 79.828 82.800,78.373 84.441,77.919 89.000 C 77.820 90.003,77.603 90.222,76.600 90.335 C 74.989 90.517,74.470 91.017,74.323 92.530 C 74.212 93.672,74.020 93.843,72.410 94.231 C 70.177 94.770,69.939 95.547,70.092 101.800 L 70.200 106.200 68.802 106.333 C 66.696 106.532,66.400 106.980,66.400 109.969 C 66.400 113.021,66.761 113.579,68.780 113.649 C 69.785 113.684,69.472 113.803,67.707 114.056 C 62.541 114.798,62.363 115.085,62.267 122.837 C 62.193 128.865,62.383 129.444,64.530 129.713 C 65.228 129.800,63.955 129.901,61.700 129.936 C 57.815 129.997,57.600 129.957,57.600 129.182 C 57.600 127.238,55.931 126.400,52.062 126.400 C 46.672 126.400,46.081 127.253,46.024 135.100 L 46.000 138.400 38.829 138.400 C 30.830 138.400,30.400 138.533,30.400 141.000 C 30.400 142.274,29.572 143.600,28.776 143.600 C 27.993 143.600,26.463 146.757,26.191 148.933 C 26.035 150.180,25.740 151.200,25.536 151.200 C 22.348 151.200,22.355 159.785,25.543 160.848 C 25.893 160.964,26.005 161.843,25.920 163.800 C 25.811 166.343,25.748 166.522,25.200 165.855 C 22.747 162.866,21.810 162.553,20.182 164.182 C 18.574 165.790,18.898 166.807,21.747 169.102 C 22.242 169.500,22.321 170.120,22.135 172.119 C 21.868 174.979,22.609 180.144,23.379 180.782 C 23.661 181.017,25.267 181.427,26.946 181.694 L 30.000 182.180 30.000 185.316 C 30.000 187.041,30.160 188.756,30.355 189.126 C 30.565 189.526,30.543 190.708,30.300 192.035 C 29.747 195.049,30.270 197.277,31.611 197.627 L 32.600 197.885 31.510 198.183 C 30.227 198.535,29.791 200.087,30.093 203.231 C 30.331 205.702,30.323 205.695,33.039 205.920 C 34.270 206.022,35.061 206.238,34.798 206.401 C 34.535 206.564,34.177 207.305,34.001 208.048 C 33.719 209.241,33.677 209.276,33.641 208.349 C 33.512 205.032,24.489 205.768,23.405 209.185 C 22.825 211.011,25.112 213.331,27.841 213.686 C 28.567 213.781,27.953 213.958,26.200 214.161 C 20.577 214.812,19.200 215.978,19.200 220.085 C 19.200 223.648,20.584 225.137,24.500 225.787 C 26.315 226.089,26.402 226.473,24.793 227.080 C 22.238 228.045,21.852 231.172,22.583 245.000 C 22.935 251.654,23.105 252.232,24.931 252.996 C 25.700 253.317,26.515 254.128,27.000 255.053 C 28.218 257.377,30.143 257.952,36.800 257.978 L 42.200 257.999 42.079 263.350 C 41.928 270.036,41.903 270.000,46.597 270.000 L 49.936 270.000 50.214 271.300 C 50.954 274.761,57.036 275.114,57.704 271.735 C 58.054 269.966,60.479 269.203,63.166 270.018 C 63.827 270.218,63.944 270.344,63.490 270.366 C 62.043 270.436,61.452 276.010,62.753 277.314 C 64.668 279.233,75.709 277.657,76.800 275.309 C 77.779 273.201,77.997 273.760,78.047 278.500 C 78.111 284.541,78.304 285.329,79.803 285.649 C 80.755 285.853,80.550 285.923,78.800 285.993 C 75.177 286.136,74.649 286.406,74.243 288.318 C 73.712 290.823,74.341 293.293,75.600 293.643 C 76.363 293.855,76.127 293.939,74.600 294.000 C 71.644 294.118,70.663 294.494,70.385 295.615 C 70.156 296.540,70.129 296.521,69.940 295.298 C 69.698 293.741,69.806 293.600,71.238 293.600 C 72.984 293.600,73.600 292.662,73.600 290.000 C 73.600 286.946,73.062 286.398,70.071 286.406 C 67.250 286.414,66.752 286.721,66.438 288.653 C 66.209 290.063,66.063 290.209,64.653 290.438 C 62.699 290.756,62.497 291.117,62.167 294.898 C 61.911 297.840,61.838 298.023,60.848 298.239 C 58.631 298.721,58.721 298.631,58.239 300.848 C 58.023 301.841,57.844 301.910,54.807 302.175 C 50.761 302.528,50.542 302.755,50.191 306.968 C 49.835 311.248,50.265 313.270,51.611 313.645 C 52.448 313.878,52.369 313.926,51.100 313.960 C 49.756 313.996,49.600 313.896,49.600 313.000 C 49.600 311.347,48.288 310.400,46.000 310.400 C 43.760 310.400,42.404 311.340,42.394 312.900 C 42.386 314.069,42.045 314.509,40.679 315.109 C 40.026 315.396,39.315 316.184,38.975 316.997 C 38.585 317.931,37.941 318.581,37.028 318.962 C 35.149 319.748,34.774 320.660,34.292 325.627 C 33.698 331.744,34.072 333.285,36.260 333.747 L 37.917 334.096 38.139 336.548 C 38.262 337.897,38.228 339.810,38.064 340.800 L 37.767 342.600 37.240 341.061 C 36.564 339.089,34.735 338.185,32.791 338.863 C 29.859 339.885,29.959 344.196,32.938 345.180 C 34.029 345.540,34.460 345.971,34.820 347.062 C 35.151 348.062,35.669 348.637,36.586 349.020 C 37.881 349.561,37.886 349.572,38.101 353.026 C 38.374 357.394,38.575 357.605,42.749 357.891 L 46.000 358.114 46.006 361.357 C 46.013 365.249,46.228 365.655,48.466 366.019 C 50.164 366.294,50.171 366.301,48.780 366.350 C 46.765 366.421,46.400 366.981,46.400 370.000 C 46.400 373.003,46.780 373.600,48.693 373.600 C 50.040 373.600,50.138 373.710,50.578 375.714 C 50.818 376.807,51.566 377.315,53.600 377.767 C 54.222 377.905,54.827 378.483,55.200 379.294 C 56.324 381.737,59.557 381.796,60.788 379.395 C 61.124 378.738,61.433 378.137,61.474 378.060 C 61.514 377.983,63.404 377.869,65.674 377.808 C 70.751 377.672,72.292 377.157,73.048 375.346 C 73.729 373.717,74.398 373.596,74.406 375.100 C 74.419 377.398,75.919 377.931,82.492 377.976 C 85.972 378.000,85.986 378.004,86.216 379.100 C 86.751 381.640,87.828 382.072,92.700 381.704 C 96.105 381.446,97.130 380.831,97.551 378.790 L 97.837 377.400 100.219 377.516 C 105.494 377.774,113.149 377.784,113.400 377.533 C 113.547 377.386,113.766 376.531,113.886 375.633 L 114.105 374.000 118.253 374.000 L 122.400 374.000 122.400 375.351 C 122.400 377.630,122.934 377.792,130.355 377.766 C 141.810 377.727,145.200 376.993,145.200 374.556 C 145.200 374.121,146.019 374.000,148.971 374.000 C 151.720 374.000,152.899 373.844,153.319 373.424 C 153.820 372.923,153.926 373.114,154.137 374.894 C 154.461 377.635,154.626 377.738,158.988 377.929 C 164.287 378.160,165.387 377.900,165.904 376.292 C 166.212 375.331,166.329 375.218,166.359 375.851 C 166.432 377.365,167.477 377.806,170.810 377.727 C 176.092 377.603,178.000 375.905,178.000 371.329 L 178.000 370.000 180.200 370.000 L 182.400 370.000 182.400 371.351 C 182.400 373.233,182.971 373.547,186.952 373.853 C 190.413 374.119,190.444 374.131,190.981 375.417 C 191.856 377.511,193.289 377.783,203.486 377.792 C 214.073 377.802,213.564 378.024,213.891 373.251 L 214.114 370.000 216.257 370.000 C 218.327 370.000,218.400 370.038,218.406 371.100 C 218.415 372.712,218.934 373.283,220.643 373.560 C 221.990 373.779,222.202 373.970,222.450 375.185 C 222.982 377.786,225.478 378.215,238.259 377.904 C 246.875 377.694,248.198 377.381,249.048 375.346 C 249.741 373.688,250.400 373.603,250.400 375.171 C 250.400 377.524,253.664 378.358,261.066 377.897 C 264.720 377.669,265.579 377.247,265.641 375.651 C 265.677 374.724,265.719 374.759,266.001 375.952 C 266.476 377.965,266.679 378.003,276.267 377.898 C 286.071 377.790,285.582 377.905,285.886 375.633 L 286.105 374.000 288.000 374.000 L 289.895 374.000 290.114 375.633 C 290.418 377.905,289.928 377.789,299.733 377.906 C 309.419 378.021,309.576 377.988,310.010 375.742 C 310.294 374.274,310.310 374.260,310.354 375.451 C 310.464 378.444,317.600 378.771,317.600 375.784 C 317.600 373.781,317.893 373.600,321.143 373.594 C 324.775 373.587,325.220 373.362,325.610 371.342 C 325.844 370.132,325.918 370.548,325.954 373.271 C 326.012 377.685,326.282 378.000,330.000 378.000 C 333.570 378.000,333.987 377.595,334.040 374.071 C 334.066 372.335,334.176 371.750,334.355 372.400 C 334.583 373.227,334.995 373.470,336.741 373.808 C 338.717 374.189,339.193 374.800,337.515 374.800 C 336.323 374.800,334.800 376.595,334.800 378.000 C 334.800 381.735,340.172 382.315,341.122 378.682 L 341.457 377.400 344.504 377.542 C 348.911 377.748,349.699 376.928,349.561 372.289 C 349.507 370.480,349.612 366.530,349.793 363.511 L 350.123 358.023 351.760 357.699 C 353.653 357.325,353.874 356.780,353.953 352.300 L 354.000 349.600 355.351 349.600 C 356.970 349.600,357.491 349.060,357.667 347.198 L 357.800 345.800 360.906 345.580 C 364.756 345.307,365.412 344.783,365.371 342.012 C 365.338 339.743,364.848 338.990,363.191 338.658 C 362.111 338.442,362.000 338.273,362.000 336.839 C 362.000 334.417,361.320 334.000,357.371 334.000 L 354.000 334.000 354.000 331.800 C 354.000 329.720,354.055 329.600,355.000 329.600 C 356.812 329.600,357.472 328.435,357.748 324.752 C 358.220 318.445,357.976 318.177,351.600 318.001 C 349.730 317.949,348.509 317.826,348.887 317.727 C 349.740 317.503,350.163 315.442,349.907 312.769 C 349.674 310.352,349.678 310.356,347.420 310.101 C 345.742 309.912,345.600 309.808,345.600 308.777 C 345.600 307.028,344.664 306.399,342.071 306.406 C 339.258 306.414,338.765 306.715,338.390 308.658 C 338.156 309.868,338.082 309.452,338.046 306.729 C 337.993 302.760,337.563 302.000,335.371 302.000 C 334.076 302.000,334.000 301.924,334.000 300.629 C 334.000 298.886,333.114 298.000,331.371 298.000 C 330.076 298.000,330.000 297.924,330.000 296.629 C 330.000 294.886,329.114 294.000,327.371 294.000 C 326.076 294.000,326.000 293.924,326.000 292.629 C 326.000 290.824,325.114 290.000,323.171 290.000 C 321.653 290.000,321.600 289.954,321.600 288.649 C 321.600 287.030,321.060 286.509,319.198 286.333 C 317.482 286.170,317.406 285.822,317.809 280.000 C 318.009 277.094,318.200 276.071,318.428 276.678 C 318.817 277.712,320.821 278.210,323.274 277.881 C 325.555 277.575,325.782 277.191,325.941 273.380 L 326.082 270.000 328.041 270.000 L 330.000 270.000 330.000 271.371 C 330.000 273.176,330.886 274.000,332.829 274.000 C 334.299 274.000,334.400 274.075,334.400 275.171 C 334.400 276.985,335.312 277.600,338.000 277.600 C 340.667 277.600,341.600 276.985,341.600 275.224 C 341.600 274.216,341.763 274.083,343.248 273.884 C 345.304 273.609,345.609 273.304,345.884 271.248 C 346.091 269.711,346.190 269.600,347.373 269.600 C 348.990 269.600,349.600 268.976,349.600 267.320 C 349.600 266.594,349.780 266.000,350.000 266.000 C 350.220 266.000,350.400 266.450,350.400 267.000 C 350.400 270.492,356.837 270.666,357.548 267.194 C 357.783 266.042,358.042 265.783,359.194 265.548 C 361.007 265.177,361.599 264.263,361.605 261.824 C 361.615 258.282,361.679 258.206,365.072 257.717 C 368.797 257.180,369.410 256.646,369.370 253.970 C 369.335 251.592,368.836 251.005,366.400 250.476 L 364.600 250.086 366.671 250.043 C 369.748 249.979,370.133 249.420,369.918 245.325 L 369.743 242.000 371.243 242.000 C 373.467 242.000,374.004 241.229,373.978 238.071 C 373.949 234.469,372.981 231.979,371.306 231.200 L 370.017 230.600 370.009 226.357 L 370.000 222.114 371.699 221.755 C 374.916 221.077,374.947 214.930,371.736 214.253 L 370.076 213.902 369.938 210.384 C 369.780 206.353,369.808 206.405,367.633 206.114 C 365.785 205.866,365.512 205.151,367.006 204.470 C 369.216 203.463,369.216 200.537,367.006 199.530 C 366.074 199.105,366.000 198.870,366.000 196.341 L 366.000 193.611 367.375 193.036 C 369.119 192.307,370.000 189.672,370.000 185.180 L 370.000 182.105 371.633 181.886 C 373.804 181.595,373.800 181.603,373.800 178.000 C 373.800 174.397,373.804 174.405,371.633 174.114 L 370.000 173.895 369.946 170.047 C 369.917 167.931,369.934 164.825,369.985 163.145 C 370.180 156.719,369.254 154.850,365.728 154.549 C 361.799 154.213,361.115 153.971,362.800 153.510 C 364.671 152.999,365.134 152.560,365.422 151.022 C 365.626 149.936,365.904 149.666,367.129 149.363 C 369.446 148.788,370.451 144.736,368.647 143.239 C 367.847 142.575,362.457 141.901,360.203 142.182 L 358.115 142.443 357.902 139.015 C 357.658 135.112,357.371 134.590,355.292 134.271 C 352.166 133.790,350.712 134.543,350.216 136.900 C 350.001 137.922,349.843 138.000,347.992 138.000 L 346.000 138.000 345.940 136.400 C 345.907 135.520,345.862 134.582,345.840 134.316 C 345.818 134.050,346.421 133.706,347.180 133.550 C 351.350 132.698,350.377 126.400,346.076 126.400 C 343.746 126.400,342.820 127.009,342.458 128.779 L 342.184 130.118 338.744 130.036 C 336.074 129.972,335.164 130.093,334.678 130.580 C 334.260 130.997,333.962 131.063,333.785 130.776 C 333.436 130.212,333.787 129.892,335.329 129.369 C 336.976 128.810,337.746 127.249,337.397 125.182 C 337.111 123.491,336.860 123.220,335.000 122.600 C 333.836 122.212,333.792 122.105,333.545 119.065 C 333.270 115.670,333.046 115.256,331.142 114.620 L 329.883 114.200 329.812 110.490 C 329.769 108.273,329.552 106.592,329.270 106.310 C 329.012 106.052,328.800 104.874,328.800 103.694 C 328.800 101.032,328.316 100.091,326.572 99.362 C 325.659 98.981,325.015 98.331,324.625 97.397 C 324.304 96.630,323.597 95.799,323.055 95.552 C 322.039 95.089,321.615 94.161,321.605 92.380 C 321.599 91.083,320.917 90.401,319.620 90.395 C 317.856 90.385,317.009 89.991,316.367 88.878 C 315.670 87.671,312.631 86.000,311.133 86.000 C 310.307 86.000,310.095 85.735,309.777 84.300 C 309.427 82.720,309.280 82.573,307.709 82.225 C 306.143 81.878,305.994 81.730,305.696 80.227 C 305.424 78.850,305.195 78.568,304.188 78.367 L 303.000 78.130 304.129 77.814 C 307.169 76.965,306.666 70.644,303.518 70.141 L 301.811 69.868 303.206 69.402 C 304.974 68.812,305.757 67.313,305.400 65.202 C 305.037 63.050,304.428 62.692,300.761 62.480 L 297.567 62.295 296.990 60.916 C 296.626 60.044,295.985 59.374,295.250 59.097 C 294.181 58.693,294.048 58.415,293.605 55.672 C 292.605 49.472,287.784 48.755,286.609 54.631 L 286.136 57.000 285.879 54.254 C 285.594 51.212,285.151 50.400,283.780 50.400 C 282.598 50.400,281.600 49.402,281.600 48.220 C 281.600 45.338,274.726 45.441,274.284 48.329 C 274.194 48.918,274.093 48.018,274.060 46.329 C 273.976 42.006,273.967 42.000,267.409 42.000 L 262.075 42.000 261.793 39.900 C 261.380 36.825,260.633 35.274,259.416 34.968 C 258.245 34.674,257.600 33.717,257.600 32.275 C 257.600 29.240,250.460 29.510,250.358 32.549 C 250.316 33.790,250.312 33.787,249.825 32.210 C 249.252 30.357,248.648 30.099,244.751 30.040 L 242.102 30.000 241.844 28.388 C 241.564 26.632,240.639 26.000,238.350 26.000 C 237.654 26.000,237.256 25.833,237.400 25.600 C 237.536 25.380,238.005 25.200,238.442 25.200 C 239.671 25.200,241.200 23.426,241.200 22.000 C 241.200 18.265,235.820 17.684,234.883 21.318 C 234.553 22.598,234.549 22.600,231.440 22.800 C 227.945 23.025,226.800 23.830,226.800 26.062 C 226.800 27.322,228.331 29.200,229.358 29.200 C 229.685 29.200,230.064 29.380,230.200 29.600 C 230.353 29.848,229.618 30.000,228.265 30.000 L 226.082 30.000 225.941 26.620 C 225.748 22.000,226.192 22.223,216.881 22.075 C 208.122 21.936,206.400 22.103,206.400 23.094 C 206.400 23.621,206.231 23.569,205.542 22.830 C 204.707 21.934,204.543 21.915,199.442 22.140 C 196.559 22.266,192.737 22.368,190.948 22.366 C 187.257 22.360,186.400 22.837,186.400 24.895 C 186.400 27.325,185.804 25.485,185.573 22.342 C 185.346 19.251,185.286 19.097,183.796 17.772 C 181.914 16.097,182.087 16.096,180.181 17.792 M119.782 31.782 C 117.798 33.766,119.204 37.200,122.000 37.200 C 123.644 37.200,125.200 35.644,125.200 34.000 C 125.200 32.356,123.644 30.800,122.000 30.800 C 121.221 30.800,120.401 31.163,119.782 31.782 M264.554 34.974 C 261.932 36.115,262.066 40.187,264.757 41.125 C 268.871 42.559,271.371 36.633,267.359 34.957 C 265.793 34.303,266.099 34.301,264.554 34.974 M210.164 56.428 C 213.161 56.684,216.985 57.335,219.686 58.049 C 226.734 59.912,227.265 60.040,229.544 60.417 C 230.723 60.613,232.253 61.193,232.944 61.706 C 233.635 62.220,234.920 62.843,235.800 63.092 C 236.680 63.341,238.480 63.855,239.800 64.235 C 241.191 64.636,242.861 65.489,243.772 66.263 C 244.637 66.998,245.562 67.600,245.828 67.600 C 246.704 67.600,249.405 68.977,251.017 70.245 C 251.888 70.929,253.261 71.726,254.070 72.014 C 254.878 72.303,256.198 73.142,257.003 73.880 C 257.808 74.617,259.343 75.665,260.415 76.207 C 261.486 76.750,263.015 77.900,263.813 78.762 C 264.610 79.624,265.699 80.438,266.231 80.572 C 266.764 80.706,267.200 80.992,267.200 81.208 C 267.200 81.540,268.837 83.262,270.871 85.070 C 271.162 85.328,271.907 86.175,272.526 86.951 C 273.145 87.727,273.991 88.470,274.406 88.602 C 274.820 88.733,275.265 89.174,275.394 89.582 C 275.524 89.990,276.613 91.347,277.815 92.598 C 279.017 93.848,280.000 95.003,280.000 95.163 C 280.000 95.324,280.639 96.162,281.421 97.027 C 282.202 97.892,283.483 99.734,284.267 101.121 C 285.051 102.508,286.122 103.923,286.646 104.267 C 287.171 104.611,287.600 105.046,287.600 105.234 C 287.600 105.869,289.683 110.193,290.378 111.000 C 290.757 111.440,291.378 112.700,291.759 113.800 C 292.591 116.200,293.469 117.918,294.416 119.000 C 294.802 119.440,295.702 121.690,296.416 124.000 C 297.130 126.310,297.949 128.668,298.236 129.240 C 298.742 130.247,298.699 130.309,296.879 131.240 L 295.000 132.200 198.800 132.308 C 98.704 132.421,100.586 132.449,98.425 130.819 L 97.602 130.198 98.421 128.544 C 98.871 127.634,99.563 125.530,99.959 123.867 C 100.356 122.204,101.022 120.358,101.440 119.765 C 101.858 119.173,102.307 118.488,102.438 118.244 C 103.360 116.522,103.600 115.940,103.600 115.419 C 103.600 114.478,104.919 111.875,105.838 111.000 C 106.301 110.560,107.153 108.992,107.732 107.515 C 108.314 106.030,109.413 104.183,110.192 103.381 C 110.966 102.584,111.600 101.759,111.600 101.549 C 111.600 101.150,112.041 100.538,113.416 99.028 C 113.865 98.535,114.846 97.157,115.596 95.966 C 116.346 94.775,117.734 93.073,118.680 92.184 C 119.626 91.295,120.400 90.359,120.400 90.104 C 120.400 89.849,121.075 89.138,121.900 88.523 C 122.725 87.908,123.568 87.134,123.773 86.802 C 124.214 86.091,125.367 84.987,128.790 82.000 C 130.176 80.790,131.961 79.146,132.755 78.346 C 133.550 77.546,134.871 76.583,135.690 76.205 C 136.510 75.827,137.950 74.851,138.890 74.035 C 139.831 73.219,141.230 72.307,142.000 72.008 C 142.770 71.709,144.210 70.883,145.200 70.174 C 146.190 69.464,148.145 68.419,149.545 67.852 C 150.944 67.284,152.526 66.383,153.060 65.849 C 153.695 65.214,155.027 64.650,156.915 64.216 C 158.502 63.851,160.113 63.383,160.495 63.176 C 160.877 62.969,161.434 62.800,161.733 62.800 C 162.031 62.800,162.587 62.456,162.967 62.037 C 163.801 61.115,165.027 60.639,168.200 60.008 C 169.520 59.745,171.950 59.173,173.600 58.737 C 179.831 57.090,181.369 56.785,185.132 56.452 C 190.815 55.949,204.411 55.936,210.164 56.428 M64.182 96.182 C 63.642 96.722,63.200 97.540,63.200 98.000 C 63.200 98.460,63.642 99.278,64.182 99.818 C 64.722 100.358,65.540 100.800,66.000 100.800 C 66.460 100.800,67.278 100.358,67.818 99.818 C 68.358 99.278,68.800 98.460,68.800 98.000 C 68.800 97.540,68.358 96.722,67.818 96.182 C 67.278 95.642,66.460 95.200,66.000 95.200 C 65.540 95.200,64.722 95.642,64.182 96.182 M323.200 103.822 C 323.200 106.125,322.396 106.903,320.908 106.037 C 320.289 105.676,320.283 105.623,320.853 105.612 C 321.604 105.598,321.987 104.471,321.995 102.251 C 321.999 100.920,322.084 100.772,322.600 101.200 C 322.995 101.528,323.200 102.422,323.200 103.822 M326.287 121.100 C 326.195 121.705,326.120 121.210,326.120 120.000 C 326.120 118.790,326.195 118.295,326.287 118.900 C 326.378 119.505,326.378 120.495,326.287 121.100 M138.000 145.353 C 156.810 145.347,172.920 145.331,173.800 145.318 C 174.680 145.304,184.310 145.318,195.200 145.347 C 206.090 145.376,217.700 145.345,221.000 145.278 C 224.300 145.212,240.680 145.227,257.400 145.313 C 275.394 145.405,288.377 145.316,289.214 145.096 C 291.990 144.367,298.790 145.372,299.980 146.687 C 302.338 149.295,302.486 150.186,303.024 165.000 C 303.232 170.736,303.025 171.297,300.469 171.920 C 297.599 172.620,97.068 172.459,95.368 171.756 C 93.085 170.811,93.069 170.732,93.366 162.095 C 93.862 147.683,96.115 143.634,102.800 145.139 C 103.350 145.262,119.190 145.359,138.000 145.353 M76.450 159.059 C 79.418 160.123,79.600 160.871,79.600 171.988 C 79.600 181.880,79.121 186.342,78.023 186.671 C 77.680 186.774,77.087 187.025,76.705 187.229 C 76.323 187.433,74.633 187.600,72.949 187.600 C 69.330 187.600,69.526 187.736,61.233 179.508 L 56.100 174.416 56.439 172.602 C 56.816 170.588,57.444 169.200,57.980 169.200 C 58.174 169.200,58.888 168.615,59.568 167.900 C 64.523 162.686,66.814 160.400,67.085 160.400 C 67.258 160.399,67.923 159.949,68.562 159.400 C 69.989 158.173,73.548 158.019,76.450 159.059 M327.211 159.084 C 327.755 159.460,328.438 160.000,328.729 160.284 C 329.019 160.568,329.514 160.800,329.829 160.800 C 330.143 160.800,330.401 160.935,330.403 161.100 C 330.404 161.265,331.132 162.120,332.020 163.000 C 332.907 163.880,334.121 165.126,334.717 165.768 C 335.313 166.411,336.631 167.784,337.647 168.821 C 340.463 171.692,340.763 174.741,338.369 176.155 C 337.706 176.546,336.770 177.468,336.288 178.203 C 335.806 178.937,334.906 179.837,334.288 180.203 C 333.670 180.568,332.770 181.468,332.288 182.203 C 331.806 182.937,330.912 183.834,330.300 184.196 C 329.688 184.557,328.588 185.470,327.855 186.224 C 325.254 188.903,318.085 188.012,317.222 184.903 C 316.448 182.116,316.690 161.563,317.509 160.517 C 319.098 158.486,325.070 157.604,327.211 159.084 M16.182 176.182 C 14.535 177.828,15.705 180.800,18.000 180.800 C 19.079 180.800,20.800 179.079,20.800 178.000 C 20.800 175.705,17.828 174.535,16.182 176.182 M300.450 187.059 C 303.625 188.197,303.457 186.720,303.555 214.321 C 303.653 241.719,303.655 241.683,301.866 243.626 C 301.170 244.382,300.341 245.501,300.025 246.114 C 299.709 246.726,298.856 247.594,298.130 248.043 C 297.404 248.492,296.498 249.388,296.115 250.036 C 295.733 250.683,294.740 251.663,293.910 252.212 C 293.079 252.762,292.400 253.369,292.400 253.561 C 292.400 253.817,277.059 269.369,273.224 273.000 C 271.813 274.336,264.400 282.087,264.400 282.226 C 264.400 282.624,262.616 284.400,262.217 284.400 C 261.741 284.400,261.100 285.078,259.667 287.100 C 259.160 287.815,258.528 288.400,258.262 288.400 C 257.805 288.400,256.400 289.770,256.400 290.215 C 256.400 290.539,242.593 304.151,241.782 304.627 C 241.381 304.861,240.861 305.386,240.627 305.793 C 240.392 306.199,233.045 313.710,224.300 322.484 C 215.555 331.258,208.400 338.585,208.400 338.765 C 208.400 338.946,207.017 340.288,205.328 341.747 L 202.255 344.400 198.103 344.400 L 193.952 344.400 189.774 340.300 C 187.476 338.045,185.282 335.921,184.898 335.580 C 184.514 335.239,183.768 334.384,183.240 333.680 C 182.712 332.976,182.050 332.400,181.767 332.400 C 181.485 332.400,180.847 331.815,180.349 331.100 C 179.851 330.385,178.984 329.391,178.422 328.891 C 177.039 327.660,175.699 326.258,171.183 321.313 C 170.624 320.701,169.814 319.906,169.383 319.548 C 168.952 319.189,168.055 318.289,167.388 317.548 C 166.722 316.806,165.822 315.906,165.388 315.548 C 164.955 315.189,164.055 314.289,163.389 313.548 C 162.723 312.806,161.864 311.930,161.480 311.600 C 161.095 311.270,160.258 310.460,159.620 309.800 C 158.982 309.140,157.951 308.121,157.330 307.536 C 156.708 306.952,155.742 305.962,155.183 305.336 C 154.624 304.711,153.814 303.906,153.383 303.548 C 152.952 303.189,152.055 302.289,151.388 301.548 C 150.722 300.806,149.822 299.906,149.388 299.548 C 148.955 299.189,148.055 298.289,147.389 297.548 C 146.723 296.806,145.874 295.930,145.502 295.600 C 145.130 295.270,144.082 294.253,143.173 293.340 C 142.264 292.427,141.356 291.527,141.156 291.340 C 140.956 291.153,140.083 290.280,139.216 289.400 C 138.349 288.520,137.460 287.620,137.240 287.400 C 137.020 287.180,136.120 286.280,135.240 285.400 C 134.360 284.520,133.460 283.620,133.240 283.400 C 133.020 283.180,132.093 282.253,131.180 281.340 C 130.267 280.427,129.340 279.500,129.120 279.280 C 128.900 279.060,128.000 278.160,127.120 277.280 C 126.240 276.400,125.358 275.527,125.160 275.340 C 123.732 273.990,120.082 270.085,119.775 269.580 C 119.569 269.239,118.820 268.555,118.111 268.061 C 117.402 267.566,116.523 266.655,116.157 266.035 C 115.791 265.415,114.968 264.599,114.328 264.221 C 113.687 263.843,112.781 262.949,112.313 262.236 C 111.845 261.522,110.878 260.555,110.164 260.087 C 109.451 259.619,108.568 258.730,108.203 258.112 C 107.837 257.494,106.937 256.594,106.203 256.112 C 105.468 255.630,104.568 254.730,104.203 254.112 C 103.837 253.494,102.937 252.594,102.203 252.112 C 101.468 251.630,100.563 250.722,100.191 250.093 C 99.820 249.465,98.989 248.601,98.345 248.175 C 97.701 247.749,96.733 246.654,96.195 245.742 C 95.656 244.830,94.675 243.629,94.013 243.073 L 92.811 242.061 92.794 215.774 C 92.776 186.260,92.524 188.657,95.800 187.152 C 98.164 186.067,297.428 185.976,300.450 187.059 M38.000 196.800 C 38.000 197.895,37.887 197.997,36.700 197.960 C 35.502 197.923,35.478 197.899,36.400 197.644 C 37.014 197.474,37.449 197.026,37.528 196.484 C 37.713 195.206,38.000 195.399,38.000 196.800 M33.954 213.300 C 33.928 214.675,33.828 215.500,33.731 215.134 C 33.634 214.768,32.890 214.292,32.077 214.076 C 30.868 213.754,30.785 213.675,31.620 213.641 C 32.898 213.590,33.600 212.909,33.600 211.720 C 33.600 211.214,33.690 210.800,33.800 210.800 C 33.910 210.800,33.979 211.925,33.954 213.300 M76.612 215.431 C 79.707 216.724,79.633 216.365,79.485 229.400 C 79.321 243.786,79.460 243.466,73.211 243.894 L 70.144 244.104 67.972 242.269 C 65.443 240.133,65.608 240.293,60.160 234.669 C 57.320 231.737,56.029 230.123,56.161 229.669 C 56.269 229.301,56.478 228.317,56.626 227.483 C 56.792 226.549,57.265 225.702,57.856 225.283 C 59.305 224.252,64.157 219.430,64.927 218.255 C 66.726 215.509,73.108 213.967,76.612 215.431 M327.965 215.900 C 329.162 216.505,330.695 217.618,331.371 218.373 C 332.047 219.128,332.833 219.938,333.119 220.173 C 333.404 220.408,334.304 221.311,335.119 222.179 C 335.933 223.048,337.065 224.218,337.634 224.779 C 340.932 228.034,340.550 230.372,335.979 234.925 C 333.900 236.994,331.803 239.118,331.318 239.644 C 327.696 243.569,326.552 244.157,323.058 243.893 C 319.044 243.589,317.389 242.845,317.059 241.195 C 316.368 237.738,316.776 217.719,317.557 216.754 C 319.202 214.722,324.735 214.269,327.965 215.900 M362.831 249.628 C 363.267 249.903,363.189 249.989,362.500 249.994 C 361.674 249.999,361.604 249.828,361.650 247.900 L 361.700 245.800 361.981 247.534 C 362.136 248.488,362.519 249.430,362.831 249.628 M280.584 295.836 C 282.475 296.875,283.377 297.652,283.850 298.650 C 284.210 299.408,284.882 300.230,285.344 300.477 C 286.362 301.022,286.797 301.466,287.717 302.904 C 288.106 303.511,289.046 304.411,289.807 304.904 C 290.568 305.397,291.192 306.019,291.195 306.286 C 291.198 306.553,291.671 307.183,292.246 307.686 C 292.821 308.189,294.036 309.344,294.946 310.254 C 295.856 311.164,297.193 312.208,297.917 312.573 C 298.642 312.939,299.396 313.662,299.593 314.181 C 299.790 314.699,300.657 315.690,301.520 316.384 C 302.383 317.077,303.338 318.110,303.642 318.679 C 303.947 319.248,304.834 320.116,305.613 320.608 C 306.393 321.100,307.474 322.155,308.015 322.952 C 308.557 323.749,309.270 324.501,309.600 324.623 C 309.930 324.745,310.830 325.634,311.600 326.598 C 312.370 327.563,313.223 328.362,313.497 328.376 C 314.137 328.407,316.306 330.673,316.608 331.626 C 316.736 332.029,317.147 332.464,317.520 332.593 C 317.894 332.721,318.791 333.631,319.513 334.613 C 320.293 335.676,321.143 336.400,321.610 336.400 C 322.071 336.400,322.893 337.088,323.603 338.068 C 324.268 338.985,325.355 340.066,326.019 340.470 C 327.532 341.390,327.859 342.199,327.046 343.011 C 326.067 343.990,233.787 343.979,231.455 343.000 L 229.910 342.352 232.138 340.076 C 233.363 338.824,234.968 337.170,235.705 336.400 C 236.442 335.630,237.665 334.485,238.423 333.856 C 241.333 331.440,248.864 323.837,249.428 322.746 C 249.754 322.115,250.197 321.600,250.412 321.600 C 250.627 321.600,252.288 320.086,254.102 318.236 C 262.587 309.579,264.023 308.138,266.484 305.800 C 266.948 305.360,269.683 302.617,272.563 299.705 C 275.444 296.794,277.839 294.409,277.886 294.405 C 277.934 294.402,279.148 295.046,280.584 295.836 M119.877 296.477 C 120.715 297.400,123.267 299.965,125.550 302.177 C 127.832 304.390,130.712 307.250,131.950 308.534 C 138.306 315.127,149.544 326.400,149.761 326.400 C 149.898 326.400,151.402 327.872,153.105 329.670 C 154.807 331.469,158.225 334.912,160.700 337.322 C 165.745 342.235,165.687 342.132,163.900 342.977 C 161.724 344.005,70.253 344.114,68.952 343.091 C 67.766 342.158,68.046 341.529,70.404 339.835 C 71.463 339.074,72.434 338.122,72.562 337.718 C 72.691 337.315,73.395 336.662,74.128 336.267 C 74.860 335.872,75.716 335.171,76.030 334.709 C 76.754 333.641,77.641 332.754,78.709 332.030 C 79.171 331.716,79.858 330.888,80.234 330.189 C 80.610 329.490,81.503 328.603,82.218 328.218 C 82.933 327.833,83.848 326.906,84.251 326.157 C 84.654 325.408,85.278 324.702,85.636 324.589 C 86.490 324.317,92.800 318.252,92.800 317.701 C 92.800 317.467,93.598 316.808,94.573 316.237 C 95.549 315.665,96.448 314.878,96.572 314.488 C 96.696 314.098,97.199 313.513,97.689 313.189 C 98.180 312.865,99.036 312.088,99.591 311.462 C 100.826 310.069,101.966 308.923,103.462 307.572 C 104.088 307.006,104.870 306.196,105.200 305.772 C 105.530 305.347,106.160 304.803,106.600 304.562 C 107.040 304.321,107.783 303.448,108.251 302.623 C 108.718 301.797,109.843 300.679,110.751 300.138 C 111.658 299.597,112.400 299.012,112.400 298.839 C 112.400 298.165,113.887 296.869,115.800 295.876 C 118.346 294.554,118.098 294.517,119.877 296.477 M46.000 324.000 L 46.000 326.000 43.900 325.959 C 41.923 325.921,41.881 325.899,43.180 325.593 C 44.743 325.225,45.600 324.280,45.600 322.924 C 45.600 322.416,45.690 322.000,45.800 322.000 C 45.910 322.000,46.000 322.900,46.000 324.000 "
              stroke="none" fill="#070707" fill-rule="evenodd"></path>
        <path id="path1"
              d="M185.132 56.452 C 181.369 56.785,179.831 57.090,173.600 58.737 C 171.950 59.173,169.520 59.745,168.200 60.008 C 165.027 60.639,163.801 61.115,162.967 62.037 C 162.587 62.456,162.031 62.800,161.733 62.800 C 161.434 62.800,160.877 62.969,160.495 63.176 C 160.113 63.383,158.502 63.851,156.915 64.216 C 155.027 64.650,153.695 65.214,153.060 65.849 C 152.526 66.383,150.944 67.284,149.545 67.852 C 148.145 68.419,146.190 69.464,145.200 70.174 C 144.210 70.883,142.770 71.709,142.000 72.008 C 141.230 72.307,139.831 73.219,138.890 74.035 C 137.950 74.851,136.510 75.827,135.690 76.205 C 134.871 76.583,133.550 77.546,132.755 78.346 C 131.961 79.146,130.176 80.790,128.790 82.000 C 125.367 84.987,124.214 86.091,123.773 86.802 C 123.568 87.134,122.725 87.908,121.900 88.523 C 121.075 89.138,120.400 89.849,120.400 90.104 C 120.400 90.359,119.626 91.295,118.680 92.184 C 117.734 93.073,116.346 94.775,115.596 95.966 C 114.846 97.157,113.865 98.535,113.416 99.028 C 112.041 100.538,111.600 101.150,111.600 101.549 C 111.600 101.759,110.966 102.584,110.192 103.381 C 109.413 104.183,108.314 106.030,107.732 107.515 C 107.153 108.992,106.301 110.560,105.838 111.000 C 104.919 111.875,103.600 114.478,103.600 115.419 C 103.600 115.940,103.360 116.522,102.438 118.244 C 102.307 118.488,101.858 119.173,101.440 119.765 C 101.022 120.358,100.356 122.204,99.959 123.867 C 99.563 125.530,98.871 127.634,98.421 128.544 L 97.602 130.198 98.425 130.819 C 100.586 132.449,98.704 132.421,198.800 132.308 L 295.000 132.200 296.879 131.240 C 298.699 130.309,298.742 130.247,298.236 129.240 C 297.949 128.668,297.130 126.310,296.416 124.000 C 295.702 121.690,294.802 119.440,294.416 119.000 C 293.469 117.918,292.591 116.200,291.759 113.800 C 291.378 112.700,290.757 111.440,290.378 111.000 C 289.683 110.193,287.600 105.869,287.600 105.234 C 287.600 105.046,287.171 104.611,286.646 104.267 C 286.122 103.923,285.051 102.508,284.267 101.121 C 283.483 99.734,282.202 97.892,281.421 97.027 C 280.639 96.162,280.000 95.324,280.000 95.163 C 280.000 95.003,279.017 93.848,277.815 92.598 C 276.613 91.347,275.524 89.990,275.394 89.582 C 275.265 89.174,274.820 88.733,274.406 88.602 C 273.991 88.470,273.145 87.727,272.526 86.951 C 271.907 86.175,271.162 85.328,270.871 85.070 C 268.837 83.262,267.200 81.540,267.200 81.208 C 267.200 80.992,266.764 80.706,266.231 80.572 C 265.699 80.438,264.610 79.624,263.813 78.762 C 263.015 77.900,261.486 76.750,260.415 76.207 C 259.343 75.665,257.808 74.617,257.003 73.880 C 256.198 73.142,254.878 72.303,254.070 72.014 C 253.261 71.726,251.888 70.929,251.017 70.245 C 249.405 68.977,246.704 67.600,245.828 67.600 C 245.562 67.600,244.637 66.998,243.772 66.263 C 242.861 65.489,241.191 64.636,239.800 64.235 C 238.480 63.855,236.680 63.341,235.800 63.092 C 234.920 62.843,233.635 62.220,232.944 61.706 C 232.253 61.193,230.723 60.613,229.544 60.417 C 227.265 60.040,226.734 59.912,219.686 58.049 C 212.443 56.135,196.861 55.415,185.132 56.452 M99.600 145.253 C 94.968 145.968,93.814 149.088,93.366 162.095 C 93.069 170.732,93.085 170.811,95.368 171.756 C 97.068 172.459,297.599 172.620,300.469 171.920 C 303.025 171.297,303.232 170.736,303.024 165.000 C 302.486 150.186,302.338 149.295,299.980 146.687 C 298.790 145.372,291.990 144.367,289.214 145.096 C 288.377 145.316,275.394 145.405,257.400 145.313 C 240.680 145.227,224.300 145.212,221.000 145.278 C 217.700 145.345,206.090 145.376,195.200 145.347 C 184.310 145.318,174.680 145.304,173.800 145.318 C 164.249 145.461,103.552 145.308,102.800 145.139 C 102.250 145.015,100.810 145.066,99.600 145.253 M68.562 159.400 C 67.923 159.949,67.258 160.399,67.085 160.400 C 66.814 160.400,64.523 162.686,59.568 167.900 C 58.888 168.615,58.174 169.200,57.980 169.200 C 57.444 169.200,56.816 170.588,56.439 172.602 L 56.100 174.416 61.233 179.508 C 69.526 187.736,69.330 187.600,72.949 187.600 C 74.633 187.600,76.323 187.433,76.705 187.229 C 77.087 187.025,77.680 186.774,78.023 186.671 C 79.631 186.188,80.419 164.526,78.950 161.195 C 77.732 158.434,71.032 157.276,68.562 159.400 M319.600 159.032 C 316.801 160.234,316.819 160.148,316.811 172.400 C 316.803 185.096,316.965 186.119,319.120 187.035 C 321.971 188.249,326.278 187.849,327.855 186.224 C 328.588 185.470,329.688 184.557,330.300 184.196 C 330.912 183.834,331.806 182.937,332.288 182.203 C 332.770 181.468,333.670 180.568,334.288 180.203 C 334.906 179.837,335.806 178.937,336.288 178.203 C 336.770 177.468,337.706 176.546,338.369 176.155 C 340.763 174.741,340.463 171.692,337.647 168.821 C 336.631 167.784,335.313 166.411,334.717 165.768 C 334.121 165.126,332.907 163.880,332.020 163.000 C 331.132 162.120,330.404 161.265,330.403 161.100 C 330.401 160.935,330.143 160.800,329.829 160.800 C 329.514 160.800,329.019 160.568,328.729 160.284 C 326.688 158.290,322.626 157.733,319.600 159.032 M95.800 187.152 C 92.524 188.657,92.776 186.260,92.794 215.774 L 92.811 242.061 94.013 243.073 C 94.675 243.629,95.656 244.830,96.195 245.742 C 96.733 246.654,97.701 247.749,98.345 248.175 C 98.989 248.601,99.820 249.465,100.191 250.093 C 100.563 250.722,101.468 251.630,102.203 252.112 C 102.937 252.594,103.837 253.494,104.203 254.112 C 104.568 254.730,105.468 255.630,106.203 256.112 C 106.937 256.594,107.837 257.494,108.203 258.112 C 108.568 258.730,109.451 259.619,110.164 260.087 C 110.878 260.555,111.845 261.522,112.313 262.236 C 112.781 262.949,113.687 263.843,114.328 264.221 C 114.968 264.599,115.791 265.415,116.157 266.035 C 116.523 266.655,117.402 267.566,118.111 268.061 C 118.820 268.555,119.569 269.239,119.775 269.580 C 120.082 270.085,123.732 273.990,125.160 275.340 C 125.358 275.527,126.240 276.400,127.120 277.280 C 128.000 278.160,128.900 279.060,129.120 279.280 C 129.340 279.500,130.267 280.427,131.180 281.340 C 132.093 282.253,133.020 283.180,133.240 283.400 C 133.460 283.620,134.360 284.520,135.240 285.400 C 136.120 286.280,137.020 287.180,137.240 287.400 C 137.460 287.620,138.349 288.520,139.216 289.400 C 140.083 290.280,140.956 291.153,141.156 291.340 C 141.356 291.527,142.264 292.427,143.173 293.340 C 144.082 294.253,145.130 295.270,145.502 295.600 C 145.874 295.930,146.723 296.806,147.389 297.548 C 148.055 298.289,148.955 299.189,149.388 299.548 C 149.822 299.906,150.722 300.806,151.388 301.548 C 152.055 302.289,152.952 303.189,153.383 303.548 C 153.814 303.906,154.624 304.711,155.183 305.336 C 155.742 305.962,156.708 306.952,157.330 307.536 C 157.951 308.121,158.982 309.140,159.620 309.800 C 160.258 310.460,161.095 311.270,161.480 311.600 C 161.864 311.930,162.723 312.806,163.389 313.548 C 164.055 314.289,164.955 315.189,165.388 315.548 C 165.822 315.906,166.722 316.806,167.388 317.548 C 168.055 318.289,168.952 319.189,169.383 319.548 C 169.814 319.906,170.624 320.701,171.183 321.313 C 175.699 326.258,177.039 327.660,178.422 328.891 C 178.984 329.391,179.851 330.385,180.349 331.100 C 180.847 331.815,181.485 332.400,181.767 332.400 C 182.050 332.400,182.712 332.976,183.240 333.680 C 183.768 334.384,184.514 335.239,184.898 335.580 C 185.282 335.921,187.476 338.045,189.774 340.300 L 193.952 344.400 198.103 344.400 L 202.255 344.400 205.328 341.747 C 207.017 340.288,208.400 338.946,208.400 338.765 C 208.400 338.585,215.555 331.258,224.300 322.484 C 233.045 313.710,240.392 306.199,240.627 305.793 C 240.861 305.386,241.381 304.861,241.782 304.627 C 242.593 304.151,256.400 290.539,256.400 290.215 C 256.400 289.770,257.805 288.400,258.262 288.400 C 258.528 288.400,259.160 287.815,259.667 287.100 C 261.100 285.078,261.741 284.400,262.217 284.400 C 262.616 284.400,264.400 282.624,264.400 282.226 C 264.400 282.087,271.813 274.336,273.224 273.000 C 277.059 269.369,292.400 253.817,292.400 253.561 C 292.400 253.369,293.079 252.762,293.910 252.212 C 294.740 251.663,295.733 250.683,296.115 250.036 C 296.498 249.388,297.404 248.492,298.130 248.043 C 298.856 247.594,299.709 246.726,300.025 246.114 C 300.341 245.501,301.170 244.382,301.866 243.626 C 303.655 241.683,303.653 241.719,303.555 214.321 C 303.457 186.720,303.625 188.197,300.450 187.059 C 297.428 185.976,98.164 186.067,95.800 187.152 M67.902 216.057 C 66.639 216.697,65.300 217.686,64.927 218.255 C 64.157 219.430,59.305 224.252,57.856 225.283 C 57.265 225.702,56.792 226.549,56.626 227.483 C 56.478 228.317,56.269 229.301,56.161 229.669 C 56.029 230.123,57.320 231.737,60.160 234.669 C 65.608 240.293,65.443 240.133,67.972 242.269 L 70.144 244.104 73.211 243.894 C 76.440 243.673,78.486 242.906,79.028 241.715 C 79.809 239.996,79.668 217.859,78.869 216.931 C 76.802 214.528,71.722 214.123,67.902 216.057 M320.257 215.357 C 316.764 216.187,316.800 216.047,316.800 228.794 C 316.800 243.910,316.590 243.404,323.058 243.893 C 326.552 244.157,327.696 243.569,331.318 239.644 C 331.803 239.118,333.900 236.994,335.979 234.925 C 340.550 230.372,340.932 228.034,337.634 224.779 C 337.065 224.218,335.933 223.048,335.119 222.179 C 334.304 221.311,333.404 220.408,333.119 220.173 C 332.833 219.938,332.047 219.128,331.371 218.373 C 328.617 215.297,324.831 214.270,320.257 215.357 M272.563 299.705 C 269.683 302.617,266.948 305.360,266.484 305.800 C 264.023 308.138,262.587 309.579,254.102 318.236 C 252.288 320.086,250.627 321.600,250.412 321.600 C 250.197 321.600,249.754 322.115,249.428 322.746 C 248.864 323.837,241.333 331.440,238.423 333.856 C 237.665 334.485,236.442 335.630,235.705 336.400 C 234.968 337.170,233.363 338.824,232.138 340.076 L 229.910 342.352 231.455 343.000 C 233.787 343.979,326.067 343.990,327.046 343.011 C 327.859 342.199,327.532 341.390,326.019 340.470 C 325.355 340.066,324.268 338.985,323.603 338.068 C 322.893 337.088,322.071 336.400,321.610 336.400 C 321.143 336.400,320.293 335.676,319.513 334.613 C 318.791 333.631,317.894 332.721,317.520 332.593 C 317.147 332.464,316.736 332.029,316.608 331.626 C 316.306 330.673,314.137 328.407,313.497 328.376 C 313.223 328.362,312.370 327.563,311.600 326.598 C 310.830 325.634,309.930 324.745,309.600 324.623 C 309.270 324.501,308.557 323.749,308.015 322.952 C 307.474 322.155,306.393 321.100,305.613 320.608 C 304.834 320.116,303.947 319.248,303.642 318.679 C 303.338 318.110,302.383 317.077,301.520 316.384 C 300.657 315.690,299.790 314.699,299.593 314.181 C 299.396 313.662,298.642 312.939,297.917 312.573 C 297.193 312.208,295.856 311.164,294.946 310.254 C 294.036 309.344,292.821 308.189,292.246 307.686 C 291.671 307.183,291.198 306.553,291.195 306.286 C 291.192 306.019,290.568 305.397,289.807 304.904 C 289.046 304.411,288.106 303.511,287.717 302.904 C 286.797 301.466,286.362 301.022,285.344 300.477 C 284.882 300.230,284.210 299.408,283.850 298.650 C 283.329 297.550,278.826 294.346,277.886 294.405 C 277.839 294.409,275.444 296.794,272.563 299.705 M115.800 295.876 C 113.887 296.869,112.400 298.165,112.400 298.839 C 112.400 299.012,111.658 299.597,110.751 300.138 C 109.843 300.679,108.718 301.797,108.251 302.623 C 107.783 303.448,107.040 304.321,106.600 304.562 C 106.160 304.803,105.530 305.347,105.200 305.772 C 104.870 306.196,104.088 307.006,103.462 307.572 C 101.966 308.923,100.826 310.069,99.591 311.462 C 99.036 312.088,98.180 312.865,97.689 313.189 C 97.199 313.513,96.696 314.098,96.572 314.488 C 96.448 314.878,95.549 315.665,94.573 316.237 C 93.598 316.808,92.800 317.467,92.800 317.701 C 92.800 318.252,86.490 324.317,85.636 324.589 C 85.278 324.702,84.654 325.408,84.251 326.157 C 83.848 326.906,82.933 327.833,82.218 328.218 C 81.503 328.603,80.610 329.490,80.234 330.189 C 79.858 330.888,79.171 331.716,78.709 332.030 C 77.641 332.754,76.754 333.641,76.030 334.709 C 75.716 335.171,74.860 335.872,74.128 336.267 C 73.395 336.662,72.691 337.315,72.562 337.718 C 72.434 338.122,71.463 339.074,70.404 339.835 C 68.046 341.529,67.766 342.158,68.952 343.091 C 70.253 344.114,161.724 344.005,163.900 342.977 C 165.687 342.132,165.745 342.235,160.700 337.322 C 158.225 334.912,154.807 331.469,153.105 329.670 C 151.402 327.872,149.898 326.400,149.761 326.400 C 149.544 326.400,138.306 315.127,131.950 308.534 C 130.712 307.250,127.832 304.390,125.550 302.177 C 123.267 299.965,120.715 297.400,119.877 296.477 C 118.098 294.517,118.346 294.554,115.800 295.876 "
              stroke="none" fill="currentColor" fill-rule="evenodd"></path>
    </g>
</svg>