<svg id="svg" version="1.1" xmlns="http://www.w3.org/2000/svg" width="400" height="400" viewBox="0, 0, 400,400">
    <g id="svgg">
        <path id="path0"
              d="M172.480 53.680 C 172.201 53.959,172.000 55.298,172.000 56.880 L 172.000 59.600 169.224 59.600 C 166.005 59.600,165.969 59.635,165.697 63.028 L 165.493 65.573 144.132 65.687 C 119.894 65.815,122.016 65.449,122.006 69.500 L 122.000 72.000 119.500 72.006 C 115.446 72.016,115.800 69.947,115.800 93.618 C 115.800 117.534,115.459 115.600,119.676 115.600 L 122.000 115.600 122.000 118.800 L 122.000 122.000 119.214 122.000 C 116.867 122.000,116.363 122.122,116.013 122.775 C 115.729 123.306,115.630 153.807,115.699 219.475 L 115.800 315.400 118.847 315.516 L 121.895 315.632 122.082 320.812 C 122.306 327.025,122.513 327.395,125.983 327.798 L 128.307 328.068 128.492 330.300 C 128.863 334.783,123.174 334.472,202.000 334.321 L 265.400 334.200 265.516 331.153 L 265.632 328.105 270.840 327.917 C 277.813 327.665,277.665 327.813,277.917 320.840 L 278.105 315.632 281.153 315.516 L 284.200 315.400 284.301 219.475 C 284.370 153.807,284.271 123.306,283.987 122.775 C 283.637 122.122,283.133 122.000,280.786 122.000 L 278.000 122.000 278.000 118.800 L 278.000 115.600 280.324 115.600 C 284.541 115.600,284.200 117.534,284.200 93.618 C 284.200 69.947,284.554 72.016,280.500 72.006 L 278.000 72.000 277.994 69.500 C 277.984 65.449,280.113 65.815,255.815 65.687 L 234.400 65.573 234.400 63.219 C 234.400 59.632,234.370 59.600,230.957 59.600 L 228.000 59.600 228.000 56.880 C 228.000 55.298,227.799 53.959,227.520 53.680 C 226.826 52.986,173.174 52.986,172.480 53.680 M212.802 69.428 C 214.321 69.773,216.021 70.416,216.581 70.857 L 217.600 71.658 217.600 84.600 L 217.600 97.542 216.581 98.343 C 212.586 101.486,190.283 101.342,186.093 98.146 L 184.731 97.107 184.866 84.707 L 185.000 72.308 186.500 71.012 C 187.324 70.299,188.584 69.528,189.300 69.299 C 191.512 68.589,209.550 68.688,212.802 69.428 M166.626 86.505 C 168.721 89.788,168.684 89.228,168.413 114.000 C 168.179 135.424,168.108 137.151,167.381 139.200 L 166.600 141.400 161.800 141.650 C 154.198 142.047,152.730 142.604,151.157 145.684 C 150.056 147.841,149.965 288.410,151.061 293.932 C 151.787 297.593,151.332 297.029,156.921 301.179 L 159.642 303.200 200.076 303.200 L 240.510 303.200 243.850 300.932 C 248.323 297.893,248.672 297.460,249.387 294.062 C 250.294 289.750,250.320 147.779,249.414 146.028 C 248.001 143.295,242.972 141.600,236.274 141.600 C 232.353 141.600,232.112 139.965,231.962 112.398 C 231.829 88.166,231.706 89.742,234.020 86.100 L 234.592 85.200 250.210 85.200 L 265.828 85.200 266.614 86.498 C 269.360 91.030,269.669 96.041,267.369 98.728 L 265.938 100.400 262.269 100.410 C 258.734 100.419,258.532 100.470,256.749 101.778 L 254.899 103.136 254.714 115.668 C 254.507 129.696,254.429 129.219,257.360 131.921 L 259.182 133.600 262.582 133.600 C 269.346 133.600,268.785 125.931,268.793 218.486 C 268.801 304.744,268.854 302.816,266.383 305.110 C 264.456 306.899,256.899 314.456,255.110 316.383 C 252.899 318.765,252.095 318.800,200.200 318.800 C 148.524 318.800,147.497 318.756,145.332 316.436 C 143.451 314.420,135.927 306.888,134.072 305.164 C 131.536 302.805,131.599 305.027,131.610 218.486 C 131.621 125.231,131.024 133.200,137.996 133.200 L 141.468 133.200 143.337 131.357 C 145.751 128.978,145.642 129.780,145.512 115.400 L 145.400 103.000 143.455 101.700 C 141.628 100.479,141.296 100.400,137.986 100.400 L 134.462 100.400 133.031 98.728 C 130.731 96.041,131.040 91.030,133.786 86.498 L 134.572 85.200 150.186 85.205 L 165.800 85.210 166.626 86.505 M213.186 124.124 C 217.987 125.532,218.000 125.567,218.000 137.158 C 218.000 151.795,219.263 154.800,225.416 154.800 C 229.711 154.800,233.733 155.975,235.400 157.717 L 236.600 158.971 236.475 221.985 C 236.332 293.734,236.779 286.189,232.565 287.990 L 230.200 289.000 201.107 289.110 L 172.013 289.220 170.107 288.240 C 169.058 287.701,167.636 286.736,166.947 286.096 L 165.694 284.931 165.400 274.352 C 165.239 268.533,165.176 240.246,165.260 211.493 L 165.414 159.214 166.807 158.000 C 169.598 155.569,171.643 154.800,175.315 154.800 C 184.489 154.800,186.000 152.355,186.000 137.509 C 186.000 126.722,186.060 126.451,188.898 124.441 L 190.600 123.236 200.400 123.242 C 209.294 123.248,210.476 123.330,213.186 124.124 "
              stroke="none" fill="#080808" fill-rule="evenodd"></path>
        <path id="path1"
              d="M189.300 69.299 C 188.584 69.528,187.324 70.299,186.500 71.012 L 185.000 72.308 184.866 84.707 L 184.731 97.107 186.093 98.146 C 190.283 101.342,212.586 101.486,216.581 98.343 L 217.600 97.542 217.600 84.600 L 217.600 71.658 216.581 70.857 C 214.203 68.986,193.891 67.826,189.300 69.299 M133.786 86.498 C 131.040 91.030,130.731 96.041,133.031 98.728 L 134.462 100.400 137.986 100.400 C 141.296 100.400,141.628 100.479,143.455 101.700 L 145.400 103.000 145.512 115.400 C 145.642 129.780,145.751 128.978,143.337 131.357 L 141.468 133.200 137.996 133.200 C 131.024 133.200,131.621 125.231,131.610 218.486 C 131.599 305.027,131.536 302.805,134.072 305.164 C 135.927 306.888,143.451 314.420,145.332 316.436 C 147.497 318.756,148.524 318.800,200.200 318.800 C 252.095 318.800,252.899 318.765,255.110 316.383 C 256.899 314.456,264.456 306.899,266.383 305.110 C 268.854 302.816,268.801 304.744,268.793 218.486 C 268.785 125.931,269.346 133.600,262.582 133.600 L 259.182 133.600 257.360 131.921 C 254.429 129.219,254.507 129.696,254.714 115.668 L 254.899 103.136 256.749 101.778 C 258.532 100.470,258.734 100.419,262.269 100.410 L 265.938 100.400 267.369 98.728 C 269.669 96.041,269.360 91.030,266.614 86.498 L 265.828 85.200 250.210 85.200 L 234.592 85.200 234.020 86.100 C 231.706 89.742,231.829 88.166,231.962 112.398 C 232.112 139.965,232.353 141.600,236.274 141.600 C 242.972 141.600,248.001 143.295,249.414 146.028 C 250.320 147.779,250.294 289.750,249.387 294.062 C 248.672 297.460,248.323 297.893,243.850 300.932 L 240.510 303.200 200.076 303.200 L 159.642 303.200 156.921 301.179 C 151.332 297.029,151.787 297.593,151.061 293.932 C 149.965 288.410,150.056 147.841,151.157 145.684 C 152.730 142.604,154.198 142.047,161.800 141.650 L 166.600 141.400 167.381 139.200 C 168.108 137.151,168.179 135.424,168.413 114.000 C 168.684 89.228,168.721 89.788,166.626 86.505 L 165.800 85.210 150.186 85.205 L 134.572 85.200 133.786 86.498 M188.898 124.441 C 186.060 126.451,186.000 126.722,186.000 137.509 C 186.000 152.355,184.489 154.800,175.315 154.800 C 171.643 154.800,169.598 155.569,166.807 158.000 L 165.414 159.214 165.260 211.493 C 165.176 240.246,165.239 268.533,165.400 274.352 L 165.694 284.931 166.947 286.096 C 167.636 286.736,169.058 287.701,170.107 288.240 L 172.013 289.220 201.107 289.110 L 230.200 289.000 232.565 287.990 C 236.779 286.189,236.332 293.734,236.475 221.985 L 236.600 158.971 235.400 157.717 C 233.733 155.975,229.711 154.800,225.416 154.800 C 219.263 154.800,218.000 151.795,218.000 137.158 C 218.000 123.289,217.956 123.254,200.400 123.242 L 190.600 123.236 188.898 124.441 "
              stroke="none" fill="currentColor" fill-rule="evenodd"></path>
    </g>
</svg>