<svg id="svg" version="1.1" xmlns="http://www.w3.org/2000/svg" width="400" height="400" viewBox="0, 0, 400,400">
    <g id="svgg">
        <path id="path0"
              d="M138.759 24.508 C 138.012 25.007,137.098 26.017,136.730 26.751 C 135.908 28.387,134.434 30.000,133.761 30.000 C 132.927 30.000,130.724 32.085,130.179 33.389 C 129.576 34.831,128.558 35.821,126.736 36.737 C 122.241 38.995,122.241 48.474,126.735 50.767 C 128.834 51.838,128.675 48.506,128.481 87.259 L 128.307 121.919 113.854 122.064 C 101.099 122.193,99.240 122.291,98.039 122.905 C 96.814 123.530,95.101 123.600,81.039 123.601 C 63.248 123.601,63.311 123.591,61.755 126.674 C 60.693 128.776,59.976 129.493,57.874 130.555 C 56.808 131.093,55.951 131.908,55.514 132.800 C 54.537 134.793,53.584 135.780,51.834 136.611 C 49.387 137.772,48.803 139.140,48.801 143.720 C 48.799 149.666,50.858 151.820,57.301 152.610 L 59.603 152.893 59.501 212.546 L 59.400 272.200 55.369 272.445 C 48.770 272.847,47.371 274.161,47.757 279.600 C 48.127 284.819,49.337 287.170,52.455 288.730 C 53.193 289.098,54.157 290.013,54.598 290.762 C 55.622 292.501,57.499 294.378,59.238 295.402 C 59.987 295.843,60.902 296.807,61.270 297.545 C 62.731 300.465,64.835 301.652,69.600 302.244 C 72.236 302.572,72.386 302.756,72.394 305.680 C 72.408 310.953,73.691 313.673,76.521 314.429 C 78.730 315.020,79.055 315.330,79.343 317.131 C 79.635 318.961,80.953 320.295,82.819 320.650 C 84.702 321.008,85.041 321.347,85.554 323.382 C 86.379 326.660,89.352 327.771,96.670 327.535 C 101.509 327.379,102.144 326.979,102.623 323.783 C 102.979 321.415,103.452 321.524,103.693 324.030 C 104.086 328.112,102.305 327.924,141.041 327.966 L 172.282 328.000 172.509 331.802 C 172.810 336.848,173.545 338.383,176.060 339.217 C 178.325 339.970,179.200 340.653,179.200 341.669 C 179.200 343.316,180.351 344.716,182.291 345.428 C 184.659 346.297,184.903 346.541,185.772 348.909 C 186.726 351.507,190.049 352.800,195.777 352.800 L 197.200 352.800 197.214 355.100 C 197.222 356.365,197.473 358.390,197.771 359.600 C 198.968 364.455,199.147 364.539,208.800 364.800 L 216.200 365.000 216.422 369.200 C 216.679 374.049,217.232 375.506,219.200 376.522 C 222.190 378.064,225.682 376.712,226.854 373.559 L 227.507 371.800 250.418 371.800 L 273.328 371.800 274.218 373.389 C 275.430 375.554,277.577 376.672,279.218 375.993 C 280.499 375.462,282.400 373.461,282.400 372.644 C 282.400 372.372,282.905 371.666,283.522 371.075 L 284.644 370.000 291.369 370.000 L 298.094 370.000 299.647 368.447 L 301.200 366.894 301.200 363.127 C 301.200 361.055,301.375 359.185,301.589 358.971 C 301.802 358.758,302.153 357.345,302.367 355.833 C 302.859 352.355,302.633 352.505,307.629 352.332 C 312.685 352.156,313.740 351.655,314.421 349.102 C 315.102 346.547,315.361 346.221,316.909 345.969 C 319.127 345.608,320.315 344.612,320.806 342.701 C 321.046 341.765,321.292 340.824,321.352 340.610 C 321.411 340.395,322.430 339.938,323.616 339.595 C 326.650 338.718,327.245 337.581,327.558 332.064 L 327.800 327.800 332.064 327.558 C 337.338 327.258,338.696 326.612,339.563 323.985 C 340.216 322.005,340.534 51.798,339.886 49.474 C 339.406 47.755,337.596 47.200,332.464 47.200 L 328.103 47.200 327.813 42.700 C 327.389 36.124,326.514 34.813,322.543 34.802 C 321.623 34.800,321.200 34.102,321.200 32.586 C 321.200 28.926,319.416 28.408,307.000 28.460 C 302.820 28.477,266.910 28.612,227.200 28.760 C 187.490 28.908,154.595 29.178,154.100 29.361 C 153.401 29.619,153.200 29.549,153.200 29.047 C 153.200 28.574,152.823 28.400,151.800 28.400 C 150.045 28.400,150.039 28.000,151.772 26.478 L 153.144 25.274 152.072 24.846 C 148.164 23.288,140.863 23.103,138.759 24.508 M298.811 56.288 C 299.355 56.666,300.109 57.341,300.487 57.788 C 301.290 58.738,301.587 298.392,300.795 305.917 C 300.344 310.194,299.819 311.426,297.732 313.100 C 296.907 313.762,295.684 315.355,295.016 316.639 C 294.246 318.117,293.139 319.473,292.000 320.332 C 291.010 321.078,289.952 322.164,289.650 322.745 C 288.722 324.526,287.901 325.237,285.200 326.604 C 283.770 327.327,282.150 328.404,281.600 328.998 C 278.626 332.205,276.825 332.400,250.107 332.400 C 223.238 332.400,220.952 332.154,218.468 328.995 C 218.024 328.431,216.844 327.535,215.847 327.004 C 212.746 325.356,211.979 324.727,211.194 323.189 C 210.777 322.370,209.512 321.037,208.385 320.227 C 206.952 319.198,206.086 318.192,205.508 316.886 C 205.054 315.858,203.739 314.111,202.586 313.003 C 199.179 309.730,199.441 314.542,199.298 252.600 C 199.157 191.200,198.980 195.343,201.811 193.593 C 203.818 192.353,258.982 192.353,260.989 193.593 C 263.766 195.310,263.651 193.578,263.519 231.607 C 263.370 274.369,264.964 269.800,250.200 269.800 C 236.970 269.800,237.132 269.930,236.872 259.122 C 236.528 244.827,237.080 243.516,243.659 242.995 C 248.919 242.579,249.172 242.343,249.187 237.826 C 249.207 232.376,249.245 232.400,240.603 232.400 C 226.116 232.400,226.000 232.567,226.000 253.465 C 226.000 269.599,226.269 271.904,228.353 273.622 C 229.139 274.270,229.999 274.800,230.263 274.800 C 230.527 274.800,231.530 275.835,232.492 277.100 C 234.822 280.167,235.887 280.363,250.200 280.363 C 264.513 280.363,265.578 280.167,267.908 277.100 C 268.870 275.835,269.873 274.800,270.137 274.800 C 270.401 274.800,271.261 274.270,272.047 273.622 C 274.488 271.610,274.400 274.826,274.400 187.869 L 274.400 108.892 273.414 108.246 C 271.905 107.257,191.295 107.257,189.786 108.246 L 188.800 108.892 188.793 184.946 C 188.786 273.967,188.870 271.742,185.371 274.976 C 184.392 275.881,183.082 277.705,182.412 279.098 C 181.511 280.967,180.709 281.954,179.224 283.021 C 178.132 283.805,177.137 284.767,177.013 285.159 C 176.594 286.478,174.579 288.352,172.721 289.148 C 171.706 289.583,169.881 290.840,168.665 291.941 C 165.655 294.667,166.439 294.600,137.600 294.600 C 108.678 294.600,109.515 294.672,106.736 291.937 C 105.612 290.830,103.862 289.570,102.846 289.136 C 100.586 288.169,99.303 287.012,98.582 285.291 C 98.280 284.571,97.459 283.671,96.758 283.291 C 94.324 281.973,92.819 280.361,92.103 278.306 C 91.587 276.827,91.001 276.025,89.900 275.292 C 86.823 273.244,87.018 277.176,86.892 214.504 L 86.781 158.809 88.160 157.304 L 89.538 155.800 118.269 155.679 C 150.109 155.546,148.440 155.417,150.317 158.159 L 151.234 159.499 151.117 193.849 C 150.971 236.828,152.602 232.199,137.600 232.199 C 123.822 232.199,124.591 232.988,124.622 218.905 L 124.644 208.810 126.010 207.591 C 127.550 206.216,127.838 206.132,131.954 205.844 C 136.289 205.541,136.800 204.951,136.800 200.256 C 136.800 194.768,136.851 194.800,128.172 194.800 C 113.727 194.800,113.600 194.984,113.600 215.896 C 113.600 232.028,113.875 234.376,115.943 235.934 C 117.754 237.299,119.584 239.108,120.600 240.539 C 121.914 242.389,124.831 242.772,137.600 242.771 C 150.574 242.770,153.723 242.367,154.996 240.544 C 155.436 239.915,156.903 238.320,158.256 237.000 C 161.871 233.474,161.598 241.032,161.613 143.967 C 161.628 49.664,161.400 58.088,163.989 56.288 C 165.520 55.223,297.280 55.223,298.811 56.288 M240.800 150.000 L 240.800 159.600 231.200 159.600 L 221.600 159.600 221.600 150.267 C 221.600 145.133,221.720 140.813,221.867 140.667 C 222.013 140.520,226.333 140.400,231.467 140.400 L 240.800 140.400 240.800 150.000 "
              stroke="none"
              fill="#050505"
              fill-rule="evenodd"
        ></path>
        <path id="path1"
              d="M151.814 26.441 C 150.039 28.000,150.036 28.400,151.800 28.400 C 152.823 28.400,153.200 28.574,153.200 29.047 C 153.200 29.549,153.401 29.619,154.100 29.361 C 154.595 29.178,187.430 28.932,227.067 28.814 C 266.703 28.696,299.283 28.451,299.465 28.268 C 299.648 28.085,299.126 27.320,298.305 26.568 L 296.812 25.200 225.020 25.200 L 153.228 25.200 151.814 26.441 M163.989 56.288 C 161.400 58.088,161.628 49.664,161.613 143.967 C 161.598 241.032,161.871 233.474,158.256 237.000 C 156.903 238.320,155.436 239.915,154.996 240.544 C 153.723 242.367,150.574 242.770,137.600 242.771 C 124.831 242.772,121.914 242.389,120.600 240.539 C 119.584 239.108,117.754 237.299,115.943 235.934 C 113.875 234.376,113.600 232.028,113.600 215.896 C 113.600 194.984,113.727 194.800,128.172 194.800 C 136.851 194.800,136.800 194.768,136.800 200.256 C 136.800 204.951,136.289 205.541,131.954 205.844 C 127.838 206.132,127.550 206.216,126.010 207.591 L 124.644 208.810 124.622 218.905 C 124.591 232.988,123.822 232.199,137.600 232.199 C 152.602 232.199,150.971 236.828,151.117 193.849 L 151.234 159.499 150.317 158.159 C 148.440 155.417,150.109 155.546,118.269 155.679 L 89.538 155.800 88.160 157.304 L 86.781 158.809 86.892 214.504 C 87.018 277.176,86.823 273.244,89.900 275.292 C 91.001 276.025,91.587 276.827,92.103 278.306 C 92.819 280.361,94.324 281.973,96.758 283.291 C 97.459 283.671,98.280 284.571,98.582 285.291 C 99.303 287.012,100.586 288.169,102.846 289.136 C 103.862 289.570,105.612 290.830,106.736 291.937 C 109.515 294.672,108.678 294.600,137.600 294.600 C 166.439 294.600,165.655 294.667,168.665 291.941 C 169.881 290.840,171.706 289.583,172.721 289.148 C 174.579 288.352,176.594 286.478,177.013 285.159 C 177.137 284.767,178.132 283.805,179.224 283.021 C 180.709 281.954,181.511 280.967,182.412 279.098 C 183.082 277.705,184.392 275.881,185.371 274.976 C 188.870 271.742,188.786 273.967,188.793 184.946 L 188.800 108.892 189.786 108.246 C 191.295 107.257,271.905 107.257,273.414 108.246 L 274.400 108.892 274.400 187.869 C 274.400 274.826,274.488 271.610,272.047 273.622 C 271.261 274.270,270.401 274.800,270.137 274.800 C 269.873 274.800,268.870 275.835,267.908 277.100 C 265.578 280.167,264.513 280.363,250.200 280.363 C 235.887 280.363,234.822 280.167,232.492 277.100 C 231.530 275.835,230.527 274.800,230.263 274.800 C 229.999 274.800,229.139 274.270,228.353 273.622 C 226.269 271.904,226.000 269.599,226.000 253.465 C 226.000 232.567,226.116 232.400,240.603 232.400 C 249.245 232.400,249.207 232.376,249.187 237.826 C 249.172 242.343,248.919 242.579,243.659 242.995 C 237.080 243.516,236.528 244.827,236.872 259.122 C 237.132 269.930,236.970 269.800,250.200 269.800 C 264.964 269.800,263.370 274.369,263.519 231.607 C 263.651 193.578,263.766 195.310,260.989 193.593 C 258.982 192.353,203.818 192.353,201.811 193.593 C 198.980 195.343,199.157 191.200,199.298 252.600 C 199.441 314.542,199.179 309.730,202.586 313.003 C 203.739 314.111,205.054 315.858,205.508 316.886 C 206.086 318.192,206.952 319.198,208.385 320.227 C 209.512 321.037,210.777 322.370,211.194 323.189 C 211.979 324.727,212.746 325.356,215.847 327.004 C 216.844 327.535,218.024 328.431,218.468 328.995 C 220.952 332.154,223.238 332.400,250.107 332.400 C 276.825 332.400,278.626 332.205,281.600 328.998 C 282.150 328.404,283.770 327.327,285.200 326.604 C 287.901 325.237,288.722 324.526,289.650 322.745 C 289.952 322.164,291.010 321.078,292.000 320.332 C 293.139 319.473,294.246 318.117,295.016 316.639 C 295.684 315.355,296.907 313.762,297.732 313.100 C 299.819 311.426,300.344 310.194,300.795 305.917 C 301.587 298.392,301.290 58.738,300.487 57.788 C 298.483 55.417,304.251 55.600,231.400 55.600 C 169.244 55.600,164.914 55.644,163.989 56.288 "
              stroke="none"
              fill="currentColor"
              fill-rule="evenodd"
        ></path>
    </g>
</svg>
