<svg id="svg" version="1.1" xmlns="http://www.w3.org/2000/svg" width="400" height="400" viewBox="0, 0, 400,400">
    <g id="svgg">
        <path id="path0"
              d="M249.302 22.847 C 246.996 23.513,246.479 24.924,248.033 26.313 C 249.381 27.517,249.357 28.400,247.976 28.400 C 247.549 28.400,247.200 28.553,247.200 28.741 C 247.200 29.152,228.286 29.637,228.000 29.233 C 227.890 29.078,227.180 28.778,226.422 28.567 L 225.044 28.183 226.542 26.685 C 228.187 25.040,228.158 24.718,226.275 23.717 C 225.308 23.204,223.694 23.005,219.600 22.897 C 212.928 22.720,211.751 23.142,210.783 26.060 C 210.030 28.325,209.347 29.200,208.331 29.200 C 206.684 29.200,205.284 30.351,204.572 32.291 C 203.703 34.659,203.459 34.903,201.091 35.772 C 197.173 37.210,197.243 36.060,197.218 99.300 L 197.200 147.200 159.100 147.210 C 114.710 147.221,116.879 147.013,116.233 151.318 L 115.971 153.065 105.686 153.480 C 91.437 154.055,91.517 154.008,91.288 162.000 C 91.023 171.228,90.760 322.262,91.005 324.300 C 91.328 326.984,91.838 327.456,94.788 327.799 L 97.200 328.079 97.200 331.420 C 97.200 338.074,97.946 339.534,101.570 339.982 L 103.339 340.200 103.799 342.510 C 104.370 345.374,104.626 345.631,107.490 346.200 C 109.728 346.644,109.804 346.701,109.914 348.029 C 110.229 351.806,111.066 352.342,117.294 352.765 C 122.425 353.112,121.935 352.709,122.420 356.977 C 123.246 364.246,123.681 364.554,133.381 364.734 C 142.032 364.894,141.600 364.644,141.600 369.489 C 141.600 374.329,142.181 375.697,144.633 376.634 C 148.045 377.937,151.023 376.639,151.922 373.456 L 152.448 371.596 187.888 371.698 L 223.328 371.800 224.218 373.389 C 225.430 375.554,227.577 376.672,229.218 375.993 C 230.499 375.462,232.400 373.461,232.400 372.644 C 232.400 372.372,232.905 371.666,233.522 371.075 L 234.644 370.000 241.369 370.000 L 248.094 370.000 249.647 368.447 L 251.200 366.894 251.200 363.127 C 251.200 361.055,251.385 359.175,251.611 358.949 C 251.836 358.724,252.131 357.563,252.266 356.369 C 252.667 352.807,252.512 352.902,258.181 352.741 C 264.143 352.573,264.711 352.247,265.137 348.751 L 265.400 346.600 267.496 346.389 C 270.097 346.128,270.881 345.388,271.407 342.697 L 271.814 340.614 273.964 340.207 C 277.170 339.599,277.547 338.891,277.906 332.797 L 278.200 327.800 282.998 327.500 C 292.828 326.885,295.200 325.198,295.200 318.820 C 295.200 315.223,295.519 314.645,298.212 313.368 C 302.512 311.327,302.551 300.719,298.264 299.169 C 296.273 298.449,296.400 306.041,296.400 187.600 C 296.400 69.481,296.279 76.796,298.242 75.861 C 301.159 74.469,301.197 74.255,301.199 58.936 C 301.200 41.233,301.447 42.161,295.068 35.875 C 289.798 30.683,289.143 30.373,281.800 29.586 C 279.600 29.351,276.270 28.990,274.400 28.786 C 272.530 28.581,269.695 28.411,268.100 28.407 C 265.362 28.400,265.200 28.350,265.198 27.500 C 265.192 25.241,264.363 23.544,262.985 22.968 C 261.414 22.312,251.461 22.224,249.302 22.847 M255.282 54.816 C 256.097 55.042,257.133 55.698,257.586 56.272 L 258.407 57.317 258.304 183.559 C 258.207 301.472,258.155 309.882,257.520 311.041 C 256.797 312.361,255.210 313.600,254.241 313.600 C 253.474 313.600,252.000 315.687,252.000 316.775 C 252.000 318.818,250.929 320.281,248.641 321.363 C 247.063 322.110,246.400 322.651,246.400 323.194 C 246.400 324.286,244.702 325.845,242.919 326.388 C 240.361 327.169,238.400 328.100,238.400 328.536 C 238.400 329.307,236.621 331.553,235.665 331.989 C 233.008 333.199,221.203 333.590,187.132 333.595 C 141.611 333.602,139.163 333.412,137.400 329.730 C 136.576 328.008,135.179 327.111,132.519 326.594 C 130.760 326.252,129.343 325.047,128.814 323.442 C 128.464 322.383,127.999 321.956,126.621 321.429 C 124.871 320.761,123.603 318.856,123.599 316.892 C 123.596 315.675,122.069 313.600,121.175 313.600 C 120.019 313.600,118.179 311.652,117.558 309.768 C 117.145 308.520,117.011 295.563,116.900 246.191 C 116.749 178.990,116.659 181.923,118.929 180.238 L 120.059 179.400 168.800 179.400 L 217.541 179.400 218.671 180.236 C 221.131 182.057,221.000 179.627,221.000 223.400 C 221.000 266.237,220.989 266.501,219.136 268.611 C 217.073 270.961,216.713 270.996,194.200 270.998 C 164.706 271.001,166.998 272.804,167.004 249.600 C 167.008 229.391,166.800 229.758,178.493 229.362 C 181.852 229.248,185.365 228.961,186.300 228.725 L 188.000 228.296 188.000 225.211 L 188.000 222.127 186.454 221.663 C 184.344 221.031,165.805 221.031,163.993 221.663 C 163.263 221.917,162.137 222.727,161.491 223.463 C 160.846 224.198,160.089 224.800,159.811 224.800 C 158.520 224.800,158.351 227.928,158.482 249.400 C 158.621 272.283,158.644 272.527,160.704 272.979 C 162.393 273.350,164.695 275.409,165.006 276.828 C 165.489 279.027,165.123 279.000,194.000 279.000 C 222.764 279.000,222.496 279.020,222.924 276.882 C 223.227 275.364,225.364 273.227,226.882 272.924 C 229.115 272.477,228.985 278.563,229.200 164.182 C 229.424 45.195,229.126 56.290,232.130 54.984 C 233.695 54.303,252.934 54.164,255.282 54.816 "
              stroke="none"
              fill="#040404"
              fill-rule="evenodd"
        ></path>
        <path id="path1"
              d="M226.535 26.691 L 225.044 28.183 226.422 28.567 C 227.180 28.778,227.890 29.078,228.000 29.233 C 228.286 29.637,247.200 29.152,247.200 28.741 C 247.200 28.553,247.549 28.400,247.976 28.400 C 249.348 28.400,249.383 27.519,248.058 26.335 L 246.787 25.200 237.407 25.200 L 228.027 25.200 226.535 26.691 M232.130 54.984 C 229.126 56.290,229.424 45.195,229.200 164.182 C 228.985 278.563,229.115 272.477,226.882 272.924 C 225.364 273.227,223.227 275.364,222.924 276.882 C 222.496 279.020,222.764 279.000,194.000 279.000 C 165.123 279.000,165.489 279.027,165.006 276.828 C 164.695 275.409,162.393 273.350,160.704 272.979 C 158.644 272.527,158.621 272.283,158.482 249.400 C 158.351 227.928,158.520 224.800,159.811 224.800 C 160.089 224.800,160.846 224.198,161.491 223.463 C 162.137 222.727,163.263 221.917,163.993 221.663 C 165.805 221.031,184.344 221.031,186.454 221.663 L 188.000 222.127 188.000 225.211 L 188.000 228.296 186.300 228.725 C 185.365 228.961,181.852 229.248,178.493 229.362 C 166.800 229.758,167.008 229.391,167.004 249.600 C 166.998 272.804,164.706 271.001,194.200 270.998 C 216.713 270.996,217.073 270.961,219.136 268.611 C 220.989 266.501,221.000 266.237,221.000 223.400 C 221.000 179.627,221.131 182.057,218.671 180.236 L 217.541 179.400 168.800 179.400 L 120.059 179.400 118.929 180.238 C 116.659 181.923,116.749 178.990,116.900 246.191 C 117.011 295.563,117.145 308.520,117.558 309.768 C 118.179 311.652,120.019 313.600,121.175 313.600 C 122.069 313.600,123.596 315.675,123.599 316.892 C 123.603 318.856,124.871 320.761,126.621 321.429 C 127.999 321.956,128.464 322.383,128.814 323.442 C 129.343 325.047,130.760 326.252,132.519 326.594 C 135.179 327.111,136.576 328.008,137.400 329.730 C 139.163 333.412,141.611 333.602,187.132 333.595 C 221.203 333.590,233.008 333.199,235.665 331.989 C 236.621 331.553,238.400 329.307,238.400 328.536 C 238.400 328.100,240.361 327.169,242.919 326.388 C 244.702 325.845,246.400 324.286,246.400 323.194 C 246.400 322.651,247.063 322.110,248.641 321.363 C 250.929 320.281,252.000 318.818,252.000 316.775 C 252.000 315.687,253.474 313.600,254.241 313.600 C 255.210 313.600,256.797 312.361,257.520 311.041 C 258.155 309.882,258.207 301.472,258.304 183.559 L 258.407 57.317 257.586 56.272 C 257.133 55.698,256.097 55.042,255.282 54.816 C 252.934 54.164,233.695 54.303,232.130 54.984 "
              stroke="none"
              fill="currentColor"
              fill-rule="evenodd"
        ></path>
    </g>
</svg>
