<svg id="svg" version="1.1" xmlns="http://www.w3.org/2000/svg" width="400" height="400" viewBox="0, 0, 400,400">
    <g id="svgg">
        <path id="path0"
              d="M218.436 22.812 C 217.069 23.393,216.492 24.328,216.197 26.444 L 215.940 28.288 207.569 28.489 L 199.197 28.690 196.498 30.045 C 193.905 31.347,193.737 31.523,192.200 34.536 C 190.172 38.510,188.462 40.220,184.639 42.099 C 179.798 44.479,180.003 43.716,180.003 59.400 C 180.003 74.224,180.048 74.473,182.993 75.877 C 184.929 76.800,184.841 74.909,184.714 113.000 L 184.600 147.000 145.200 147.200 C 103.258 147.413,103.961 147.378,103.459 149.294 C 103.252 150.088,103.247 150.088,102.117 149.284 C 100.468 148.109,96.532 147.459,92.473 147.690 C 87.949 147.948,86.692 148.586,85.772 151.091 C 84.903 153.459,84.659 153.703,82.291 154.572 C 80.351 155.284,79.200 156.684,79.200 158.331 C 79.200 159.347,78.325 160.030,76.060 160.783 C 73.142 161.751,72.720 162.928,72.897 169.600 C 73.098 177.211,74.110 179.117,76.616 176.610 C 78.209 175.017,78.800 175.075,78.800 176.824 C 78.800 177.622,79.000 178.000,79.424 178.000 C 79.767 178.000,79.937 178.178,79.803 178.395 C 79.669 178.612,79.418 183.398,79.245 189.031 C 79.072 194.664,78.766 199.391,78.565 199.536 C 78.124 199.855,78.059 300.400,78.500 300.400 C 78.665 300.400,78.800 300.913,78.800 301.540 C 78.800 302.167,78.979 303.202,79.199 303.840 C 79.418 304.478,79.748 308.060,79.933 311.800 C 80.217 317.569,80.399 318.855,81.134 320.284 C 82.224 322.403,82.224 322.400,80.888 322.400 C 80.019 322.400,79.676 322.663,79.322 323.600 C 78.739 325.145,78.338 325.111,76.594 323.367 C 74.340 321.113,72.709 323.319,72.738 328.580 C 72.768 333.849,74.566 337.784,77.333 338.633 C 78.484 338.986,79.560 340.159,80.571 342.160 C 81.094 343.194,81.918 344.054,82.800 344.486 C 84.770 345.451,85.704 346.357,86.634 348.200 C 87.686 350.283,90.045 351.474,94.572 352.206 C 98.501 352.843,98.800 352.968,98.800 353.988 C 98.800 357.611,111.026 372.238,116.329 374.959 C 120.386 377.041,124.081 376.427,125.782 373.389 L 126.672 371.800 175.836 371.600 C 202.876 371.490,225.322 371.243,225.715 371.052 C 226.672 370.585,227.600 368.715,227.600 367.253 C 227.600 365.247,227.957 364.800,229.559 364.800 C 230.369 364.800,232.015 364.551,233.216 364.247 C 234.417 363.944,236.112 363.569,236.981 363.414 C 239.158 363.028,241.304 361.867,242.524 360.418 C 243.087 359.748,243.695 359.201,243.874 359.202 C 244.053 359.204,245.460 357.856,247.000 356.208 L 249.800 353.212 254.071 352.603 C 259.423 351.840,262.164 350.545,263.354 348.218 C 264.385 346.203,265.234 345.364,266.982 344.633 C 269.144 343.730,269.997 341.969,269.999 338.400 C 270.000 336.750,270.278 334.069,270.618 332.442 C 270.957 330.815,271.362 326.315,271.518 322.442 L 271.800 315.400 273.948 315.138 C 278.270 314.610,277.926 320.725,277.966 243.538 L 278.000 178.077 292.118 177.938 C 309.144 177.771,308.203 178.039,308.988 173.135 L 309.223 171.671 317.311 171.512 C 327.034 171.322,327.588 171.116,327.605 167.681 C 327.617 165.350,327.991 164.800,329.563 164.800 C 330.371 164.800,332.015 164.551,333.216 164.247 C 334.417 163.944,336.112 163.569,336.981 163.414 C 339.158 163.028,341.304 161.867,342.524 160.418 C 343.087 159.748,343.710 159.200,343.907 159.200 C 344.104 159.200,345.474 157.854,346.952 156.210 C 349.887 152.943,349.953 152.507,347.760 150.909 C 346.731 150.160,346.706 150.034,346.654 145.394 L 346.600 140.646 348.200 140.325 C 351.466 139.669,351.652 139.574,352.180 138.286 C 352.471 137.579,352.835 134.912,352.990 132.359 L 353.272 127.719 357.936 127.467 C 367.900 126.931,369.996 125.489,369.999 119.170 C 370.000 115.380,370.364 114.720,373.249 113.270 C 377.788 110.991,377.766 101.529,373.216 99.208 L 371.600 98.384 371.600 87.491 L 371.600 76.599 373.261 75.798 C 375.766 74.591,376.605 72.718,375.986 69.715 C 375.286 66.322,374.787 65.580,369.994 60.811 C 364.977 55.821,364.218 55.451,357.304 54.623 C 354.937 54.340,352.493 53.904,351.874 53.654 C 349.991 52.895,349.600 53.060,349.600 54.614 C 349.600 55.888,349.523 55.987,348.826 55.614 C 347.616 54.966,347.200 55.118,347.200 56.209 C 347.200 57.158,347.146 57.184,346.300 56.647 C 345.805 56.333,343.984 55.694,342.254 55.226 C 338.553 54.227,336.420 53.242,337.900 53.216 C 339.008 53.196,339.015 53.026,337.973 51.562 L 337.146 50.400 338.983 50.400 L 340.821 50.400 340.225 49.248 C 339.287 47.434,339.155 47.420,320.412 47.205 L 302.624 47.000 302.130 44.050 C 301.451 39.992,300.210 37.650,298.200 36.631 C 296.459 35.749,294.800 34.170,294.800 33.396 C 294.800 30.792,290.554 29.252,282.112 28.795 C 278.526 28.601,275.414 28.332,275.196 28.197 C 274.967 28.056,274.800 28.482,274.800 29.208 C 274.800 30.395,274.734 30.449,273.600 30.200 C 272.509 29.960,272.400 30.030,272.400 30.968 C 272.400 32.203,272.373 32.207,270.464 31.233 C 267.480 29.711,265.111 29.523,246.600 29.343 C 236.700 29.247,228.240 29.012,227.800 28.821 C 227.360 28.629,226.677 28.369,226.283 28.242 C 225.411 27.962,225.942 26.673,227.209 25.995 C 230.639 24.159,222.348 21.151,218.436 22.812 M262.677 55.182 C 263.710 55.811,264.110 56.481,264.768 58.680 C 265.479 61.056,265.769 61.501,267.060 62.200 C 268.117 62.772,269.082 63.907,270.443 66.175 C 271.491 67.921,272.807 69.591,273.369 69.885 C 273.930 70.179,274.492 70.827,274.617 71.324 C 274.886 72.397,277.857 73.598,280.254 73.603 C 283.897 73.610,288.107 75.026,289.600 76.746 C 291.476 78.906,293.409 79.193,306.081 79.197 C 317.116 79.200,317.477 79.128,318.623 76.690 C 320.784 72.096,329.062 73.268,331.723 78.544 C 335.212 85.462,333.886 112.042,329.849 116.094 C 328.209 117.741,327.315 119.690,326.590 123.200 C 326.193 125.122,324.933 126.785,323.383 127.433 C 322.281 127.894,322.010 128.290,321.582 130.074 C 321.108 132.050,320.325 133.174,317.350 136.150 C 314.256 139.243,313.248 139.932,311.117 140.409 C 309.055 140.870,308.863 141.012,308.455 142.376 C 307.503 145.550,302.910 146.167,282.384 145.879 C 265.057 145.636,263.169 145.322,260.243 142.190 C 259.522 141.418,258.316 140.680,257.370 140.433 C 254.816 139.765,250.259 135.713,247.554 131.702 L 246.908 130.745 246.563 131.672 C 246.373 132.183,246.124 171.840,246.009 219.800 C 245.809 303.335,245.769 307.084,245.061 309.000 C 244.424 310.723,243.115 312.309,240.915 314.025 C 240.648 314.233,240.237 315.168,240.001 316.102 C 238.983 320.130,238.705 320.550,236.492 321.400 C 235.346 321.840,234.407 322.353,234.404 322.540 C 234.378 324.563,232.257 326.465,229.464 326.971 C 226.930 327.431,226.016 328.050,225.223 329.841 C 223.611 333.485,222.109 333.596,174.600 333.582 C 126.874 333.568,125.607 333.474,124.588 329.839 C 124.101 328.106,123.047 327.371,120.472 326.970 C 118.310 326.633,116.502 325.153,116.185 323.460 C 115.976 322.346,115.669 322.070,113.973 321.468 C 111.876 320.723,111.122 319.761,110.625 317.200 C 110.245 315.242,109.568 314.000,108.880 314.000 C 107.874 314.000,105.763 312.470,105.169 311.310 C 104.291 309.596,104.106 183.878,104.978 181.790 C 106.124 179.048,103.104 179.200,156.487 179.201 C 209.520 179.201,206.622 179.066,207.889 181.600 C 208.855 183.534,208.583 265.358,207.603 267.517 C 206.003 271.042,206.321 271.000,181.400 271.000 L 159.800 271.000 158.066 270.075 C 154.832 268.348,154.651 267.479,154.478 252.800 C 154.206 229.801,154.255 229.699,165.883 229.338 C 169.577 229.224,173.170 228.957,173.868 228.745 L 175.135 228.359 174.917 225.280 C 174.625 221.145,175.389 221.418,163.681 221.271 C 152.126 221.125,151.038 221.288,149.425 223.402 C 148.839 224.171,148.089 224.800,147.759 224.800 C 146.149 224.800,146.000 226.681,146.000 246.971 C 146.000 270.160,146.175 272.083,148.341 272.742 C 150.260 273.327,152.641 275.564,152.978 277.100 C 153.418 279.105,156.021 279.273,183.600 279.086 C 209.483 278.910,209.423 278.915,209.823 277.096 C 210.159 275.564,212.542 273.326,214.459 272.742 C 216.901 271.999,216.800 276.742,216.800 162.371 C 216.800 47.690,216.604 56.168,219.285 55.003 C 221.630 53.984,260.979 54.146,262.677 55.182 M105.600 151.800 L 104.735 153.200 105.791 153.200 C 107.183 153.200,106.752 153.822,104.947 154.418 C 104.010 154.727,103.416 154.754,103.252 154.497 C 103.114 154.279,102.415 153.974,101.700 153.818 C 99.108 153.256,101.533 150.400,104.602 150.400 L 106.465 150.400 105.600 151.800 "
              stroke="none"
              fill="#050505"
              fill-rule="evenodd"
        ></path>
        <path id="path1"
              d="M226.812 26.389 C 225.516 27.599,225.489 28.400,226.744 28.400 C 227.127 28.400,227.611 28.566,227.820 28.768 C 228.034 28.975,236.160 29.219,246.400 29.326 C 265.105 29.522,267.481 29.711,270.464 31.233 C 272.373 32.207,272.400 32.203,272.400 30.968 C 272.400 30.030,272.509 29.960,273.600 30.200 C 275.436 30.603,275.314 28.540,273.387 26.613 L 271.973 25.200 250.029 25.200 L 228.085 25.200 226.812 26.389 M337.973 51.562 C 339.015 53.026,339.008 53.196,337.900 53.216 C 336.420 53.242,338.553 54.227,342.254 55.226 C 343.984 55.694,345.805 56.333,346.300 56.647 C 347.146 57.184,347.200 57.158,347.200 56.209 C 347.200 55.118,347.616 54.966,348.826 55.614 C 350.224 56.362,349.899 53.037,348.431 51.569 C 347.262 50.400,347.261 50.400,342.204 50.400 L 337.146 50.400 337.973 51.562 M219.285 55.003 C 216.604 56.168,216.800 47.690,216.800 162.371 C 216.800 276.742,216.901 271.999,214.459 272.742 C 212.542 273.326,210.159 275.564,209.823 277.096 C 209.423 278.915,209.483 278.910,183.600 279.086 C 156.021 279.273,153.418 279.105,152.978 277.100 C 152.641 275.564,150.260 273.327,148.341 272.742 C 146.175 272.083,146.000 270.160,146.000 246.971 C 146.000 226.681,146.149 224.800,147.759 224.800 C 148.089 224.800,148.839 224.171,149.425 223.402 C 151.038 221.288,152.126 221.125,163.681 221.271 C 175.389 221.418,174.625 221.145,174.917 225.280 L 175.135 228.359 173.868 228.745 C 173.170 228.957,169.577 229.224,165.883 229.338 C 154.255 229.699,154.206 229.801,154.478 252.800 C 154.651 267.479,154.832 268.348,158.066 270.075 L 159.800 271.000 181.400 271.000 C 206.321 271.000,206.003 271.042,207.603 267.517 C 208.583 265.358,208.855 183.534,207.889 181.600 C 206.622 179.066,209.520 179.201,156.487 179.201 C 103.104 179.200,106.124 179.048,104.978 181.790 C 104.106 183.878,104.291 309.596,105.169 311.310 C 105.763 312.470,107.874 314.000,108.880 314.000 C 109.568 314.000,110.245 315.242,110.625 317.200 C 111.122 319.761,111.876 320.723,113.973 321.468 C 115.669 322.070,115.976 322.346,116.185 323.460 C 116.502 325.153,118.310 326.633,120.472 326.970 C 123.047 327.371,124.101 328.106,124.588 329.839 C 125.607 333.474,126.874 333.568,174.600 333.582 C 222.109 333.596,223.611 333.485,225.223 329.841 C 226.016 328.050,226.930 327.431,229.464 326.971 C 232.257 326.465,234.378 324.563,234.404 322.540 C 234.407 322.353,235.346 321.840,236.492 321.400 C 238.705 320.550,238.983 320.130,240.001 316.102 C 240.237 315.168,240.648 314.233,240.915 314.025 C 243.115 312.309,244.424 310.723,245.061 309.000 C 245.769 307.084,245.809 303.335,246.009 219.800 C 246.124 171.840,246.373 132.183,246.563 131.672 L 246.908 130.745 247.554 131.702 C 250.259 135.713,254.816 139.765,257.370 140.433 C 258.316 140.680,259.522 141.418,260.243 142.190 C 263.169 145.322,265.057 145.636,282.384 145.879 C 302.910 146.167,307.503 145.550,308.455 142.376 C 308.863 141.012,309.055 140.870,311.117 140.409 C 313.248 139.932,314.256 139.243,317.350 136.150 C 320.325 133.174,321.108 132.050,321.582 130.074 C 322.010 128.290,322.281 127.894,323.383 127.433 C 324.933 126.785,326.193 125.122,326.590 123.200 C 327.315 119.690,328.209 117.741,329.849 116.094 C 333.886 112.042,335.212 85.462,331.723 78.544 C 329.062 73.268,320.784 72.096,318.623 76.690 C 317.477 79.128,317.116 79.200,306.081 79.197 C 293.409 79.193,291.476 78.906,289.600 76.746 C 288.107 75.026,283.897 73.610,280.254 73.603 C 277.857 73.598,274.886 72.397,274.617 71.324 C 274.492 70.827,273.930 70.179,273.369 69.885 C 272.807 69.591,271.491 67.921,270.443 66.175 C 269.082 63.907,268.117 62.772,267.060 62.200 C 265.769 61.501,265.479 61.056,264.768 58.680 C 263.403 54.117,264.986 54.401,241.000 54.417 C 224.225 54.429,220.366 54.533,219.285 55.003 M101.569 151.569 C 100.074 153.065,100.098 153.471,101.700 153.818 C 102.415 153.974,103.114 154.279,103.252 154.497 C 103.416 154.754,104.010 154.727,104.947 154.418 C 106.752 153.822,107.183 153.200,105.791 153.200 L 104.735 153.200 105.600 151.800 L 106.465 150.400 104.602 150.400 C 103.076 150.400,102.527 150.612,101.569 151.569 M76.623 176.604 L 75.200 178.027 75.200 187.399 L 75.200 196.772 76.441 198.186 C 78.818 200.893,79.181 199.833,79.228 190.044 C 79.244 186.830,79.384 182.805,79.539 181.100 C 79.757 178.705,79.705 178.000,79.311 178.000 C 79.012 178.000,78.800 177.511,78.800 176.824 C 78.800 175.077,78.210 175.017,76.623 176.604 M76.441 301.814 L 75.200 303.228 75.200 312.601 L 75.200 321.973 76.613 323.387 C 78.337 325.111,78.740 325.142,79.322 323.600 C 79.676 322.663,80.019 322.400,80.888 322.400 C 82.224 322.400,82.224 322.403,81.134 320.284 C 80.399 318.855,80.217 317.569,79.933 311.800 C 79.748 308.060,79.418 304.478,79.199 303.840 C 78.979 303.202,78.800 302.167,78.800 301.540 C 78.800 299.985,77.962 300.082,76.441 301.814 "
              stroke="none"
              fill="currentColor"
              fill-rule="evenodd"
        ></path>
    </g>
</svg>
